if (_typeface_js && _typeface_js.loadFace) _typeface_js.loadFace({"glyphs":{"0":{"ha":551,"x_min":31,"x_max":521,"o":"m 31 332 q 32 388 31 359 q 37 446 33 417 q 48 504 40 475 q 67 557 55 532 q 98 604 80 582 q 141 641 116 625 q 199 665 166 656 q 275 674 232 674 q 373 659 332 674 q 441 617 413 643 q 484 557 468 591 q 508 485 500 523 q 518 407 516 447 q 521 332 521 368 q 518 254 521 294 q 508 176 516 214 q 484 104 500 138 q 441 44 468 70 q 373 4 413 19 q 275 -11 332 -11 q 199 -3 232 -11 q 141 21 166 6 q 98 57 116 36 q 67 103 80 78 q 48 157 55 129 q 37 214 40 185 q 32 274 33 244 q 31 332 31 303 m 171 332 q 171 287 171 311 q 175 238 172 263 q 184 191 178 214 q 202 150 191 168 q 232 122 214 133 q 275 111 249 111 q 319 122 301 111 q 349 150 337 133 q 367 191 360 168 q 376 238 373 214 q 380 287 379 263 q 380 332 380 311 q 380 376 380 352 q 376 424 379 400 q 367 471 373 449 q 349 512 360 494 q 319 539 337 529 q 275 550 301 550 q 232 539 250 550 q 203 512 215 529 q 185 471 191 494 q 175 424 178 449 q 172 376 172 400 q 171 332 171 352 z "},"1":{"ha":551,"x_min":69,"x_max":375,"o":"m 237 455 q 200 443 218 448 q 167 434 183 437 q 138 430 151 431 q 116 429 125 429 q 81 439 93 429 q 69 479 69 450 q 72 500 69 491 q 84 516 76 510 q 104 527 92 523 q 135 535 117 531 l 169 542 q 211 559 195 548 q 237 584 227 570 q 254 612 247 598 q 270 639 261 627 q 290 658 278 651 q 321 666 302 666 q 342 663 333 666 q 359 653 352 661 q 371 634 367 646 q 375 603 375 622 l 375 73 q 371 40 375 55 q 360 14 368 25 q 338 -3 352 3 q 306 -8 325 -8 q 273 -3 287 -8 q 252 14 260 3 q 240 40 244 25 q 237 73 237 55 l 237 455 z "},"2":{"ha":551,"x_min":32,"x_max":519,"o":"m 459 119 q 483 116 472 119 q 502 105 494 113 q 515 87 510 98 q 519 59 519 75 q 501 14 519 27 q 451 0 483 0 l 107 0 q 73 6 87 0 q 49 23 58 13 q 36 45 40 33 q 32 70 32 58 q 75 175 32 120 q 204 287 118 230 q 261 323 236 307 q 306 354 287 340 q 338 380 325 368 q 360 406 351 392 q 372 434 368 419 q 376 469 376 449 q 368 509 376 492 q 347 537 360 526 q 316 553 333 548 q 280 559 298 559 q 239 554 258 559 q 206 537 221 549 q 180 506 191 525 q 161 458 169 487 q 153 435 158 445 q 143 419 149 426 q 126 409 136 412 q 103 406 117 406 q 77 409 89 406 q 56 419 65 412 q 42 439 47 427 q 36 469 36 451 q 45 524 36 497 q 70 573 54 550 q 108 614 86 595 q 158 645 131 632 q 216 665 185 658 q 281 672 248 672 q 380 656 336 672 q 454 612 424 640 q 500 549 484 585 q 516 475 516 514 q 511 420 516 445 q 498 377 507 396 q 476 340 489 357 q 446 310 463 324 q 408 282 429 295 q 362 254 387 269 q 292 213 323 232 q 238 178 261 194 q 201 147 215 161 q 183 119 188 133 l 459 119 z "},"3":{"ha":551,"x_min":36,"x_max":513,"o":"m 36 150 q 41 176 36 164 q 55 197 46 189 q 76 211 64 206 q 102 216 87 216 q 127 211 117 216 q 144 198 137 206 q 157 180 152 190 q 168 160 162 170 q 181 139 173 149 q 199 121 188 129 q 227 109 210 113 q 267 104 243 104 q 312 111 293 104 q 344 131 331 118 q 363 162 357 144 q 370 201 370 180 q 366 232 370 218 q 354 258 362 247 q 329 276 345 269 q 290 286 314 283 q 267 289 280 287 q 242 296 254 291 q 222 310 230 301 q 214 336 214 320 q 219 366 214 354 q 234 384 224 377 q 259 394 244 391 q 294 398 274 397 q 344 419 328 400 q 360 471 360 439 q 353 507 360 492 q 334 532 347 522 q 306 546 322 541 q 272 550 290 550 q 227 542 244 550 q 198 523 210 535 q 179 498 187 512 q 162 473 171 485 q 142 454 154 462 q 113 447 131 447 q 90 449 101 447 q 70 459 79 452 q 56 476 62 466 q 51 503 51 487 q 61 555 51 531 q 88 596 71 578 q 127 627 104 614 q 174 649 149 640 q 224 662 199 657 q 274 666 250 666 q 376 650 334 665 q 444 609 417 634 q 481 551 470 583 q 493 484 493 518 q 473 407 493 439 q 415 353 454 374 q 459 332 440 346 q 490 299 478 318 q 508 257 502 280 q 513 207 513 233 q 494 110 513 151 q 440 42 474 69 q 361 2 406 15 q 264 -12 315 -12 q 187 -4 221 -12 q 128 18 153 5 q 85 50 103 32 q 57 85 68 67 q 41 120 46 103 q 36 150 36 137 z "},"4":{"ha":551,"x_min":12,"x_max":541,"o":"m 310 463 l 308 463 l 154 259 l 310 259 l 310 463 m 310 146 l 82 146 q 51 153 64 146 q 29 170 38 160 q 16 193 20 181 q 12 217 12 206 q 16 248 12 235 q 30 272 21 260 l 314 641 q 339 661 324 655 q 374 667 354 667 q 405 662 392 667 q 427 648 418 657 q 439 627 435 639 q 443 600 443 614 l 443 259 l 489 259 q 510 254 500 259 q 526 242 520 250 q 537 224 533 235 q 541 202 541 214 q 537 181 541 191 q 526 163 533 170 q 510 150 520 155 q 489 146 500 146 l 443 146 l 443 57 q 439 30 443 42 q 428 9 436 18 q 407 -4 420 1 q 376 -8 394 -8 q 346 -4 358 -8 q 325 9 333 1 q 314 30 317 18 q 310 57 310 42 l 310 146 z "},"5":{"ha":551,"x_min":31,"x_max":520,"o":"m 80 602 q 87 625 82 614 q 101 645 93 636 q 119 658 109 653 q 141 663 129 663 l 427 663 q 452 659 440 663 q 472 648 463 656 q 485 630 480 641 q 490 602 490 618 q 485 575 490 586 q 472 556 480 564 q 453 546 464 549 q 429 542 441 542 l 186 542 l 160 399 l 162 397 q 190 417 175 409 q 223 430 206 425 q 258 439 240 436 q 294 441 276 441 q 380 428 339 441 q 452 389 421 415 q 502 321 483 362 q 520 225 520 280 q 500 124 520 168 q 446 49 481 79 q 363 4 411 19 q 257 -12 314 -12 q 183 -5 216 -12 q 125 12 151 1 q 82 37 100 23 q 53 66 64 51 q 36 96 42 81 q 31 123 31 111 q 36 150 31 138 q 50 171 41 162 q 72 184 59 179 q 100 189 85 189 q 125 182 115 189 q 145 165 135 176 q 163 143 154 155 q 186 121 173 131 q 216 103 199 110 q 259 97 234 97 q 309 107 286 97 q 347 134 331 117 q 372 173 363 152 q 381 219 381 195 q 371 271 381 249 q 344 306 361 292 q 303 326 326 320 q 252 332 279 332 q 219 329 233 332 q 192 320 204 326 q 169 309 179 315 q 149 298 159 303 q 129 289 139 293 q 106 286 118 286 q 67 296 81 286 q 47 321 53 306 q 41 358 41 337 q 45 399 42 378 l 80 602 z "},"6":{"ha":551,"x_min":30,"x_max":525,"o":"m 165 371 q 195 397 180 386 q 229 416 211 409 q 267 428 247 424 q 310 432 287 432 q 402 415 362 432 q 469 370 442 398 q 510 303 496 341 q 525 223 525 266 q 506 121 525 164 q 455 47 488 77 q 379 4 423 18 q 284 -11 335 -11 q 197 1 235 -11 q 131 35 159 13 q 83 85 103 56 q 52 148 64 114 q 35 219 40 182 q 30 294 30 256 q 49 471 30 398 q 105 588 68 543 q 193 653 141 633 q 309 673 244 673 q 384 662 350 673 q 443 633 418 651 q 480 594 467 616 q 494 551 494 572 q 489 527 494 538 q 477 507 485 516 q 458 494 469 499 q 435 489 448 489 q 409 495 420 489 q 389 510 398 502 q 371 530 380 519 q 352 549 363 541 q 328 565 342 558 q 296 571 315 571 q 235 554 260 571 q 195 512 210 538 q 172 453 179 486 q 165 388 165 421 l 165 371 m 173 214 q 181 165 173 186 q 203 128 189 143 q 237 105 217 113 q 282 97 257 97 q 327 105 307 97 q 360 128 347 113 q 382 165 374 143 q 389 214 389 186 q 381 266 389 243 q 358 302 373 288 q 324 323 344 316 q 282 330 304 330 q 240 322 259 330 q 205 300 220 315 q 182 263 190 285 q 173 214 173 241 z "},"7":{"ha":551,"x_min":19,"x_max":517,"o":"m 453 663 q 478 659 467 663 q 498 648 490 656 q 512 627 507 641 q 517 594 517 614 q 510 567 517 580 q 492 539 503 554 q 464 505 480 524 q 429 460 448 487 q 390 399 411 434 q 349 316 370 363 q 309 205 329 268 q 271 63 289 143 q 262 27 267 42 q 249 4 257 13 q 230 -8 241 -4 q 203 -12 219 -12 q 170 -7 183 -12 q 150 8 157 -1 q 139 31 142 18 q 136 60 136 44 q 142 103 136 77 q 156 159 147 129 q 179 224 165 190 q 209 295 192 259 q 244 366 225 330 q 283 434 262 401 q 325 494 303 466 q 368 543 346 522 l 78 543 q 55 546 66 543 q 36 557 44 550 q 24 575 28 564 q 19 603 19 587 q 24 630 19 619 q 37 649 28 642 q 56 659 45 656 q 80 663 67 663 l 453 663 z "},"8":{"ha":551,"x_min":30,"x_max":521,"o":"m 30 200 q 37 252 30 228 q 56 296 43 276 q 89 331 69 316 q 134 354 108 346 q 99 379 114 364 q 72 411 83 393 q 54 450 60 429 q 48 494 48 471 q 64 566 48 533 q 109 623 80 599 q 180 660 138 647 q 275 674 222 674 q 370 660 328 674 q 442 623 413 647 q 487 566 471 599 q 502 494 502 533 q 496 450 502 471 q 479 411 490 429 q 452 379 468 393 q 417 354 436 364 q 462 331 443 346 q 495 296 481 316 q 514 252 508 276 q 521 200 521 228 q 510 129 521 160 q 482 74 500 98 q 441 34 465 51 q 389 7 417 18 q 333 -7 362 -3 q 275 -12 303 -12 q 218 -7 247 -12 q 162 7 189 -3 q 110 34 134 18 q 69 74 86 51 q 41 129 51 98 q 30 200 30 160 m 164 199 q 172 155 164 175 q 195 123 180 136 q 230 103 210 110 q 275 96 251 96 q 320 103 300 96 q 355 123 340 110 q 378 155 370 136 q 387 199 387 175 q 381 233 387 214 q 362 268 375 252 q 328 296 349 284 q 275 307 307 307 q 223 296 244 307 q 188 268 201 284 q 170 233 175 252 q 164 199 164 214 m 177 484 q 185 446 177 462 q 205 419 192 429 q 237 403 219 408 q 275 397 255 397 q 314 403 296 397 q 345 419 332 408 q 366 446 358 429 q 374 484 374 462 q 366 522 374 505 q 345 549 358 538 q 314 566 332 560 q 275 571 296 571 q 237 566 255 571 q 205 549 219 560 q 185 522 192 538 q 177 484 177 505 z "},"9":{"ha":551,"x_min":30,"x_max":525,"o":"m 390 290 q 359 264 375 276 q 326 245 343 253 q 288 234 308 238 q 244 230 268 230 q 152 247 193 230 q 85 292 112 263 q 44 358 58 320 q 30 439 30 396 q 48 541 30 497 q 99 614 67 585 q 175 658 132 643 q 270 673 219 673 q 357 661 319 673 q 423 627 395 648 q 471 576 452 605 q 502 513 490 547 q 519 442 514 479 q 525 368 525 405 q 505 191 525 263 q 450 73 486 118 q 362 9 413 28 q 245 -11 310 -11 q 170 0 204 -11 q 112 28 136 11 q 74 67 87 46 q 61 111 61 89 q 65 135 61 123 q 78 154 70 146 q 96 168 85 163 q 119 172 107 172 q 145 166 134 172 q 165 151 156 160 q 183 132 175 142 q 202 112 192 121 q 226 97 213 103 q 258 91 239 91 q 319 107 294 91 q 360 150 344 123 q 382 208 375 176 q 390 273 390 241 l 390 290 m 381 448 q 374 497 381 475 q 352 534 366 518 q 318 557 338 549 q 273 565 298 565 q 228 557 248 565 q 194 534 208 549 q 173 497 180 518 q 165 448 165 475 q 173 396 165 418 q 196 360 182 374 q 230 339 211 346 q 273 332 250 332 q 315 339 295 332 q 349 362 335 347 q 373 398 364 377 q 381 448 381 420 z "}," ":{"ha":236,"x_min":0,"x_max":0,"o":""},"":{"ha":904,"x_min":25,"x_max":851,"o":"m 542 194 q 548 157 542 173 q 567 129 555 140 q 594 113 579 118 q 626 107 610 107 q 657 112 643 107 q 683 128 672 117 q 702 155 695 138 q 708 194 708 171 l 708 508 q 714 535 708 523 q 729 557 720 548 q 752 571 739 566 q 780 576 765 576 q 808 571 794 576 q 830 557 821 566 q 846 535 840 548 q 851 508 851 523 l 851 186 q 843 124 851 152 q 819 73 834 95 q 782 34 803 51 q 736 7 761 18 q 683 -9 711 -3 q 626 -14 655 -14 q 568 -8 597 -14 q 515 9 540 -3 q 468 37 490 20 q 431 76 447 54 q 407 126 416 98 q 399 186 399 153 l 399 350 q 393 388 399 369 q 374 423 387 408 q 339 448 361 438 q 285 458 317 458 q 243 454 262 459 q 210 441 224 449 q 186 424 196 433 q 171 404 176 414 q 198 362 189 387 q 208 306 208 337 l 208 110 l 222 110 q 242 105 233 110 q 259 94 252 101 q 270 76 266 86 q 273 55 273 66 q 270 34 273 44 q 259 16 266 24 q 242 4 252 9 q 222 0 233 0 l 118 0 q 98 4 107 0 q 81 16 88 9 q 71 34 74 24 q 67 55 67 44 l 67 307 q 63 332 67 319 q 49 358 59 345 q 34 377 40 369 q 27 393 28 386 q 27 409 25 400 q 34 429 29 417 q 68 487 47 459 q 119 536 89 514 q 191 569 150 557 q 285 582 232 582 q 373 573 334 582 q 439 547 411 563 q 487 507 468 530 q 519 458 507 485 q 536 401 531 431 q 542 340 542 371 l 542 194 z "}," ":{"ha":168,"x_min":0,"x_max":0,"o":""},"ก":{"ha":611,"x_min":19,"x_max":558,"o":"m 415 350 q 409 389 415 370 q 388 424 403 409 q 349 449 373 440 q 289 460 325 459 q 240 455 261 460 q 204 441 219 450 q 180 422 189 433 q 167 403 170 412 q 194 362 184 387 q 203 306 203 337 l 203 63 q 197 37 203 49 q 182 15 192 24 q 159 2 172 6 q 132 -3 146 -3 q 104 2 117 -3 q 82 15 92 6 q 67 37 72 24 q 61 63 61 49 l 61 307 q 57 332 61 319 q 43 358 54 345 q 28 377 34 369 q 21 393 23 386 q 21 409 19 400 q 28 429 23 417 q 63 487 41 459 q 117 536 85 514 q 192 569 149 557 q 289 582 234 582 q 380 573 340 582 q 450 547 420 563 q 501 507 480 530 q 534 458 522 485 q 553 401 547 431 q 558 340 558 371 l 558 65 q 553 37 558 50 q 537 16 547 25 q 515 2 528 7 q 487 -3 502 -3 q 459 2 472 -3 q 436 16 446 7 q 421 37 427 25 q 415 65 415 50 l 415 350 z "},"ข":{"ha":521,"x_min":7,"x_max":493,"o":"m 283 226 l 350 522 q 361 547 353 536 q 381 565 369 558 q 406 575 392 572 q 434 575 420 577 q 461 565 449 573 q 480 547 473 558 q 491 522 488 536 q 490 494 493 509 l 385 96 q 371 55 379 74 q 349 23 362 36 q 320 1 336 9 q 281 -7 303 -7 q 244 1 261 -7 q 215 23 228 9 q 193 56 202 37 q 179 96 184 74 l 83 455 l 64 455 q 42 460 52 455 q 23 472 31 464 q 11 490 16 480 q 7 512 7 500 q 11 535 7 524 q 23 553 16 545 q 42 565 31 561 q 64 569 52 569 l 161 569 q 182 565 173 569 q 198 553 191 561 q 210 535 205 545 q 218 512 215 525 l 283 226 z "},"ฃ":{"ha":553,"x_min":16,"x_max":502,"o":"m 190 532 q 200 550 194 542 q 214 564 206 558 q 232 573 222 570 q 253 577 242 577 q 279 572 267 577 q 300 557 291 566 q 315 536 309 548 q 320 510 320 524 q 314 445 318 472 q 301 396 309 417 q 279 355 292 374 q 247 318 266 337 q 229 292 236 307 q 219 263 222 278 q 214 232 215 248 q 213 201 213 216 q 218 163 213 180 q 233 136 223 147 q 257 119 243 124 q 288 113 271 113 q 316 117 303 113 q 339 131 330 121 q 354 156 349 141 q 360 194 360 172 l 360 508 q 365 535 360 523 q 381 557 371 548 q 403 571 390 566 q 431 576 416 576 q 458 571 445 576 q 481 557 471 566 q 496 535 490 548 q 502 508 502 523 l 502 185 q 484 96 502 133 q 437 34 467 58 q 369 -2 408 9 q 288 -14 330 -14 q 205 -1 244 -14 q 135 36 165 12 q 87 99 105 61 q 70 185 70 136 q 71 247 70 219 q 79 297 72 274 q 100 341 85 321 q 142 382 115 361 q 155 392 149 387 q 167 402 161 397 q 180 413 174 407 q 173 410 178 412 q 164 409 169 409 q 156 407 160 408 q 150 407 152 407 q 119 410 137 407 q 82 423 100 413 q 46 451 63 433 q 20 498 30 469 q 17 523 16 511 q 24 545 18 535 q 39 563 30 555 q 62 574 49 571 q 86 576 74 578 q 109 569 98 574 q 127 554 119 563 q 138 532 135 544 q 148 516 141 522 q 164 510 155 510 q 180 516 174 510 q 190 532 186 522 z "},"ค":{"ha":631,"x_min":53,"x_max":578,"o":"m 316 231 q 260 212 283 225 q 222 179 236 198 q 200 133 207 159 q 193 76 193 107 l 193 63 q 187 37 193 49 q 172 15 182 24 q 150 2 163 6 q 123 -3 137 -3 q 95 2 108 -3 q 73 15 83 6 q 58 37 64 24 q 53 63 53 49 l 53 336 q 58 398 53 367 q 76 455 64 428 q 108 506 88 483 q 158 546 128 529 q 226 572 187 563 q 317 582 266 582 q 406 572 367 582 q 475 546 446 563 q 523 506 504 529 q 555 455 543 483 q 573 398 567 428 q 578 336 578 367 l 578 63 q 572 37 578 49 q 557 15 567 24 q 534 2 547 6 q 507 -3 522 -3 q 479 2 492 -3 q 457 15 467 6 q 442 37 447 24 q 436 63 436 49 l 436 347 q 429 387 436 367 q 409 423 423 407 q 372 450 394 439 q 317 460 349 460 q 261 450 284 460 q 223 423 238 439 q 200 387 208 407 q 193 347 193 367 l 193 294 q 236 328 213 314 q 287 349 259 341 q 311 350 299 352 q 333 342 323 348 q 350 327 343 336 q 360 305 357 317 q 361 280 363 292 q 353 258 359 268 q 338 241 347 248 q 316 231 328 234 z "},"ฅ":{"ha":636,"x_min":53,"x_max":583,"o":"m 583 63 q 578 37 583 49 q 562 15 572 24 q 540 2 553 6 q 513 -3 527 -3 q 485 2 498 -3 q 463 15 472 6 q 447 37 453 24 q 442 63 442 49 l 442 368 q 441 389 442 378 q 437 411 440 400 q 431 432 435 422 q 421 449 427 441 l 347 401 q 288 401 318 381 l 213 447 q 204 429 208 439 q 199 408 201 419 q 195 387 196 397 q 194 368 194 377 l 194 288 q 237 321 214 308 q 288 342 260 335 q 312 343 300 346 q 334 335 324 341 q 351 320 344 329 q 361 298 358 310 q 363 273 365 286 q 355 251 361 261 q 339 234 349 241 q 317 224 329 227 q 261 205 284 218 q 223 172 238 192 q 201 126 208 152 q 194 70 194 101 l 194 63 q 189 37 194 49 q 173 15 183 24 q 151 2 164 6 q 123 -3 138 -3 q 96 2 109 -3 q 74 15 83 6 q 58 37 64 24 q 53 63 53 49 l 53 349 q 58 416 53 383 q 78 478 64 449 q 117 530 93 507 q 179 570 142 554 q 194 575 185 572 q 213 578 203 577 q 235 577 224 579 q 256 568 246 575 l 318 527 l 382 568 q 403 577 393 575 q 422 578 413 578 q 439 575 431 577 q 452 570 447 572 q 515 531 489 555 q 555 479 540 508 q 577 417 570 450 q 583 349 583 384 l 583 63 z "},"ฆ":{"ha":615,"x_min":30,"x_max":563,"o":"m 563 204 q 553 116 563 156 q 519 48 543 77 q 455 3 495 19 q 354 -13 414 -13 q 310 -7 331 -13 q 270 9 289 -1 q 236 32 252 19 q 208 60 220 45 q 203 34 208 46 q 188 14 197 22 q 166 0 179 5 q 139 -5 154 -5 q 113 0 125 -5 q 91 14 100 5 q 76 34 82 22 q 71 60 71 46 l 71 207 q 71 247 71 229 q 73 278 71 264 q 80 304 75 292 q 92 327 84 316 q 112 350 100 338 q 143 374 125 361 q 174 397 162 387 q 193 415 186 406 q 179 409 188 412 q 163 407 170 407 q 132 410 151 407 q 95 423 114 413 q 60 451 76 433 q 34 498 43 469 q 31 523 30 511 q 37 545 32 535 q 53 563 43 555 q 75 574 62 571 q 100 576 87 578 q 122 569 112 574 q 140 554 133 563 q 152 532 148 544 q 161 516 155 522 q 177 510 168 510 q 194 516 187 510 q 204 532 200 522 q 214 550 207 542 q 230 564 221 558 q 250 573 239 570 q 271 577 260 577 q 298 572 285 577 q 320 558 310 567 q 335 537 329 550 q 340 510 340 525 l 340 457 q 333 411 340 432 q 314 372 326 390 q 287 339 302 354 q 256 310 272 323 q 235 292 243 300 q 223 275 228 284 q 216 254 218 266 q 214 225 214 242 q 223 183 214 203 q 248 147 232 163 q 288 122 264 131 q 340 113 311 113 q 373 118 358 113 q 398 135 387 124 q 414 160 408 145 q 419 193 419 175 l 419 508 q 425 535 419 522 q 440 556 431 547 q 463 571 450 566 q 491 576 476 576 q 519 571 506 576 q 542 556 532 566 q 557 535 551 547 q 563 508 563 522 l 563 204 z "},"ง":{"ha":463,"x_min":30,"x_max":410,"o":"m 410 136 q 397 68 410 96 q 364 22 385 40 q 314 -5 343 3 q 253 -14 286 -14 q 195 -6 219 -14 q 152 16 170 2 q 121 52 134 31 q 99 99 108 73 l 35 274 q 31 300 30 287 q 38 325 32 313 q 54 345 44 336 q 78 358 64 354 q 104 363 91 363 q 130 358 118 363 q 151 344 141 353 q 165 321 160 335 l 236 121 q 243 109 239 112 q 254 105 248 105 q 264 110 260 105 q 268 119 268 114 l 268 454 l 239 454 q 217 459 227 454 q 200 471 207 463 q 189 489 193 479 q 185 512 185 500 q 189 534 185 524 q 200 552 193 545 q 217 565 207 560 q 239 569 227 569 l 355 569 q 377 565 367 569 q 394 552 387 560 q 406 534 401 545 q 410 512 410 524 l 410 136 z "},"จ":{"ha":561,"x_min":49,"x_max":514,"o":"m 307 162 q 320 197 313 178 q 333 235 327 215 q 346 274 340 254 q 357 310 353 293 q 365 341 362 327 q 368 364 368 355 q 345 434 368 409 q 274 460 321 460 q 221 445 242 460 q 186 401 199 430 q 168 379 180 387 q 143 367 157 370 q 115 365 130 363 q 89 372 101 366 q 66 390 75 379 q 53 412 57 400 q 50 438 49 425 q 59 465 52 452 q 98 513 75 492 q 149 550 120 535 q 211 574 177 566 q 285 582 245 582 q 339 578 312 582 q 392 564 366 573 q 439 538 417 554 q 478 500 462 523 q 505 446 495 477 q 514 375 514 415 q 506 313 514 347 q 484 239 498 278 q 450 154 469 199 q 409 60 431 109 q 368 11 396 29 q 305 -7 341 -7 q 271 -2 287 -7 q 241 11 254 2 q 217 32 227 19 q 201 61 207 44 l 147 210 l 126 210 q 104 214 114 210 q 86 227 94 219 q 75 245 79 235 q 71 268 71 256 q 75 291 71 280 q 86 309 79 301 q 104 322 94 317 q 126 327 114 327 l 217 327 q 238 322 229 327 q 252 309 246 317 q 263 291 259 301 q 272 268 268 280 l 307 162 z "},"ฉ":{"ha":611,"x_min":52,"x_max":558,"o":"m 558 58 q 553 32 558 44 q 538 11 548 20 q 516 -2 529 3 q 490 -7 504 -7 q 463 -2 475 -7 q 441 12 450 3 q 426 33 432 21 q 421 60 421 45 q 386 31 406 44 q 345 8 367 18 q 300 -7 323 -2 q 253 -13 276 -13 q 155 3 194 -13 q 93 48 116 19 q 61 116 70 77 q 52 204 52 156 l 52 254 q 57 281 52 269 q 72 303 63 294 q 95 317 82 312 q 122 322 107 322 q 150 317 137 322 q 172 303 162 312 q 187 281 182 294 q 193 254 193 269 l 193 194 q 199 161 193 176 q 217 136 205 146 q 244 120 228 125 q 280 114 260 114 q 340 124 315 114 q 382 154 366 135 q 407 198 399 172 q 415 253 415 223 l 415 350 q 410 389 415 369 q 391 424 404 408 q 355 449 377 439 q 299 458 333 458 q 258 455 275 458 q 227 445 240 451 q 204 430 213 438 q 189 411 195 421 q 171 391 182 398 q 147 380 159 383 q 120 379 134 377 q 95 388 107 381 q 75 407 82 396 q 64 431 67 418 q 62 457 60 444 q 72 483 64 471 q 108 523 87 505 q 157 555 129 542 q 221 575 185 568 q 299 582 256 582 q 390 573 351 582 q 459 547 430 563 q 507 507 488 530 q 537 457 526 485 q 554 400 549 430 q 558 339 558 370 l 558 58 z "},"ช":{"ha":547,"x_min":14,"x_max":506,"o":"m 353 243 q 345 288 353 268 q 323 322 337 308 q 289 344 309 336 q 246 354 270 352 q 231 333 239 344 q 214 308 223 322 q 202 289 206 298 q 196 273 198 281 q 194 256 194 264 q 193 236 193 247 l 193 193 q 200 155 193 172 q 218 126 206 138 q 244 108 229 114 q 276 101 259 101 q 306 106 292 101 q 330 121 320 111 q 347 148 340 132 q 353 186 353 164 l 353 243 m 53 562 q 81 570 67 567 q 106 575 95 573 q 127 577 118 576 q 143 578 137 578 q 208 569 179 578 q 255 542 236 560 q 282 498 274 525 q 285 435 290 471 q 335 462 317 441 q 360 517 354 482 q 371 544 363 532 q 390 564 379 556 q 415 575 401 572 q 444 576 429 578 q 471 566 459 573 q 492 548 484 559 q 503 524 499 538 q 503 494 506 510 q 494 462 499 477 q 480 433 488 447 q 460 407 471 419 q 433 386 449 395 q 466 355 454 374 q 484 317 478 337 q 493 277 491 296 q 494 243 494 258 l 494 185 q 486 123 494 151 q 463 73 477 95 q 427 34 448 51 q 382 7 407 18 q 331 -9 358 -3 q 276 -14 304 -14 q 220 -8 248 -14 q 167 8 192 -3 q 121 36 142 20 q 84 75 100 53 q 60 125 69 97 q 52 185 52 152 l 52 229 q 53 268 52 251 q 58 298 55 284 q 66 321 61 311 q 78 341 71 332 q 93 362 84 351 q 113 385 102 372 q 137 416 127 402 q 147 442 146 429 q 143 457 148 451 q 128 463 137 463 q 87 456 112 463 q 65 454 76 453 q 44 460 54 456 q 28 474 35 465 q 18 493 21 482 q 15 515 14 504 q 21 535 16 526 q 34 552 26 545 q 53 562 42 558 z "},"ซ":{"ha":561,"x_min":16,"x_max":522,"o":"m 371 242 q 364 285 371 264 q 345 321 357 306 q 316 347 333 337 q 278 358 298 357 q 264 338 272 348 q 247 318 256 329 q 230 292 237 306 q 220 262 223 278 q 214 232 216 247 q 213 201 213 216 q 219 163 213 180 q 237 136 225 147 q 262 119 248 124 q 293 113 277 113 q 323 117 309 113 q 348 131 337 121 q 365 156 359 141 q 371 194 371 172 l 371 242 m 319 510 q 316 471 318 489 q 310 439 313 454 q 357 464 340 445 q 380 519 374 483 q 390 545 382 533 q 409 564 398 556 q 433 575 420 572 q 461 576 447 578 q 488 567 476 573 q 508 549 500 560 q 519 525 516 539 q 519 495 522 512 q 511 464 516 478 q 497 436 506 449 q 478 411 489 422 q 450 389 466 399 q 484 358 471 377 q 503 318 497 339 q 512 277 510 297 q 514 242 514 257 l 514 185 q 506 122 514 151 q 482 72 497 94 q 446 34 467 50 q 400 7 425 18 q 348 -9 376 -4 q 293 -14 321 -14 q 210 -1 250 -14 q 139 36 170 12 q 88 99 107 61 q 70 185 70 136 q 71 247 70 219 q 79 297 72 274 q 100 341 85 321 q 142 382 115 361 q 156 393 149 387 q 169 404 162 398 q 179 415 175 410 q 165 409 174 412 q 150 407 157 407 q 119 410 137 407 q 82 423 100 413 q 46 451 63 433 q 20 498 30 469 q 17 523 16 511 q 24 545 18 535 q 39 563 30 555 q 62 574 49 571 q 86 576 74 578 q 109 569 98 574 q 127 554 119 563 q 138 532 135 544 q 148 516 141 522 q 164 510 155 510 q 180 516 174 510 q 190 532 186 522 q 200 550 194 542 q 214 564 206 558 q 233 573 223 570 q 254 577 243 577 q 280 572 268 577 q 301 559 292 567 q 316 538 311 550 q 319 510 320 525 z "},"ฌ":{"ha":904,"x_min":25,"x_max":851,"o":"m 542 253 q 549 198 542 223 q 569 154 556 172 q 603 124 583 135 q 649 114 623 114 q 673 118 662 114 q 692 132 684 122 q 704 156 700 141 q 708 194 708 172 l 708 505 q 714 532 708 519 q 729 553 720 544 q 752 568 739 563 q 780 573 765 573 q 808 568 794 573 q 830 553 821 563 q 846 532 840 544 q 851 505 851 519 l 851 204 q 843 112 851 153 q 815 44 835 72 q 761 2 795 17 q 674 -13 726 -13 q 632 -6 653 -13 q 594 10 612 0 q 561 33 576 20 q 536 58 546 45 q 531 32 536 44 q 516 12 525 20 q 494 -2 507 3 q 467 -7 481 -7 q 440 -2 453 -7 q 419 12 428 3 q 404 33 410 21 q 399 59 399 45 l 399 349 q 393 387 399 368 q 374 421 387 406 q 339 447 361 437 q 285 457 317 456 q 241 453 260 457 q 208 440 221 448 q 185 422 194 432 q 172 401 176 412 q 208 304 208 368 l 208 110 l 222 110 q 242 105 233 110 q 259 94 252 101 q 270 76 266 86 q 273 55 273 66 q 270 34 273 44 q 259 16 266 24 q 242 4 252 9 q 222 0 233 0 l 118 0 q 98 4 107 0 q 81 16 88 9 q 71 34 74 24 q 67 55 67 44 l 67 306 q 63 331 67 318 q 49 358 59 345 q 34 377 40 369 q 27 393 28 386 q 27 409 25 400 q 34 429 29 417 q 68 487 47 459 q 119 536 89 514 q 191 569 150 557 q 285 582 232 582 q 373 573 334 582 q 439 547 411 563 q 487 507 468 530 q 519 458 507 485 q 536 401 531 431 q 542 340 542 371 l 542 253 z "},"ฎ":{"ha":635,"x_min":20,"x_max":582,"o":"m 582 -119 q 575 -152 582 -136 q 557 -179 568 -167 q 530 -197 545 -190 q 496 -204 514 -204 q 462 -196 478 -204 q 434 -176 446 -189 q 416 -160 426 -168 q 393 -147 406 -153 q 364 -138 380 -141 q 328 -135 348 -135 q 288 -139 306 -135 q 253 -151 269 -143 q 221 -171 237 -159 q 190 -196 206 -182 q 173 -205 182 -202 q 153 -207 163 -208 q 134 -202 143 -206 q 119 -189 125 -197 q 109 -171 112 -181 q 107 -152 106 -161 q 113 -133 109 -142 q 125 -117 118 -124 q 168 -80 144 -97 q 217 -51 191 -63 q 270 -32 242 -39 q 328 -25 298 -25 q 392 -33 365 -25 q 439 -50 419 -41 l 439 350 q 433 389 439 370 q 411 424 426 409 q 373 449 397 440 q 313 460 349 459 q 264 455 285 460 q 228 441 243 450 q 203 422 212 433 q 190 403 194 412 q 206 386 199 395 q 217 366 212 377 q 223 340 221 355 q 225 306 225 325 l 225 55 q 221 34 225 44 q 211 16 218 24 q 194 4 204 9 q 174 0 185 0 l 72 0 q 51 4 61 0 q 35 16 42 9 q 24 34 28 24 q 20 55 20 44 q 24 76 20 66 q 35 94 28 86 q 51 105 42 101 q 72 110 61 110 l 85 110 l 85 307 q 81 332 85 319 q 67 358 77 345 q 52 377 58 369 q 45 393 46 386 q 45 409 43 400 q 52 429 47 417 q 87 487 65 459 q 141 536 109 514 q 215 569 173 557 q 313 582 258 582 q 404 573 364 582 q 474 547 444 563 q 524 507 504 530 q 558 458 545 485 q 576 401 571 431 q 582 340 582 371 l 582 -119 z "},"ฏ":{"ha":635,"x_min":20,"x_max":582,"o":"m 582 -128 q 575 -160 582 -145 q 557 -185 569 -175 q 531 -202 546 -196 q 498 -208 515 -208 q 464 -202 480 -208 q 440 -180 448 -195 q 431 -164 436 -172 q 421 -151 427 -157 q 410 -142 416 -145 q 397 -139 405 -139 q 376 -147 385 -139 q 363 -168 368 -156 q 339 -197 355 -185 q 303 -208 323 -208 q 283 -205 293 -208 q 266 -196 274 -202 q 252 -183 258 -191 q 243 -166 247 -176 q 230 -146 238 -154 q 210 -138 222 -138 q 186 -147 196 -138 q 171 -169 176 -156 q 155 -191 165 -182 q 135 -205 146 -200 q 111 -209 123 -209 q 86 -203 98 -209 q 66 -189 74 -198 q 53 -169 57 -180 q 50 -145 49 -158 q 55 -120 50 -132 q 79 -80 65 -97 q 112 -53 94 -64 q 151 -37 130 -42 q 194 -32 172 -32 q 225 -36 211 -32 q 252 -46 239 -39 q 276 -61 265 -52 q 294 -79 286 -69 q 311 -62 302 -70 q 332 -47 321 -54 q 356 -38 344 -41 q 382 -35 369 -35 q 415 -41 401 -35 q 439 -56 429 -47 l 439 350 q 433 389 439 370 q 411 424 426 409 q 373 449 397 440 q 313 460 349 459 q 264 455 285 460 q 228 441 243 450 q 203 422 212 433 q 190 403 194 412 q 206 386 199 395 q 217 366 212 377 q 223 340 221 355 q 225 306 225 325 l 225 55 q 221 34 225 44 q 211 16 218 24 q 194 4 204 9 q 174 0 185 0 l 72 0 q 51 4 61 0 q 35 16 42 9 q 24 34 28 24 q 20 55 20 44 q 24 76 20 66 q 35 94 28 86 q 51 105 42 101 q 72 110 61 110 l 85 110 l 85 307 q 81 332 85 319 q 67 358 77 345 q 52 377 58 369 q 45 393 46 386 q 45 409 43 400 q 52 429 47 417 q 87 487 65 459 q 141 536 109 514 q 215 569 173 557 q 313 582 258 582 q 404 573 364 582 q 474 547 444 563 q 524 507 504 530 q 558 458 545 485 q 576 401 571 431 q 582 340 582 371 l 582 -128 z "},"ฐ":{"ha":558,"x_min":49,"x_max":537,"o":"m 126 210 q 104 214 114 210 q 86 227 94 219 q 75 245 79 235 q 71 268 71 256 q 75 291 71 280 q 86 309 79 301 q 104 322 94 317 q 126 327 114 327 l 217 327 q 238 322 229 327 q 252 309 246 317 q 263 291 259 301 q 272 268 268 280 l 307 162 q 320 197 313 178 q 333 235 327 215 q 346 274 340 254 q 357 310 353 293 q 365 341 362 327 q 368 364 368 355 q 345 434 368 409 q 274 460 321 460 q 221 445 242 460 q 186 401 199 430 q 168 379 180 387 q 143 367 157 370 q 115 365 130 363 q 89 372 101 366 q 66 390 75 379 q 53 412 57 400 q 50 438 49 425 q 59 465 52 452 q 98 513 75 492 q 149 550 120 535 q 211 574 177 566 q 285 582 245 582 q 329 579 307 582 q 374 569 352 576 q 389 581 382 573 q 401 598 396 588 q 419 620 408 612 q 444 633 430 629 q 472 634 457 636 q 499 625 486 633 q 521 607 512 618 q 533 582 529 595 q 535 554 537 569 q 527 527 534 540 q 508 506 519 515 q 485 489 498 496 q 506 439 498 467 q 514 375 514 411 q 506 313 514 347 q 484 240 498 279 q 451 157 470 201 q 411 63 433 112 q 393 35 404 47 q 369 13 383 22 q 339 -2 355 3 q 305 -7 323 -7 q 270 -1 287 -7 q 240 14 254 4 q 215 38 225 24 q 198 67 204 51 l 147 210 l 126 210 m 210 -195 q 198 -168 207 -178 q 178 -158 190 -158 q 158 -167 166 -158 q 145 -190 149 -176 q 137 -207 142 -199 q 123 -219 131 -214 q 106 -224 116 -223 q 88 -223 97 -226 q 71 -215 78 -221 q 60 -202 64 -210 q 54 -185 55 -194 q 55 -166 53 -176 q 75 -115 61 -134 q 105 -85 89 -95 q 139 -71 121 -74 q 171 -68 156 -68 q 210 -78 192 -69 q 239 -101 229 -87 q 249 -89 243 -95 q 262 -78 255 -83 q 277 -71 269 -74 q 294 -68 286 -68 q 325 -77 311 -68 q 346 -99 338 -86 q 351 -75 346 -86 q 364 -55 355 -64 q 383 -42 372 -47 q 407 -37 394 -37 q 431 -42 419 -37 q 450 -53 442 -46 q 463 -72 458 -61 q 468 -95 468 -82 l 468 -167 q 463 -190 468 -180 q 451 -208 459 -201 q 432 -220 443 -216 q 409 -224 421 -224 q 390 -221 399 -224 q 373 -213 380 -218 q 359 -200 365 -208 q 351 -184 354 -193 q 338 -165 346 -172 q 319 -158 331 -158 q 297 -169 306 -158 q 284 -196 288 -179 q 271 -216 281 -208 q 247 -224 261 -224 q 223 -216 234 -224 q 210 -195 213 -208 z "},"ฑ":{"ha":615,"x_min":27,"x_max":563,"o":"m 563 63 q 557 36 563 48 q 541 14 551 23 q 519 0 532 5 q 491 -5 506 -5 q 463 0 476 -5 q 441 14 450 5 q 425 36 431 23 q 419 63 419 48 l 419 417 q 419 429 419 423 q 419 441 419 436 q 416 449 418 446 q 410 453 414 453 q 393 445 404 453 q 366 425 381 437 q 333 394 351 412 q 296 357 315 377 q 257 315 273 333 q 231 279 241 296 q 217 242 221 261 q 213 200 213 224 l 213 64 q 207 37 213 50 q 192 16 201 25 q 169 2 182 7 q 142 -3 156 -3 q 114 2 127 -3 q 92 16 101 7 q 76 37 82 25 q 71 64 71 50 l 71 190 q 72 228 71 212 q 74 258 72 244 q 81 282 77 271 q 92 305 85 293 q 110 329 99 316 q 135 358 120 342 q 166 392 153 378 q 188 415 179 406 q 172 410 181 412 q 158 408 163 408 q 127 411 145 408 q 91 425 110 415 q 57 452 73 434 q 31 500 41 470 q 28 524 27 512 q 35 546 30 536 q 50 565 41 557 q 73 576 60 572 q 97 577 85 579 q 120 570 110 576 q 138 555 130 565 q 150 533 146 546 q 159 517 152 523 q 175 511 166 511 q 191 517 185 511 q 201 533 198 523 q 212 552 205 543 q 228 566 219 560 q 247 575 237 572 q 269 578 258 578 q 310 566 292 578 q 335 531 329 553 q 408 572 377 560 q 461 583 439 583 q 513 574 493 583 q 544 547 533 564 q 559 504 555 529 q 563 449 563 479 l 563 63 z "},"ฒ":{"ha":963,"x_min":53,"x_max":910,"o":"m 600 256 q 607 200 600 226 q 628 156 614 175 q 662 128 642 138 q 707 117 682 117 q 732 122 721 117 q 751 135 743 126 q 763 160 759 144 q 767 198 767 175 l 767 502 q 772 529 767 516 q 788 552 778 542 q 810 567 797 562 q 838 573 823 573 q 866 567 853 573 q 889 552 879 562 q 904 529 899 542 q 910 502 910 516 l 910 208 q 902 116 910 156 q 873 48 893 75 q 817 5 852 20 q 726 -9 781 -9 q 688 -3 707 -9 q 652 12 669 2 q 620 35 634 22 q 594 62 605 47 l 594 58 q 589 32 594 43 q 574 11 584 20 q 553 -2 565 3 q 526 -7 541 -7 q 500 -2 512 -7 q 478 11 487 3 q 464 32 469 20 q 458 58 458 44 l 458 357 q 449 405 458 383 q 418 444 439 427 l 358 404 q 329 395 345 396 q 297 404 314 394 l 236 445 q 204 406 214 428 q 194 357 194 383 l 194 177 l 270 257 l 264 257 q 247 260 255 257 q 233 270 239 264 q 224 284 227 276 q 220 301 220 292 q 224 318 220 310 q 233 332 227 326 q 247 341 239 338 q 264 345 255 345 l 379 345 q 399 341 390 345 q 415 330 408 337 q 426 315 422 323 q 430 295 430 306 q 427 276 430 285 q 418 260 424 267 l 193 18 q 166 -1 182 6 q 134 -7 151 -7 q 102 -2 117 -7 q 76 13 87 3 q 59 36 65 22 q 53 66 53 50 l 53 349 q 60 416 53 383 q 84 478 67 449 q 126 530 100 507 q 189 570 152 554 q 204 575 195 572 q 223 578 213 577 q 245 577 234 579 q 266 568 256 575 l 328 527 l 392 568 q 413 577 402 575 q 432 578 423 578 q 449 575 441 577 q 461 570 456 572 q 526 531 499 555 q 568 479 552 508 q 592 417 585 450 q 600 349 600 384 l 600 256 z "},"ณ":{"ha":904,"x_min":25,"x_max":851,"o":"m 67 307 q 63 332 67 319 q 49 358 59 345 q 34 377 40 369 q 27 393 28 386 q 27 409 25 400 q 34 429 29 417 q 68 487 47 459 q 119 536 89 514 q 191 569 150 557 q 285 582 232 582 q 373 573 334 582 q 439 547 411 563 q 487 507 468 530 q 519 458 507 485 q 536 401 531 431 q 542 340 542 371 l 542 198 q 546 160 542 175 q 557 135 550 144 q 576 122 565 126 q 602 117 587 117 q 647 128 627 117 q 680 157 667 138 q 701 201 694 176 q 708 256 708 227 l 708 506 q 714 533 708 520 q 729 555 720 546 q 752 569 739 564 q 780 574 765 574 q 808 569 794 574 q 830 555 821 564 q 846 533 840 546 q 851 506 851 520 l 851 58 q 846 32 851 44 q 831 11 841 20 q 810 -2 822 3 q 783 -7 797 -7 q 756 -2 769 -7 q 734 11 744 3 q 719 32 725 20 q 714 58 714 43 l 714 62 q 689 34 703 47 q 658 12 674 21 q 623 -4 642 2 q 585 -9 604 -9 q 495 5 530 -9 q 437 48 459 20 q 407 116 416 75 q 399 208 399 156 l 399 350 q 393 388 399 369 q 374 423 387 408 q 339 448 361 438 q 285 458 317 458 q 243 454 262 459 q 210 441 224 449 q 186 424 196 433 q 171 404 176 414 q 198 362 189 387 q 208 306 208 337 l 208 110 l 222 110 q 242 105 233 110 q 259 94 252 101 q 270 76 266 86 q 273 55 273 66 q 270 34 273 44 q 259 16 266 24 q 242 4 252 9 q 222 0 233 0 l 118 0 q 98 4 107 0 q 81 16 88 9 q 71 34 74 24 q 67 55 67 44 l 67 307 z "},"ด":{"ha":653,"x_min":53,"x_max":600,"o":"m 458 349 q 451 388 458 368 q 429 424 444 408 q 388 450 413 440 q 328 460 363 460 q 267 450 292 460 q 225 424 241 440 q 202 388 209 408 q 194 349 194 368 l 194 179 l 274 257 l 264 257 q 247 260 255 257 q 233 270 239 264 q 224 284 227 276 q 220 301 220 292 q 224 318 220 310 q 233 332 227 326 q 247 341 239 338 q 264 345 255 345 l 382 345 q 401 341 392 345 q 418 330 411 337 q 428 315 425 323 q 432 295 432 306 q 430 276 432 285 q 419 258 427 267 l 189 17 q 163 -1 178 6 q 132 -7 149 -7 q 101 -2 115 -7 q 76 12 86 3 q 59 35 65 22 q 53 64 53 48 l 53 337 q 59 399 53 369 q 78 456 65 429 q 113 507 92 484 q 164 546 134 530 q 235 572 195 563 q 328 582 276 582 q 419 572 379 582 q 489 546 459 563 q 541 507 519 530 q 575 456 562 484 q 594 399 588 429 q 600 337 600 369 l 600 63 q 594 36 600 48 q 579 15 589 24 q 556 1 569 6 q 529 -4 544 -4 q 502 1 514 -4 q 479 15 489 6 q 464 36 470 24 q 458 63 458 48 l 458 349 z "},"ต":{"ha":653,"x_min":53,"x_max":600,"o":"m 600 63 q 594 36 600 48 q 579 15 589 24 q 556 1 569 6 q 529 -4 544 -4 q 502 1 514 -4 q 479 15 489 6 q 464 36 470 24 q 458 63 458 48 l 458 360 q 456 384 458 372 q 449 407 454 396 q 436 428 444 418 q 418 447 429 439 l 358 408 q 329 399 345 400 q 297 408 314 398 l 236 449 q 217 430 225 440 q 204 408 209 419 q 197 384 199 396 q 194 360 194 372 l 194 179 l 274 257 l 264 257 q 247 260 255 257 q 233 270 239 264 q 224 284 227 276 q 220 301 220 292 q 224 318 220 310 q 233 332 227 326 q 247 341 239 338 q 264 345 255 345 l 382 345 q 401 341 392 345 q 418 330 411 337 q 428 315 425 323 q 432 295 432 306 q 430 276 432 285 q 419 258 427 267 l 189 17 q 163 -1 178 6 q 132 -7 149 -7 q 101 -2 115 -7 q 76 12 86 3 q 59 35 65 22 q 53 64 53 48 l 53 349 q 60 416 53 383 q 84 478 67 449 q 126 530 100 507 q 189 570 152 554 q 204 575 195 572 q 223 578 213 577 q 245 577 234 579 q 266 568 256 575 l 328 527 l 392 568 q 413 577 402 575 q 432 578 423 578 q 449 575 441 577 q 461 570 456 572 q 526 531 499 555 q 568 479 552 508 q 592 417 585 450 q 600 349 600 384 l 600 63 z "},"ถ":{"ha":611,"x_min":19,"x_max":558,"o":"m 61 307 q 57 332 61 319 q 43 358 54 345 q 28 377 34 369 q 21 393 23 386 q 21 409 19 400 q 28 429 23 417 q 63 487 41 459 q 117 536 85 514 q 192 569 149 557 q 289 582 234 582 q 380 573 340 582 q 450 547 420 563 q 501 507 480 530 q 534 458 522 485 q 553 401 547 431 q 558 340 558 371 l 558 64 q 553 37 558 49 q 537 15 547 24 q 515 1 528 6 q 487 -4 502 -4 q 459 1 472 -4 q 436 15 446 6 q 421 37 427 24 q 415 64 415 49 l 415 350 q 409 389 415 370 q 388 424 403 409 q 349 449 373 440 q 289 460 325 459 q 240 455 261 460 q 204 441 219 450 q 180 422 189 433 q 167 403 170 412 q 193 362 184 387 q 201 306 201 337 l 201 110 l 215 110 q 236 105 226 110 q 252 94 245 101 q 263 76 259 86 q 267 55 267 66 q 263 34 267 44 q 252 16 259 24 q 236 4 245 9 q 215 0 226 0 l 113 0 q 92 4 101 0 q 75 16 82 9 q 65 34 68 24 q 61 55 61 44 l 61 307 z "},"ท":{"ha":611,"x_min":53,"x_max":558,"o":"m 558 61 q 553 34 558 46 q 538 12 548 21 q 516 -2 529 3 q 488 -7 503 -7 q 461 -2 474 -7 q 438 12 448 3 q 424 34 429 21 q 418 61 418 46 l 418 372 q 396 432 418 412 q 331 452 374 452 q 271 442 296 452 q 228 413 245 431 q 203 369 211 394 q 194 313 194 343 l 194 61 q 189 34 194 46 q 173 12 183 21 q 151 -2 164 3 q 123 -7 138 -7 q 96 -2 109 -7 q 74 12 83 3 q 58 34 64 21 q 53 61 53 46 l 53 515 q 58 541 53 529 q 73 561 63 553 q 94 575 82 570 q 121 579 106 579 q 147 575 135 579 q 169 561 160 570 q 183 541 178 553 q 189 515 189 529 l 189 506 q 264 560 224 541 q 347 578 304 578 q 446 564 405 578 q 511 523 486 550 q 547 458 536 496 q 558 370 558 419 l 558 61 z "},"ธ":{"ha":581,"x_min":52,"x_max":533,"o":"m 369 412 q 353 435 362 426 q 333 449 344 443 q 308 457 321 454 q 279 461 294 459 q 248 461 263 463 q 220 457 233 460 q 201 447 208 453 q 193 433 193 441 q 200 421 193 427 q 218 409 207 415 q 243 399 230 404 q 271 389 257 394 q 297 382 285 385 q 317 376 309 378 q 383 357 353 366 q 438 335 414 347 q 480 309 462 323 q 510 275 498 295 q 527 231 522 256 q 533 172 533 205 q 524 113 533 139 q 498 66 515 86 q 459 31 481 46 q 409 7 436 17 q 352 -7 382 -2 q 290 -11 321 -11 q 199 -1 242 -11 q 123 32 156 9 q 71 89 90 54 q 52 172 52 123 l 52 224 q 57 251 52 239 q 72 272 63 263 q 95 287 82 281 q 122 292 107 292 q 150 287 137 292 q 172 272 162 281 q 187 251 182 263 q 193 224 193 239 l 193 172 q 202 143 193 155 q 224 123 211 131 q 256 112 238 115 q 290 108 273 108 q 323 111 306 108 q 355 121 341 114 q 379 141 370 129 q 389 172 389 153 q 388 193 389 184 q 382 211 386 202 q 369 226 377 219 q 345 241 360 234 q 308 256 330 248 q 256 272 287 263 q 176 297 213 283 q 111 329 138 310 q 67 373 83 348 q 52 433 52 398 q 62 482 52 461 q 87 520 71 504 q 124 548 103 537 q 169 567 145 559 q 220 577 194 574 q 272 581 246 581 q 347 574 312 581 q 412 554 383 568 q 464 519 442 541 q 499 466 486 497 q 505 439 505 453 q 502 413 506 425 q 488 391 497 401 q 465 376 478 381 q 437 370 451 370 q 410 375 422 370 q 386 390 397 380 q 369 412 376 399 z "},"น":{"ha":611,"x_min":53,"x_max":558,"o":"m 53 508 q 58 535 53 523 q 73 557 64 548 q 96 571 83 566 q 123 576 109 576 q 151 571 138 576 q 173 557 163 566 q 188 535 182 548 q 193 508 193 523 l 193 201 q 200 165 193 181 q 217 139 206 150 q 245 123 229 128 q 281 117 261 117 q 341 127 315 117 q 383 156 366 138 q 409 200 400 175 q 417 256 417 225 l 417 508 q 423 535 417 523 q 438 557 428 548 q 460 571 448 566 q 488 576 473 576 q 515 571 503 576 q 538 557 528 566 q 553 535 547 548 q 558 508 558 523 l 558 56 q 553 30 558 42 q 539 9 548 18 q 517 -4 530 1 q 491 -9 505 -9 q 464 -4 476 -9 q 443 9 452 1 q 428 30 433 18 q 422 56 422 42 l 422 63 q 348 9 388 28 q 264 -9 308 -9 q 166 5 206 -9 q 100 46 125 19 q 64 111 75 73 q 53 199 53 150 l 53 508 z "},"บ":{"ha":611,"x_min":53,"x_max":558,"o":"m 558 233 q 554 172 558 202 q 538 114 549 141 q 508 63 527 86 q 461 23 489 40 q 395 -3 433 6 q 306 -13 356 -13 q 216 -3 255 -13 q 149 23 177 6 q 103 63 121 40 q 73 114 84 86 q 57 172 62 141 q 53 233 53 202 l 53 509 q 58 536 53 524 q 73 557 64 548 q 95 571 83 566 q 123 576 108 576 q 150 571 137 576 q 172 557 163 566 q 187 536 182 548 q 193 509 193 524 l 193 223 q 198 183 193 203 q 217 146 204 163 q 252 120 230 130 q 306 110 273 110 q 359 120 337 110 q 393 146 380 130 q 411 183 406 163 q 417 223 417 203 l 417 509 q 422 536 417 524 q 438 557 428 548 q 460 571 447 566 q 488 576 473 576 q 515 571 502 576 q 538 557 528 566 q 553 536 547 548 q 558 509 558 524 l 558 233 z "},"ป":{"ha":611,"x_min":53,"x_max":558,"o":"m 558 233 q 554 172 558 202 q 538 114 549 141 q 508 63 526 86 q 461 23 489 40 q 394 -3 433 6 q 305 -13 356 -13 q 216 -3 254 -13 q 149 23 177 6 q 102 63 121 40 q 73 114 84 86 q 57 172 62 141 q 53 233 53 202 l 53 509 q 58 536 53 524 q 73 557 63 548 q 95 571 82 566 q 122 576 108 576 q 150 571 137 576 q 172 557 162 566 q 187 536 181 548 q 193 509 193 524 l 193 223 q 198 183 193 203 q 217 146 203 163 q 251 120 230 130 q 305 110 273 110 q 358 120 337 110 q 393 146 380 130 q 411 183 406 163 q 416 223 416 203 l 416 758 q 422 785 416 773 q 437 806 428 797 q 460 820 447 815 q 487 825 473 825 q 515 820 502 825 q 537 806 528 815 q 553 785 547 797 q 558 758 558 773 l 558 233 z "},"ผ":{"ha":654,"x_min":53,"x_max":602,"o":"m 261 254 q 266 279 261 267 q 280 299 271 290 q 301 312 289 307 q 327 316 313 316 q 353 312 340 316 q 374 299 365 307 q 388 279 382 290 q 393 254 393 267 l 393 211 q 394 171 393 190 q 400 139 396 153 q 412 118 404 125 q 432 110 419 110 q 452 129 445 110 q 460 189 460 148 l 460 508 q 465 535 460 523 q 481 557 471 548 q 503 571 490 566 q 531 576 516 576 q 558 571 545 576 q 581 557 571 566 q 596 535 590 548 q 602 508 602 523 l 602 167 q 591 87 602 121 q 559 31 579 53 q 510 -2 539 9 q 446 -13 481 -13 q 378 0 408 -13 q 327 38 347 12 q 279 1 308 14 q 211 -13 250 -13 q 146 -2 175 -13 q 96 31 117 9 q 64 87 75 53 q 53 167 53 121 l 53 498 q 58 526 53 513 q 74 548 64 539 q 96 564 83 558 q 124 569 109 569 l 222 569 q 244 565 234 569 q 261 552 254 560 q 273 534 269 544 q 277 511 277 523 q 273 488 277 499 q 261 470 269 478 q 244 457 254 462 q 222 453 234 453 l 194 453 l 194 189 q 203 129 194 148 q 227 110 212 110 q 245 118 238 110 q 255 139 252 125 q 260 171 259 153 q 261 211 261 190 l 261 254 z "},"ฝ":{"ha":654,"x_min":53,"x_max":602,"o":"m 261 254 q 266 279 261 267 q 280 299 271 290 q 301 312 289 307 q 327 316 313 316 q 353 312 340 316 q 374 299 365 307 q 388 279 382 290 q 393 254 393 267 l 393 211 q 394 171 393 190 q 400 139 396 153 q 412 118 404 125 q 432 110 419 110 q 452 129 445 110 q 460 189 460 148 l 460 758 q 465 784 460 772 q 481 806 471 797 q 503 820 490 815 q 531 825 516 825 q 558 820 545 825 q 581 806 571 815 q 596 784 590 797 q 602 758 602 772 l 602 167 q 591 87 602 121 q 559 31 579 53 q 510 -2 539 9 q 446 -13 481 -13 q 378 0 408 -13 q 327 38 347 12 q 279 1 308 14 q 211 -13 250 -13 q 146 -2 175 -13 q 96 31 117 9 q 64 87 75 53 q 53 167 53 121 l 53 498 q 58 526 53 513 q 74 548 64 539 q 96 564 83 558 q 124 569 109 569 l 222 569 q 244 565 234 569 q 261 552 254 560 q 273 534 269 544 q 277 511 277 523 q 273 488 277 499 q 261 470 269 478 q 244 457 254 462 q 222 453 234 453 l 194 453 l 194 189 q 203 129 194 148 q 227 110 212 110 q 245 118 238 110 q 255 139 252 125 q 260 171 259 153 q 261 211 261 190 l 261 254 z "},"พ":{"ha":763,"x_min":30,"x_max":731,"o":"m 609 46 q 599 24 606 34 q 582 8 592 15 q 561 -3 573 1 q 536 -7 549 -7 q 511 -3 523 -7 q 489 8 499 1 q 473 25 480 15 q 463 46 466 35 l 380 325 l 300 46 q 289 24 296 34 q 272 8 282 15 q 251 -3 263 1 q 226 -7 239 -7 q 201 -3 213 -7 q 180 8 189 1 q 163 24 170 15 q 153 46 156 34 l 34 491 q 32 519 30 506 q 42 544 35 533 q 61 563 49 555 q 87 574 73 571 q 116 576 102 578 q 143 567 131 574 q 164 549 155 560 q 176 523 173 538 l 236 247 l 318 529 q 327 548 321 539 q 342 563 333 557 q 360 573 350 569 q 381 576 370 576 q 403 573 392 576 q 421 563 413 569 q 436 548 430 556 q 445 529 442 539 l 526 250 l 586 523 q 597 549 589 538 q 618 567 606 560 q 645 576 630 574 q 674 574 660 578 q 701 563 689 571 q 719 544 712 555 q 729 519 727 533 q 727 491 731 506 l 609 46 z "},"ฟ":{"ha":763,"x_min":30,"x_max":795,"o":"m 609 46 q 599 24 606 34 q 582 8 592 15 q 561 -3 573 1 q 536 -7 549 -7 q 511 -3 523 -7 q 489 8 499 1 q 473 25 480 15 q 463 46 466 35 l 380 325 l 300 46 q 289 24 296 34 q 272 8 282 15 q 251 -3 263 1 q 226 -7 239 -7 q 201 -3 213 -7 q 180 8 189 1 q 163 24 170 15 q 153 46 156 34 l 34 491 q 32 519 30 506 q 42 544 35 533 q 61 563 49 555 q 87 574 73 571 q 116 576 102 578 q 143 567 131 574 q 164 549 155 560 q 176 523 173 538 l 236 247 l 318 529 q 327 548 321 539 q 342 563 333 557 q 360 573 350 569 q 381 576 370 576 q 403 573 392 576 q 421 563 413 569 q 436 548 430 556 q 445 529 442 539 l 526 250 l 650 772 q 662 798 653 787 q 682 816 670 809 q 709 825 694 823 q 739 824 724 827 q 765 812 753 820 q 783 793 776 804 q 793 768 791 782 q 791 740 795 755 l 609 46 z "},"ภ":{"ha":635,"x_min":20,"x_max":582,"o":"m 85 307 q 81 332 85 319 q 67 358 77 345 q 52 377 58 369 q 45 393 46 386 q 45 409 43 400 q 52 429 47 417 q 87 487 65 459 q 141 536 109 514 q 215 569 173 557 q 313 582 258 582 q 404 573 364 582 q 474 547 444 563 q 524 507 504 530 q 558 458 545 485 q 576 401 571 431 q 582 340 582 371 l 582 61 q 576 34 582 46 q 561 13 571 22 q 538 -2 551 3 q 510 -7 525 -7 q 483 -2 495 -7 q 460 13 470 3 q 444 34 450 22 q 439 61 439 46 l 439 350 q 433 389 439 370 q 411 424 426 409 q 373 449 397 440 q 313 460 349 459 q 264 455 285 460 q 228 441 243 450 q 203 422 212 433 q 190 403 194 412 q 206 386 199 395 q 217 366 212 377 q 223 340 221 355 q 225 306 225 325 l 225 55 q 221 34 225 44 q 211 16 218 24 q 194 4 204 9 q 174 0 185 0 l 72 0 q 51 4 61 0 q 35 16 42 9 q 24 34 28 24 q 20 55 20 44 q 24 76 20 66 q 35 94 28 86 q 51 105 42 101 q 72 110 61 110 l 85 110 l 85 307 z "},"ม":{"ha":611,"x_min":53,"x_max":558,"o":"m 558 199 q 547 111 558 150 q 511 46 536 73 q 446 5 486 19 q 347 -9 405 -9 q 304 -5 326 -9 q 262 10 282 0 q 223 35 242 20 q 189 70 204 50 l 189 58 q 183 32 189 43 q 169 11 178 20 q 147 -2 160 2 q 121 -7 135 -7 q 94 -2 106 -7 q 73 11 82 2 q 58 32 63 20 q 53 58 53 43 l 53 508 q 58 535 53 523 q 74 557 64 548 q 96 571 83 566 q 123 576 109 576 q 151 571 138 576 q 173 557 164 566 q 189 535 183 548 q 194 508 194 523 l 194 256 q 203 200 194 225 q 228 156 211 175 q 271 127 245 138 q 331 117 296 117 q 367 123 350 117 q 394 139 383 128 q 412 165 406 150 q 418 201 418 181 l 418 508 q 424 535 418 523 q 438 557 429 548 q 461 571 448 566 q 488 576 474 576 q 516 571 503 576 q 538 557 529 566 q 553 535 548 548 q 558 508 558 523 l 558 199 z "},"ย":{"ha":596,"x_min":43,"x_max":543,"o":"m 403 509 q 408 536 403 524 q 424 557 414 548 q 446 571 433 566 q 473 576 458 576 q 500 571 488 576 q 523 557 513 566 q 538 536 532 548 q 543 509 543 524 l 543 204 q 524 110 543 151 q 471 41 504 69 q 392 0 437 14 q 296 -14 347 -14 q 233 -9 264 -14 q 174 7 202 -4 q 122 34 146 18 q 81 72 98 50 q 53 121 63 94 q 43 183 43 149 q 56 257 43 225 q 100 307 70 289 q 75 332 86 318 q 57 361 64 346 q 47 391 50 375 q 43 421 43 406 q 51 473 43 450 q 72 512 59 495 q 102 539 85 528 q 139 557 119 550 q 178 566 158 564 q 215 569 197 569 l 262 569 q 285 565 274 569 q 303 552 295 560 q 316 533 312 544 q 321 510 321 523 q 316 487 321 498 q 303 469 312 477 q 285 456 295 460 q 262 451 274 451 l 233 451 q 211 448 220 451 q 195 440 201 445 q 186 428 189 435 q 183 414 183 421 q 187 394 183 404 q 198 378 191 385 q 215 367 205 371 q 239 361 225 362 l 267 361 q 288 357 278 361 q 305 345 298 353 q 317 328 312 338 q 321 308 321 319 q 317 287 321 296 q 305 270 312 277 q 288 259 298 263 q 267 254 278 254 l 244 254 q 222 251 233 254 q 204 242 212 249 q 191 222 196 235 q 186 188 186 209 q 195 152 186 168 q 220 126 205 137 q 255 110 236 115 q 296 104 275 104 q 338 111 319 104 q 372 132 358 118 q 395 169 387 146 q 403 222 403 191 l 403 509 z "},"ร":{"ha":517,"x_min":35,"x_max":486,"o":"m 460 455 q 463 427 465 441 q 456 402 462 414 q 440 381 450 390 q 416 368 429 372 q 389 364 402 363 q 363 372 375 366 q 342 388 352 378 q 329 412 333 398 q 317 435 324 425 q 299 451 309 445 q 279 460 290 457 q 256 463 268 463 q 232 460 244 463 q 210 452 220 457 q 194 438 200 447 q 188 418 188 430 q 193 401 188 409 q 211 385 199 393 q 244 369 224 377 q 292 351 263 361 q 388 310 350 330 q 447 267 426 289 q 478 220 469 244 q 486 167 486 195 q 469 83 486 117 q 420 28 451 49 q 348 -2 390 7 q 258 -11 306 -11 q 187 -3 221 -11 q 124 21 153 4 q 74 63 96 37 q 40 124 53 89 q 36 152 35 138 q 42 178 37 166 q 58 200 48 190 q 82 214 68 209 q 111 218 98 219 q 137 211 125 217 q 157 195 149 205 q 171 172 166 185 q 205 124 181 139 q 264 108 229 108 q 290 111 276 108 q 316 120 304 114 q 336 137 328 126 q 343 165 343 149 q 337 187 343 177 q 317 204 330 196 q 284 221 304 213 q 237 240 264 230 q 161 272 196 256 q 98 307 125 287 q 57 353 72 327 q 42 417 42 380 q 50 471 42 447 q 73 513 58 495 q 107 544 88 531 q 150 565 127 557 q 198 577 173 573 q 247 581 222 581 q 319 574 286 581 q 380 553 353 567 q 428 514 408 538 q 460 455 448 490 z "},"ฤ":{"ha":600,"x_min":19,"x_max":558,"o":"m 61 307 q 57 332 61 319 q 43 358 54 345 q 28 377 34 369 q 21 393 23 386 q 21 409 19 400 q 28 429 23 417 q 63 487 41 459 q 117 536 85 514 q 192 569 149 557 q 289 582 234 582 q 380 573 340 582 q 450 547 420 563 q 501 507 480 530 q 534 458 522 485 q 553 401 547 431 q 558 340 558 371 l 558 -120 q 553 -147 558 -135 q 537 -169 547 -160 q 515 -183 528 -178 q 487 -188 502 -188 q 459 -183 472 -188 q 436 -169 446 -178 q 421 -147 427 -160 q 415 -120 415 -135 l 415 350 q 409 389 415 370 q 388 424 403 409 q 349 449 373 440 q 289 460 325 459 q 240 455 261 460 q 204 441 219 450 q 180 422 189 433 q 167 403 170 412 q 193 362 184 387 q 201 306 201 337 l 201 110 l 215 110 q 236 105 226 110 q 252 94 245 101 q 263 76 259 86 q 267 55 267 66 q 263 34 267 44 q 252 16 259 24 q 236 4 245 9 q 215 0 226 0 l 113 0 q 92 4 101 0 q 75 16 82 9 q 65 34 68 24 q 61 55 61 44 l 61 307 z "},"ล":{"ha":597,"x_min":36,"x_max":545,"o":"m 404 261 q 358 240 381 247 q 314 229 334 233 q 265 220 290 224 q 221 208 241 215 q 190 190 202 201 q 178 164 178 180 q 185 134 178 146 q 206 115 193 122 q 233 104 218 107 q 264 101 249 101 q 276 102 269 101 q 289 103 282 102 q 311 103 300 105 q 330 96 321 101 q 345 82 339 91 q 353 61 351 73 q 353 40 355 50 q 345 21 351 29 q 331 6 339 12 q 312 -3 322 0 q 276 -9 293 -7 q 242 -11 259 -11 q 163 -2 200 -11 q 97 26 125 6 q 52 78 69 46 q 36 157 36 111 q 44 210 36 187 q 68 252 53 234 q 106 283 84 270 q 158 306 129 296 q 221 324 186 316 q 294 339 255 332 q 335 348 315 342 q 370 360 355 353 q 395 377 386 367 q 404 400 404 387 q 396 433 404 421 q 374 451 387 445 q 343 458 360 457 q 308 460 326 460 q 274 457 290 460 q 245 448 258 454 q 222 431 232 441 q 204 403 212 420 q 189 380 199 390 q 168 364 180 370 q 142 357 156 358 q 112 361 128 356 q 88 375 98 365 q 73 398 78 385 q 67 425 67 410 q 72 453 67 439 q 111 514 86 490 q 167 554 135 539 q 237 575 199 569 q 315 582 274 582 q 370 579 342 582 q 423 568 397 575 q 470 547 448 560 q 509 514 493 534 q 535 468 526 495 q 545 406 545 441 l 545 60 q 539 33 545 45 q 524 12 533 21 q 502 -2 514 3 q 474 -7 489 -7 q 447 -2 460 -7 q 425 12 434 3 q 410 33 415 21 q 404 60 404 45 l 404 261 z "},"ฦ":{"ha":635,"x_min":20,"x_max":582,"o":"m 85 307 q 81 332 85 319 q 67 358 77 345 q 52 377 58 369 q 45 393 46 386 q 45 409 43 400 q 52 429 47 417 q 87 487 65 459 q 141 536 109 514 q 215 569 173 557 q 313 582 258 582 q 404 573 364 582 q 474 547 444 563 q 524 507 504 530 q 558 458 545 485 q 576 401 571 431 q 582 340 582 371 l 582 -120 q 576 -147 582 -135 q 561 -169 571 -159 q 538 -183 551 -178 q 510 -188 525 -188 q 483 -183 495 -188 q 460 -169 470 -178 q 444 -147 450 -159 q 439 -120 439 -135 l 439 350 q 433 389 439 370 q 411 424 426 409 q 373 449 397 440 q 313 460 349 459 q 264 455 285 460 q 228 441 243 450 q 203 422 212 433 q 190 403 194 412 q 206 386 199 395 q 217 366 212 377 q 223 340 221 355 q 225 306 225 325 l 225 55 q 221 34 225 44 q 211 16 218 24 q 194 4 204 9 q 174 0 185 0 l 72 0 q 51 4 61 0 q 35 16 42 9 q 24 34 28 24 q 20 55 20 44 q 24 76 20 66 q 35 94 28 86 q 51 105 42 101 q 72 110 61 110 l 85 110 l 85 307 z "},"ว":{"ha":545,"x_min":47,"x_max":511,"o":"m 264 -13 q 191 -3 224 -13 q 131 25 158 7 q 85 69 105 43 q 53 126 65 95 q 48 154 47 140 q 54 181 48 168 q 70 203 60 193 q 94 217 80 212 q 122 222 108 222 q 148 215 136 221 q 170 199 160 209 q 184 175 179 189 q 198 146 189 158 q 217 126 206 134 q 239 114 227 118 q 264 110 251 110 q 306 120 287 110 q 337 152 325 131 q 357 206 350 173 q 364 285 364 239 q 357 363 364 330 q 337 418 350 396 q 306 451 325 440 q 264 461 287 461 q 239 457 251 461 q 217 445 227 453 q 198 425 206 437 q 184 396 190 413 q 170 372 179 382 q 149 356 161 362 q 122 349 136 350 q 94 354 108 349 q 70 368 80 359 q 54 390 60 378 q 48 417 48 403 q 53 445 47 431 q 86 502 65 476 q 133 546 106 528 q 193 573 160 564 q 264 583 226 583 q 374 562 327 583 q 451 501 420 540 q 496 407 481 462 q 511 285 511 352 q 496 163 511 218 q 451 69 481 108 q 374 9 420 30 q 264 -13 327 -13 z "},"ศ":{"ha":631,"x_min":53,"x_max":584,"o":"m 316 231 q 260 212 283 225 q 222 179 236 198 q 200 133 207 159 q 193 76 193 107 l 193 63 q 187 37 193 49 q 172 15 182 24 q 150 2 163 6 q 123 -3 137 -3 q 95 2 108 -3 q 73 15 83 6 q 58 37 64 24 q 53 63 53 49 l 53 336 q 58 398 53 367 q 76 455 64 428 q 108 506 88 483 q 158 546 128 529 q 226 572 187 563 q 317 582 266 582 q 379 577 351 582 q 432 565 408 573 q 448 577 441 570 q 460 594 455 585 q 483 623 469 613 q 519 633 497 633 q 544 628 532 633 q 565 614 556 623 q 579 593 574 605 q 583 568 584 581 q 567 526 581 543 q 531 496 552 509 q 567 421 557 463 q 578 336 578 380 l 578 63 q 572 37 578 49 q 557 15 567 24 q 534 2 547 6 q 507 -3 522 -3 q 479 2 492 -3 q 457 15 467 6 q 442 37 447 24 q 436 63 436 49 l 436 347 q 429 387 436 367 q 409 423 423 407 q 372 450 394 439 q 317 460 349 460 q 261 450 284 460 q 223 423 238 439 q 200 387 208 407 q 193 347 193 367 l 193 294 q 236 328 213 314 q 287 349 259 341 q 311 350 299 352 q 333 342 323 348 q 350 327 343 336 q 360 305 357 317 q 361 280 363 292 q 353 258 359 268 q 338 241 347 248 q 316 231 328 234 z "},"ษ":{"ha":633,"x_min":53,"x_max":636,"o":"m 321 257 q 297 261 308 257 q 277 274 286 266 q 264 292 269 281 q 259 316 259 303 l 259 360 q 264 384 259 373 q 277 402 269 395 q 297 415 286 410 q 321 419 308 419 q 345 415 333 419 q 364 403 356 411 q 377 385 372 396 q 383 362 382 375 l 436 362 l 436 509 q 442 536 436 523 q 457 557 447 548 q 480 571 467 566 q 507 576 493 576 q 535 571 522 576 q 558 557 548 566 q 573 536 568 548 q 579 509 579 523 l 579 362 l 586 362 q 606 358 597 362 q 622 347 615 354 q 632 330 629 340 q 636 310 636 320 q 632 289 636 299 q 622 272 629 279 q 606 261 615 265 q 586 257 597 257 l 579 257 l 579 233 q 574 172 579 202 q 557 114 569 141 q 526 63 545 86 q 477 23 506 40 q 408 -3 448 6 q 317 -13 368 -13 q 224 -3 264 -13 q 154 23 184 6 q 106 63 125 40 q 74 114 86 86 q 58 172 63 141 q 53 233 53 202 l 53 509 q 58 536 53 523 q 74 557 64 548 q 96 571 83 566 q 123 576 109 576 q 151 571 138 576 q 173 557 164 566 q 189 536 183 548 q 194 509 194 523 l 194 223 q 200 183 194 203 q 220 146 206 163 q 258 120 235 130 q 317 110 282 110 q 375 120 352 110 q 411 146 397 130 q 430 183 425 163 q 436 223 436 203 l 436 257 l 321 257 z "},"ส":{"ha":597,"x_min":36,"x_max":570,"o":"m 569 568 q 554 527 567 544 q 520 498 541 511 q 538 457 532 480 q 545 406 545 434 l 545 60 q 539 33 545 45 q 524 12 533 21 q 502 -2 514 3 q 474 -7 489 -7 q 447 -2 460 -7 q 425 12 434 3 q 410 33 415 21 q 404 60 404 45 l 404 261 q 358 240 381 247 q 314 229 334 233 q 265 220 290 224 q 221 208 241 215 q 190 190 202 201 q 178 164 178 180 q 185 134 178 146 q 206 115 193 122 q 233 104 218 107 q 264 101 249 101 q 276 102 269 101 q 289 103 282 102 q 311 103 300 105 q 330 96 321 101 q 345 82 339 91 q 353 61 351 73 q 353 40 355 50 q 345 21 351 29 q 331 6 339 12 q 312 -3 322 0 q 276 -9 293 -7 q 242 -11 259 -11 q 163 -2 200 -11 q 97 26 125 6 q 52 78 69 46 q 36 157 36 111 q 44 210 36 187 q 68 252 53 234 q 106 283 84 270 q 158 306 129 296 q 221 324 186 316 q 294 339 255 332 q 335 348 315 342 q 370 360 355 353 q 395 377 386 367 q 404 400 404 387 q 396 433 404 421 q 374 451 387 445 q 343 458 360 457 q 308 460 326 460 q 274 457 290 460 q 245 448 258 454 q 222 431 232 441 q 204 403 212 420 q 189 380 199 390 q 168 364 180 370 q 142 357 156 358 q 112 361 128 356 q 88 375 98 365 q 73 398 78 385 q 67 425 67 410 q 72 453 67 439 q 111 514 86 490 q 167 554 135 539 q 237 575 199 569 q 315 582 274 582 q 370 579 342 582 q 423 568 397 575 q 436 579 430 572 q 446 594 443 586 q 469 623 455 613 q 505 633 484 633 q 531 628 519 633 q 552 614 543 623 q 565 593 561 605 q 569 568 570 581 z "},"ห":{"ha":598,"x_min":53,"x_max":562,"o":"m 549 61 q 543 34 549 46 q 528 12 537 21 q 505 -2 518 3 q 478 -7 492 -7 q 450 -2 463 -7 q 428 12 437 3 q 412 34 418 21 q 407 61 407 46 l 407 271 q 405 298 407 285 q 400 321 404 310 q 389 339 396 331 q 372 352 382 347 l 194 237 l 194 61 q 189 34 194 46 q 173 12 183 21 q 151 -2 164 3 q 123 -7 138 -7 q 96 -2 109 -7 q 74 12 83 3 q 58 34 64 21 q 53 61 53 46 l 53 509 q 58 536 53 523 q 74 557 64 548 q 96 571 83 566 q 123 576 109 576 q 151 571 138 576 q 173 557 164 566 q 189 536 183 548 q 194 509 194 523 l 194 399 l 458 566 q 483 576 470 573 q 508 575 496 578 q 532 565 521 572 q 550 546 543 557 q 560 522 557 534 q 559 496 562 509 q 549 473 556 484 q 530 454 542 462 l 488 427 q 517 397 505 414 q 536 358 529 379 q 546 313 543 337 q 549 261 549 289 l 549 61 z "},"ฬ":{"ha":744,"x_min":30,"x_max":742,"o":"m 610 625 q 635 653 618 642 q 673 664 652 664 q 700 659 687 664 q 722 644 712 653 q 737 622 731 634 q 742 595 742 609 q 735 566 742 579 q 718 542 729 552 q 694 523 707 531 q 667 508 680 515 q 700 448 691 480 q 699 379 709 415 l 599 42 q 574 7 592 20 q 531 -7 555 -7 q 489 7 506 -7 q 463 42 471 21 l 374 288 l 287 42 q 262 7 280 20 q 219 -7 243 -7 q 196 -3 207 -7 q 176 7 184 0 q 161 22 167 13 q 151 42 154 31 l 34 491 q 33 519 30 506 q 42 544 35 533 q 61 563 50 555 q 87 574 73 571 q 117 576 102 578 q 143 567 131 574 q 164 549 156 560 q 176 523 173 538 l 232 228 l 311 442 q 321 461 315 452 q 335 476 327 469 q 353 485 343 482 q 374 489 363 489 q 413 476 397 489 q 437 443 429 463 l 521 219 l 555 375 q 561 408 559 394 q 561 434 563 423 q 552 453 559 446 q 530 465 544 461 q 514 473 521 467 q 500 485 506 478 q 492 501 495 492 q 489 519 489 510 q 492 539 489 530 q 502 556 496 549 q 517 569 508 564 q 535 576 526 574 q 581 592 563 581 q 610 625 600 604 z "},"อ":{"ha":589,"x_min":34,"x_max":560,"o":"m 248 323 q 270 319 260 323 q 287 307 280 314 q 298 288 294 299 q 302 266 302 278 q 298 243 302 254 q 287 225 294 233 q 270 213 280 217 q 248 208 260 208 l 182 208 q 198 168 188 186 q 223 137 209 150 q 256 117 238 124 q 296 110 274 110 q 346 122 324 110 q 384 155 368 133 q 407 210 399 178 q 415 283 415 242 q 386 414 415 369 q 294 458 356 458 q 261 455 278 458 q 230 444 245 451 q 203 427 215 437 q 183 403 191 416 q 166 380 176 390 q 145 364 157 370 q 120 357 134 358 q 91 361 106 356 q 66 375 77 365 q 50 398 56 385 q 44 425 44 411 q 51 453 44 440 q 90 507 66 483 q 146 548 115 532 q 214 574 177 565 q 294 583 252 583 q 418 560 367 583 q 500 497 469 537 q 546 402 532 456 q 560 283 560 347 q 554 207 560 244 q 534 136 547 169 q 499 76 520 103 q 449 29 478 49 q 381 -2 419 9 q 296 -13 343 -13 q 212 -3 249 -13 q 146 26 175 7 q 97 70 118 44 q 63 126 76 95 q 42 192 49 157 q 34 266 35 228 q 38 288 34 278 q 49 307 42 299 q 66 319 56 314 q 88 323 76 323 l 248 323 z "},"ฮ":{"ha":586,"x_min":34,"x_max":560,"o":"m 296 -13 q 212 -3 249 -13 q 146 26 175 7 q 97 70 118 44 q 63 126 76 95 q 42 192 49 157 q 34 266 35 228 q 38 288 34 278 q 49 307 42 299 q 66 319 56 314 q 88 323 76 323 l 248 323 q 270 319 260 323 q 287 307 280 314 q 298 288 294 299 q 302 266 302 278 q 298 243 302 254 q 287 225 294 233 q 270 213 280 217 q 248 208 260 208 l 182 208 q 198 168 188 186 q 223 137 209 150 q 256 117 238 124 q 296 110 274 110 q 346 122 324 110 q 384 155 368 133 q 407 210 399 178 q 415 283 415 242 q 386 414 415 369 q 294 458 356 458 q 261 455 278 458 q 230 444 245 451 q 203 427 215 437 q 183 403 191 416 q 166 380 176 390 q 145 364 157 370 q 120 357 134 358 q 91 361 106 356 q 66 375 77 365 q 50 398 56 385 q 44 425 44 411 q 51 453 44 440 q 90 507 66 483 q 146 548 115 532 q 214 574 177 565 q 294 583 252 583 q 354 579 327 583 q 405 565 381 574 q 421 578 413 570 q 432 594 428 585 q 456 623 441 613 q 491 633 470 633 q 517 628 505 633 q 538 614 529 623 q 551 593 547 605 q 555 568 556 581 q 539 526 553 543 q 503 496 525 509 l 501 495 q 546 401 532 455 q 560 283 560 347 q 554 207 560 244 q 534 136 547 169 q 499 76 520 103 q 449 29 478 49 q 381 -2 419 9 q 296 -13 343 -13 z "},"ฯ":{"ha":614,"x_min":54,"x_max":561,"o":"m 421 235 q 363 213 395 221 q 296 205 331 205 q 191 219 236 205 q 115 258 145 233 q 70 319 85 283 q 54 399 54 355 q 63 456 54 431 q 86 500 71 481 q 120 532 100 519 q 162 554 139 546 q 208 566 184 562 q 254 569 231 569 l 309 569 q 331 565 321 569 q 348 552 341 560 q 359 534 355 544 q 363 511 363 523 q 359 488 363 499 q 348 470 355 478 q 331 457 341 462 q 309 453 321 453 l 254 453 q 212 438 226 453 q 199 397 199 422 q 203 372 199 385 q 218 349 208 359 q 247 333 229 339 q 292 327 264 327 q 387 348 354 327 q 421 417 421 370 l 421 509 q 426 536 421 524 q 441 557 432 548 q 464 571 451 566 q 491 576 476 576 q 518 571 506 576 q 541 557 531 566 q 556 536 550 548 q 561 509 561 524 l 561 60 q 556 33 561 45 q 541 12 550 21 q 518 -2 531 3 q 491 -7 506 -7 q 464 -2 476 -7 q 441 12 451 3 q 426 33 432 21 q 421 60 421 45 l 421 235 z "},"ะ":{"ha":354,"x_min":54,"x_max":320,"o":"m 113 364 q 90 368 100 364 q 71 379 79 372 q 59 397 63 387 q 54 419 54 407 l 54 467 q 59 489 54 479 q 71 506 63 499 q 90 517 79 513 q 113 522 100 522 q 135 517 125 522 q 154 506 146 513 q 166 489 162 499 q 171 467 171 479 l 272 467 q 291 463 282 467 q 306 451 300 458 q 316 435 313 445 q 320 415 320 426 q 316 395 320 404 q 306 379 313 386 q 291 368 300 372 q 272 364 282 364 l 113 364 m 113 82 q 90 86 100 82 q 71 97 79 90 q 59 115 63 105 q 54 137 54 125 l 54 185 q 59 207 54 197 q 71 224 63 217 q 90 236 79 232 q 113 240 100 240 q 135 236 125 240 q 154 224 146 232 q 166 207 162 217 q 171 185 171 197 l 272 185 q 291 181 282 185 q 306 170 300 177 q 316 153 313 163 q 320 133 320 144 q 316 113 320 122 q 306 97 313 104 q 291 86 300 90 q 272 82 282 82 l 113 82 z "},"ั":{"ha":0,"x_min":-374,"x_max":33,"o":"m -374 758 q -369 782 -374 771 q -355 801 -364 793 q -335 813 -347 808 q -311 817 -324 817 q -287 813 -298 817 q -267 801 -275 808 q -253 782 -258 793 q -249 758 -249 771 l -18 758 q 2 754 -7 758 q 18 742 12 750 q 29 725 25 735 q 33 704 33 715 q 29 683 33 693 q 18 666 25 673 q 2 654 12 659 q -18 650 -7 650 l -311 650 q -335 654 -324 650 q -355 667 -347 659 q -369 685 -364 674 q -374 709 -374 696 l -374 758 z "},"า":{"ha":492,"x_min":17,"x_max":439,"o":"m 297 367 q 279 438 297 416 q 225 460 260 460 q 183 446 201 460 q 157 406 165 433 q 142 382 152 392 q 119 365 132 371 q 92 359 106 359 q 63 363 77 358 q 39 378 50 368 q 23 400 29 388 q 17 427 18 413 q 22 455 17 441 q 56 510 35 486 q 104 550 77 534 q 162 574 131 566 q 225 582 193 582 q 309 570 270 582 q 377 534 349 558 q 423 473 406 510 q 439 385 439 435 l 439 61 q 434 34 439 46 q 418 12 428 21 q 396 -2 409 3 q 368 -7 383 -7 q 341 -2 354 -7 q 318 12 328 3 q 303 34 309 21 q 297 61 297 46 l 297 367 z "},"ำ":{"ha":492,"x_min":-246,"x_max":439,"o":"m -171 754 q -167 738 -171 746 q -158 724 -164 730 q -144 715 -152 718 q -128 711 -136 711 q -111 715 -119 711 q -97 724 -103 718 q -87 738 -91 730 q -83 754 -83 746 q -87 771 -83 763 q -97 785 -91 779 q -111 795 -103 791 q -128 799 -119 799 q -144 795 -136 799 q -158 785 -152 791 q -167 771 -164 779 q -171 754 -171 763 m -246 754 q -237 801 -246 779 q -211 839 -227 823 q -174 864 -195 855 q -128 873 -152 873 q -82 864 -104 873 q -44 839 -60 855 q -18 801 -28 823 q -8 754 -8 779 q -18 708 -8 730 q -44 671 -28 687 q -82 645 -60 655 q -128 636 -104 636 q -174 645 -152 636 q -211 671 -195 655 q -237 708 -227 687 q -246 754 -246 730 m 297 61 q 303 34 297 46 q 318 12 309 21 q 341 -2 328 3 q 368 -7 354 -7 q 396 -2 383 -7 q 418 12 409 3 q 434 34 428 21 q 439 61 439 46 l 439 385 q 423 473 439 435 q 377 534 406 510 q 309 570 349 558 q 225 582 270 582 q 162 574 193 582 q 104 550 131 566 q 56 510 77 534 q 22 455 35 486 q 17 427 17 441 q 23 400 18 413 q 39 378 29 388 q 63 363 50 368 q 92 359 77 358 q 119 365 106 359 q 142 382 132 371 q 157 406 152 392 q 183 446 165 433 q 225 460 201 460 q 279 438 260 460 q 297 367 297 416 l 297 61 z "},"ิ":{"ha":0,"x_min":-564,"x_max":-47,"o":"m -98 758 q -77 754 -87 758 q -62 742 -68 750 q -51 725 -55 735 q -47 704 -47 715 q -51 683 -47 693 q -62 666 -55 673 q -77 654 -68 659 q -98 650 -87 650 l -514 650 q -534 654 -525 650 q -550 666 -544 659 q -561 683 -557 673 q -564 704 -564 693 q -561 725 -564 715 q -550 742 -557 735 q -534 754 -544 750 q -514 758 -525 758 l -98 758 z "},"ี":{"ha":0,"x_min":-564,"x_max":-54,"o":"m -514 650 q -534 654 -525 650 q -550 666 -544 659 q -561 683 -557 673 q -564 704 -564 693 q -561 725 -564 715 q -550 742 -557 735 q -534 754 -544 750 q -514 758 -525 758 l -189 758 l -189 788 q -183 814 -189 802 q -169 834 -178 826 q -148 848 -160 843 q -121 852 -135 852 q -95 848 -107 852 q -74 834 -83 843 q -60 814 -65 826 q -54 788 -54 802 l -54 714 q -60 688 -54 700 q -74 668 -65 676 q -95 655 -83 660 q -121 650 -107 650 l -514 650 z "},"ึ":{"ha":0,"x_min":-564,"x_max":-40,"o":"m -514 650 q -534 654 -525 650 q -550 666 -544 659 q -561 683 -557 673 q -564 704 -564 693 q -561 725 -564 715 q -550 742 -557 735 q -534 754 -544 750 q -514 758 -525 758 l -251 758 l -251 763 q -243 804 -251 784 q -220 837 -235 823 q -187 860 -206 851 q -146 868 -168 868 q -105 860 -124 868 q -71 837 -85 851 q -49 802 -57 822 q -40 761 -40 783 q -49 717 -40 737 q -71 682 -57 696 q -105 658 -85 667 q -146 650 -124 650 l -514 650 m -183 763 q -181 749 -183 755 q -173 737 -178 742 q -161 729 -168 732 q -146 726 -154 726 q -131 729 -138 726 q -119 737 -124 732 q -111 749 -114 742 q -108 763 -108 755 q -111 777 -108 770 q -119 789 -114 784 q -131 797 -124 794 q -146 800 -138 800 q -161 797 -154 800 q -173 789 -168 794 q -181 777 -178 784 q -183 763 -183 770 z "},"ื":{"ha":0,"x_min":-564,"x_max":-54,"o":"m -514 650 q -534 654 -525 650 q -550 666 -544 659 q -561 683 -557 673 q -564 704 -564 693 q -561 725 -564 715 q -550 742 -557 735 q -534 754 -544 750 q -514 758 -525 758 l -321 758 l -321 800 q -316 821 -321 812 q -304 838 -312 831 q -287 849 -297 845 q -265 852 -277 852 q -243 849 -254 852 q -226 838 -233 845 q -214 821 -218 831 q -210 800 -210 812 l -210 758 l -165 758 l -165 800 q -161 821 -165 812 q -149 838 -156 831 q -131 849 -141 845 q -110 852 -121 852 q -88 849 -98 852 q -70 838 -78 845 q -58 821 -63 831 q -54 800 -54 812 l -54 714 q -60 688 -54 700 q -74 668 -65 676 q -95 655 -83 660 q -121 650 -107 650 l -514 650 z "},"ุ":{"ha":0,"x_min":-256,"x_max":-53,"o":"m -53 -262 q -58 -287 -53 -275 q -72 -306 -63 -298 q -92 -319 -80 -314 q -117 -323 -104 -323 q -142 -319 -131 -323 q -163 -306 -154 -314 q -177 -287 -172 -298 q -182 -262 -182 -275 l -182 -170 l -209 -170 q -228 -165 -219 -170 q -243 -154 -236 -161 q -252 -138 -249 -148 q -256 -119 -256 -129 q -252 -99 -256 -108 q -243 -83 -249 -90 q -228 -72 -236 -76 q -209 -68 -219 -68 l -100 -68 q -81 -72 -90 -68 q -66 -83 -73 -76 q -56 -99 -60 -90 q -53 -119 -53 -108 l -53 -262 z "},"ู":{"ha":0,"x_min":-445,"x_max":-53,"o":"m -182 -125 q -177 -100 -182 -112 q -163 -80 -172 -89 q -142 -66 -154 -71 q -117 -61 -131 -61 q -92 -66 -104 -61 q -72 -80 -80 -71 q -58 -100 -63 -89 q -53 -125 -53 -112 l -53 -157 q -62 -217 -53 -189 q -90 -267 -70 -245 q -141 -300 -109 -288 q -218 -313 -172 -313 q -289 -303 -259 -313 q -339 -275 -319 -293 q -370 -232 -359 -257 q -383 -178 -381 -208 l -394 -177 q -414 -173 -405 -177 q -431 -161 -424 -169 q -441 -144 -437 -154 q -445 -123 -445 -134 q -441 -102 -445 -112 q -431 -84 -437 -92 q -414 -72 -424 -77 q -394 -68 -405 -68 l -306 -68 q -285 -72 -294 -68 q -269 -84 -275 -77 q -258 -102 -262 -92 q -254 -123 -254 -112 l -254 -157 q -246 -190 -254 -179 q -218 -201 -237 -201 q -182 -157 -182 -201 l -182 -125 z "},"ฺ":{"ha":0,"x_min":-211,"x_max":-35,"o":"m -211 -132 q -204 -97 -211 -114 q -185 -69 -197 -81 q -157 -50 -173 -57 q -122 -43 -140 -43 q -89 -50 -104 -43 q -61 -69 -73 -57 q -42 -97 -49 -81 q -35 -132 -35 -114 q -42 -165 -35 -150 q -61 -193 -49 -181 q -89 -212 -73 -205 q -122 -219 -104 -219 q -157 -212 -140 -219 q -185 -193 -173 -205 q -204 -165 -197 -181 q -211 -132 -211 -150 z "},"฾":{"ha":0,"x_min":0,"x_max":0,"o":""},"฿":{"ha":660,"x_min":62,"x_max":626,"o":"m 355 677 q 396 676 376 677 q 436 672 417 675 q 473 663 456 669 q 504 650 491 658 q 539 624 523 639 q 569 590 556 609 q 589 548 582 571 q 597 498 597 526 q 592 455 597 475 q 576 418 586 435 q 553 387 567 401 q 524 362 540 373 q 565 336 546 352 q 598 299 584 319 q 619 256 611 279 q 626 207 626 232 q 620 156 626 181 q 599 107 613 131 q 566 65 586 84 q 520 31 546 45 q 463 8 494 16 q 393 0 431 0 l 355 0 l 355 -69 q 353 -81 355 -75 q 346 -92 350 -87 q 336 -99 341 -96 q 324 -102 330 -102 q 313 -99 318 -102 q 303 -92 307 -96 q 296 -81 298 -87 q 293 -69 293 -75 l 293 0 l 149 0 q 115 7 131 0 q 88 26 100 14 q 69 53 76 38 q 62 87 62 69 l 62 587 q 70 622 62 606 q 89 651 77 639 q 117 671 101 664 q 153 678 134 678 l 293 678 l 293 740 q 296 752 293 746 q 303 762 298 758 q 313 770 307 767 q 324 772 318 772 q 336 770 330 772 q 346 762 341 767 q 353 752 350 758 q 355 740 355 746 l 355 677 m 355 293 l 355 118 l 380 118 q 423 125 405 118 q 454 144 441 132 q 473 173 466 156 q 479 210 479 190 q 469 248 479 232 q 444 274 460 264 q 408 288 428 284 q 366 293 387 293 l 355 293 m 293 118 l 293 293 l 210 293 l 210 118 l 293 118 m 293 401 l 293 560 l 210 560 l 210 401 l 293 401 m 451 482 q 444 519 451 504 q 424 542 437 533 q 394 555 411 551 q 355 559 376 559 l 355 402 q 400 409 382 403 q 430 426 418 416 q 446 451 441 437 q 451 482 451 465 z "},"เ":{"ha":260,"x_min":58,"x_max":201,"o":"m 201 61 q 196 34 201 46 q 180 13 190 22 q 158 -2 171 3 q 130 -7 144 -7 q 102 -2 115 -7 q 79 13 89 3 q 64 34 70 22 q 58 61 58 46 l 58 508 q 64 535 58 523 q 79 557 70 548 q 102 571 89 566 q 130 576 115 576 q 158 571 144 576 q 180 557 171 566 q 196 535 190 548 q 201 508 201 523 l 201 61 z "},"แ":{"ha":469,"x_min":53,"x_max":417,"o":"m 196 61 q 190 34 196 46 q 175 13 185 22 q 152 -2 165 3 q 124 -7 139 -7 q 97 -2 110 -7 q 74 13 84 3 q 58 34 64 22 q 53 61 53 46 l 53 508 q 58 535 53 523 q 74 557 64 548 q 97 571 84 566 q 124 576 110 576 q 152 571 139 576 q 175 557 165 566 q 190 535 185 548 q 196 508 196 523 l 196 61 m 417 61 q 411 34 417 46 q 396 13 406 22 q 373 -2 386 3 q 345 -7 360 -7 q 317 -2 330 -7 q 295 13 304 3 q 279 34 285 22 q 274 61 274 46 l 274 508 q 279 535 274 523 q 295 557 285 548 q 317 571 304 566 q 345 576 330 576 q 373 571 360 576 q 396 557 386 566 q 411 535 406 548 q 417 508 417 523 l 417 61 z "},"โ":{"ha":289,"x_min":-11,"x_max":350,"o":"m 294 846 q 316 841 306 846 q 334 829 326 837 q 346 811 341 822 q 350 789 350 801 q 346 767 350 778 q 334 750 341 757 q 316 738 326 742 q 294 733 306 733 l 176 733 q 190 718 184 727 q 200 698 196 709 q 207 675 205 687 q 210 653 210 664 l 210 115 l 222 115 q 244 111 234 115 q 261 98 254 106 q 273 80 269 91 q 277 58 277 70 q 273 35 277 46 q 261 17 269 25 q 244 5 254 9 q 222 0 234 0 l 122 0 q 101 5 111 0 q 83 17 91 9 q 72 35 76 25 q 68 58 68 46 l 68 668 q 56 709 68 691 q 22 737 44 728 q -2 758 7 744 q -11 789 -11 771 q -6 811 -11 801 q 6 829 -2 821 q 24 841 13 837 q 46 846 34 846 l 294 846 z "},"ใ":{"ha":289,"x_min":-42,"x_max":289,"o":"m -39 743 q -12 799 -30 775 q 28 838 5 823 q 78 862 51 854 q 132 869 104 869 q 190 862 162 869 q 241 840 219 856 q 276 802 262 825 q 289 744 289 778 q 286 723 289 733 q 278 703 283 712 q 267 684 274 693 q 254 667 261 675 q 239 645 247 656 q 225 623 231 635 q 214 597 218 611 q 210 567 210 583 l 210 115 l 224 115 q 246 111 236 115 q 263 98 256 106 q 274 80 270 91 q 278 58 278 70 q 274 35 278 46 q 263 17 270 25 q 246 5 256 9 q 224 0 236 0 l 124 0 q 102 5 112 0 q 85 17 92 9 q 74 35 78 25 q 70 58 70 46 l 70 567 q 75 601 70 585 q 88 632 80 617 q 106 659 96 646 q 125 683 116 672 q 148 713 139 699 q 157 739 157 726 q 156 746 157 742 q 152 755 155 751 q 143 761 149 759 q 129 764 138 764 q 95 749 110 764 q 74 710 80 734 q 63 689 70 698 q 46 675 56 681 q 24 668 36 670 q 1 670 13 667 q -19 681 -11 673 q -34 698 -28 688 q -41 719 -39 708 q -39 743 -42 731 z "},"ไ":{"ha":289,"x_min":-73,"x_max":289,"o":"m 210 115 l 222 115 q 244 111 234 115 q 261 98 254 106 q 273 80 269 91 q 277 58 277 70 q 273 35 277 46 q 261 17 269 25 q 244 5 254 9 q 222 0 234 0 l 122 0 q 101 5 111 0 q 83 17 91 9 q 72 35 76 25 q 68 58 68 46 l 68 653 q 71 675 68 664 q 77 698 73 687 q 88 718 82 709 q 101 733 94 727 l -16 733 q -38 738 -28 733 q -56 750 -48 742 q -68 767 -64 757 q -73 789 -73 778 q -68 811 -73 801 q -56 829 -64 822 q -38 841 -48 837 q -16 846 -28 846 l 232 846 q 254 841 244 846 q 272 829 264 837 q 284 811 280 821 q 289 789 289 801 q 279 758 289 771 q 255 737 270 744 q 222 709 234 728 q 210 668 210 691 l 210 115 z "},"ๅ":{"ha":492,"x_min":17,"x_max":439,"o":"m 297 367 q 279 438 297 416 q 225 460 260 460 q 183 446 201 460 q 157 406 165 433 q 142 382 152 392 q 119 365 132 371 q 92 359 106 359 q 63 363 77 358 q 39 378 50 368 q 23 400 29 388 q 17 427 18 413 q 22 455 17 441 q 56 510 35 486 q 104 550 77 534 q 162 574 131 566 q 225 582 193 582 q 309 570 270 582 q 377 534 349 558 q 423 473 406 510 q 439 385 439 435 l 439 -124 q 434 -151 439 -139 q 418 -172 428 -163 q 396 -186 409 -181 q 368 -192 383 -192 q 341 -186 354 -192 q 318 -172 328 -181 q 303 -151 309 -163 q 297 -124 297 -139 l 297 367 z "},"ๆ":{"ha":581,"x_min":44,"x_max":526,"o":"m 526 -124 q 520 -151 526 -139 q 505 -172 515 -163 q 482 -186 495 -181 q 455 -192 469 -192 q 427 -186 440 -192 q 404 -172 414 -181 q 389 -151 395 -163 q 383 -124 383 -139 l 383 359 q 383 385 383 370 q 382 412 383 399 q 378 438 381 426 q 370 454 375 449 l 319 407 q 307 397 314 401 q 290 393 300 393 q 272 397 280 393 q 260 407 265 401 l 210 454 q 199 438 203 448 q 192 416 195 428 q 189 391 190 404 q 189 367 188 378 q 191 349 189 358 q 197 332 193 340 q 207 318 200 323 q 224 311 214 312 q 262 293 248 308 q 277 254 277 279 q 272 232 277 242 q 260 213 268 221 q 242 201 252 205 q 220 197 232 197 q 182 202 201 198 q 145 215 163 207 q 110 236 126 223 q 80 266 93 249 q 58 304 67 283 q 47 353 50 326 q 49 423 44 389 q 70 485 54 456 q 114 534 86 513 q 185 569 142 556 q 200 573 191 571 q 218 575 209 575 q 238 573 228 575 q 256 562 248 570 l 290 529 l 320 562 q 339 574 328 571 q 359 576 349 576 q 379 573 370 575 q 396 569 389 571 q 465 535 439 557 q 505 483 491 512 q 522 419 518 454 q 526 349 526 385 l 526 -124 z "},"็":{"ha":0,"x_min":-480,"x_max":-34,"o":"m -314 835 q -343 830 -333 835 q -360 818 -354 825 q -367 803 -365 810 q -368 789 -368 795 q -367 779 -368 785 q -363 767 -366 773 q -355 756 -360 761 q -340 752 -349 752 q -323 758 -330 752 q -313 774 -315 763 q -296 798 -309 790 q -268 806 -284 806 q -238 798 -251 806 q -221 774 -225 791 q -213 758 -219 764 q -197 752 -207 752 q -176 770 -179 752 q -169 787 -174 780 q -157 798 -164 794 q -141 804 -150 802 q -123 805 -132 806 q -103 799 -112 804 q -87 788 -94 795 q -77 770 -80 781 q -75 746 -74 760 q -88 705 -78 722 q -112 678 -98 689 q -145 663 -126 668 q -182 659 -163 659 q -208 662 -196 659 q -231 672 -221 666 q -250 685 -242 677 q -265 701 -259 693 q -282 685 -272 692 q -303 671 -291 677 q -328 662 -315 665 q -354 659 -340 659 q -397 665 -378 659 q -429 681 -415 671 q -453 705 -444 691 q -469 733 -463 719 q -478 762 -475 747 q -480 789 -480 777 q -467 851 -480 825 q -432 894 -454 877 q -382 919 -410 911 q -323 928 -354 928 l -77 928 q -59 924 -67 928 q -45 914 -51 921 q -37 899 -40 908 q -34 881 -34 891 q -37 863 -34 871 q -45 848 -40 855 q -59 838 -51 842 q -77 835 -67 835 l -314 835 z "},"่":{"ha":0,"x_min":-185,"x_max":-53,"o":"m -53 957 q -58 932 -53 943 q -72 912 -63 921 q -93 899 -81 904 q -119 895 -105 895 q -144 899 -132 895 q -165 912 -156 904 q -180 932 -174 921 q -185 957 -185 943 l -185 1035 q -180 1060 -185 1048 q -165 1080 -174 1071 q -144 1093 -156 1088 q -119 1097 -132 1097 q -93 1093 -105 1097 q -72 1080 -81 1088 q -58 1060 -63 1071 q -53 1035 -53 1048 l -53 957 z "},"้":{"ha":0,"x_min":-345,"x_max":27,"o":"m -78 1059 q -65 1077 -74 1069 q -47 1088 -57 1084 q -27 1091 -38 1092 q -5 1086 -16 1091 q 12 1073 5 1081 q 23 1055 20 1065 q 27 1034 27 1045 q 21 1012 26 1022 q -9 968 10 988 q -55 933 -28 948 q -118 910 -82 918 q -196 901 -153 901 l -244 901 q -262 905 -254 901 q -275 915 -270 908 q -283 929 -280 921 q -286 947 -286 938 l -286 993 l -302 993 q -320 997 -312 993 q -333 1007 -328 1000 q -342 1021 -339 1013 q -345 1039 -345 1029 q -342 1057 -345 1048 q -333 1071 -339 1065 q -320 1081 -328 1078 q -302 1085 -312 1085 l -220 1085 q -203 1081 -211 1085 q -189 1071 -195 1078 q -181 1057 -184 1065 q -178 1039 -178 1048 l -178 1000 q -142 1006 -158 1001 q -114 1019 -126 1011 q -92 1037 -101 1027 q -78 1059 -83 1047 z "},"๊":{"ha":0,"x_min":-349,"x_max":76,"o":"m -21 1054 q -12 1071 -19 1064 q 2 1083 -6 1079 q 20 1089 11 1088 q 40 1088 30 1091 q 59 1080 51 1086 q 71 1066 66 1074 q 76 1048 75 1058 q 74 1029 76 1039 q 55 985 67 1006 q 29 945 44 963 q -3 916 15 928 q -39 900 -20 904 l -78 900 q -99 909 -91 900 q -109 930 -108 917 q -111 947 -110 939 q -115 961 -112 955 q -123 971 -118 968 q -134 975 -127 975 q -149 968 -145 975 q -154 950 -153 961 q -164 928 -156 936 q -185 921 -172 921 q -206 928 -198 921 q -215 950 -215 936 q -221 968 -216 961 q -237 975 -226 975 q -254 965 -249 975 q -260 937 -260 954 q -274 904 -261 915 q -305 893 -287 893 q -323 897 -315 893 q -337 906 -331 900 q -346 920 -342 912 q -349 937 -349 928 q -340 994 -349 970 q -318 1033 -332 1018 q -286 1057 -304 1049 q -250 1064 -268 1064 q -215 1055 -231 1064 q -186 1031 -199 1046 q -157 1055 -174 1046 q -119 1064 -140 1064 q -95 1060 -107 1064 q -72 1049 -83 1057 q -54 1031 -62 1042 q -42 1007 -46 1021 q -30 1028 -36 1016 q -21 1054 -25 1040 z "},"๋":{"ha":0,"x_min":-276,"x_max":37,"o":"m -183 1093 q -178 1117 -183 1106 q -165 1136 -173 1128 q -144 1149 -156 1144 q -119 1153 -133 1153 q -95 1149 -106 1153 q -74 1136 -83 1144 q -61 1117 -66 1128 q -56 1093 -56 1106 l -56 1072 l -9 1072 q 9 1068 1 1072 q 24 1058 18 1064 q 33 1042 30 1051 q 37 1023 37 1033 q 33 1004 37 1013 q 24 988 30 995 q 9 977 18 981 q -9 974 1 974 l -56 974 l -56 953 q -61 929 -56 940 q -74 910 -66 918 q -95 897 -83 902 q -120 892 -106 892 q -145 897 -133 892 q -165 910 -156 902 q -179 929 -174 918 q -183 953 -183 940 l -183 974 l -230 974 q -248 977 -240 974 q -263 988 -257 981 q -272 1004 -269 995 q -276 1023 -276 1013 q -272 1042 -276 1033 q -263 1058 -269 1051 q -248 1068 -257 1064 q -230 1072 -240 1072 l -183 1072 l -183 1093 z "},"์":{"ha":0,"x_min":-256,"x_max":-14,"o":"m -75 1037 q -35 1028 -52 1038 q -16 996 -19 1017 q -16 976 -14 986 q -23 958 -18 966 q -37 944 -29 949 q -56 937 -45 938 q -85 930 -73 936 q -106 917 -98 925 q -121 900 -115 910 q -130 879 -126 890 q -142 857 -133 866 q -162 843 -151 848 q -187 839 -174 839 q -214 843 -201 838 q -237 857 -228 847 q -252 877 -247 866 q -256 902 -256 889 q -250 928 -256 916 q -223 969 -239 950 q -186 1002 -208 988 q -136 1025 -164 1016 q -75 1037 -109 1034 z "},"ํ":{"ha":0,"x_min":-246,"x_max":-8,"o":"m -171 754 q -167 738 -171 746 q -158 724 -164 730 q -144 715 -152 718 q -128 711 -136 711 q -111 715 -119 711 q -97 724 -103 718 q -87 738 -91 730 q -83 754 -83 746 q -87 771 -83 763 q -97 785 -91 779 q -111 795 -103 791 q -128 799 -119 799 q -144 795 -136 799 q -158 785 -152 791 q -167 771 -164 779 q -171 754 -171 763 m -246 754 q -237 801 -246 779 q -211 839 -227 823 q -174 864 -195 855 q -128 873 -152 873 q -82 864 -104 873 q -44 839 -60 855 q -18 801 -28 823 q -8 754 -8 779 q -18 708 -8 730 q -44 671 -28 687 q -82 645 -60 655 q -128 636 -104 636 q -174 645 -152 636 q -211 671 -195 655 q -237 708 -227 687 q -246 754 -246 730 z "},"๎":{"ha":0,"x_min":-295,"x_max":-2,"o":"m -47 803 q -68 798 -60 801 q -82 789 -77 794 q -88 775 -86 783 q -90 757 -90 767 q -93 740 -90 747 q -102 731 -97 734 q -113 726 -107 727 q -126 725 -120 725 q -161 715 -150 725 q -178 685 -173 704 q -188 664 -181 673 q -204 650 -194 655 q -225 643 -213 644 q -251 644 -237 641 q -274 654 -264 647 q -288 671 -283 662 q -294 693 -293 681 q -292 717 -295 705 q -259 780 -284 754 q -193 817 -235 806 q -177 848 -188 833 q -150 875 -166 863 q -112 894 -134 887 q -63 904 -90 902 q -23 895 -39 906 q -4 862 -7 883 q -5 841 -2 851 q -13 823 -7 831 q -27 809 -19 814 q -47 803 -36 804 z "},"๏":{"ha":688,"x_min":44,"x_max":643,"o":"m 44 283 q 55 363 44 325 q 85 434 66 401 q 133 495 105 467 q 194 541 160 522 q 266 571 227 561 q 346 582 304 582 q 425 571 387 582 q 496 541 463 561 q 556 495 529 522 q 602 434 583 467 q 632 363 622 401 q 643 283 643 325 q 632 204 643 242 q 602 133 622 166 q 556 72 583 99 q 496 25 529 45 q 425 -5 463 6 q 346 -15 387 -15 q 266 -5 304 -15 q 194 25 227 6 q 133 72 160 45 q 85 133 105 99 q 55 204 66 166 q 44 283 44 242 m 186 286 q 199 347 186 318 q 233 397 212 375 q 284 431 255 418 q 346 443 313 443 q 406 431 378 443 q 456 397 434 418 q 489 347 477 375 q 502 286 502 318 q 489 224 502 253 q 456 174 477 196 q 406 140 434 153 q 346 128 378 128 q 284 140 313 128 q 233 174 255 153 q 199 224 212 196 q 186 286 186 253 m 139 286 q 146 232 139 258 q 167 182 154 205 q 199 140 180 159 q 241 108 218 121 q 291 86 264 94 q 346 79 317 79 q 400 86 374 79 q 448 108 426 94 q 490 140 471 121 q 522 182 508 159 q 543 232 535 205 q 550 286 550 258 q 534 366 550 328 q 490 430 517 403 q 425 474 462 458 q 346 490 388 490 q 265 474 302 490 q 199 430 227 458 q 155 366 171 403 q 139 286 139 328 m 271 286 q 277 257 271 271 q 292 233 282 243 q 316 217 302 223 q 346 211 330 211 q 373 217 360 211 q 396 233 386 223 q 411 257 406 243 q 417 286 417 271 q 411 314 417 301 q 396 337 406 327 q 373 352 386 347 q 346 358 360 358 q 316 352 330 358 q 292 337 302 347 q 277 314 282 327 q 271 286 271 301 z "},"๐":{"ha":654,"x_min":53,"x_max":602,"o":"m 602 261 q 592 169 602 210 q 564 98 582 129 q 521 47 546 68 q 465 12 496 25 q 400 -7 435 -1 q 328 -13 365 -13 q 255 -7 290 -13 q 189 13 220 -1 q 134 47 159 26 q 91 99 109 68 q 63 169 73 129 q 53 261 53 210 q 72 361 53 316 q 126 437 91 406 q 213 487 162 469 q 328 504 264 504 q 442 487 391 504 q 528 437 493 469 q 583 361 564 406 q 602 261 602 316 m 465 243 q 454 309 465 282 q 424 353 443 336 q 380 378 405 370 q 328 386 355 386 q 275 378 300 386 q 231 353 250 370 q 200 309 212 336 q 189 243 189 282 q 199 188 189 213 q 227 144 209 163 q 271 116 245 126 q 328 105 297 105 q 384 116 359 105 q 428 144 410 126 q 455 188 446 163 q 465 243 465 213 z "},"๑":{"ha":646,"x_min":28,"x_max":593,"o":"m 118 142 q 157 120 136 129 q 201 108 179 112 q 245 103 223 104 q 288 101 267 101 q 357 112 327 101 q 408 143 388 123 q 440 193 429 164 q 451 261 451 223 q 443 313 451 290 q 418 354 435 337 q 376 381 401 371 q 317 390 351 390 q 268 386 290 390 q 229 372 245 381 q 203 350 213 363 q 194 318 194 336 q 199 295 194 305 q 215 277 204 284 q 243 264 226 269 q 285 260 260 260 q 310 258 299 261 q 329 249 321 255 q 340 233 336 242 q 345 213 345 223 q 338 179 347 192 q 315 160 329 167 q 285 151 301 153 q 253 149 268 149 q 175 160 212 149 q 112 193 139 172 q 70 243 85 214 q 54 310 54 273 q 65 373 54 345 q 93 423 75 401 q 136 460 111 445 q 190 486 161 476 q 251 501 219 496 q 315 506 283 506 q 424 492 373 506 q 512 449 474 478 q 571 374 550 420 q 593 262 593 328 q 572 151 593 201 q 513 65 552 101 q 417 9 473 28 q 290 -11 361 -11 q 235 -9 264 -11 q 177 -2 207 -8 q 116 17 147 5 q 53 50 85 29 q 37 66 43 57 q 30 87 31 76 q 30 108 28 97 q 39 129 32 119 q 55 144 46 138 q 75 152 65 150 q 97 151 86 154 q 118 142 108 149 z "},"๒":{"ha":749,"x_min":8,"x_max":697,"o":"m 389 280 q 412 277 402 280 q 430 266 423 273 q 441 249 437 258 q 445 227 445 239 q 441 205 445 216 q 430 187 437 195 q 413 174 423 179 q 391 170 403 170 l 379 170 q 320 178 344 170 q 279 201 295 186 q 255 233 263 215 q 242 270 246 251 q 237 308 238 289 q 237 342 237 327 q 248 394 239 369 q 273 438 257 418 q 312 472 289 457 q 366 496 336 487 q 376 498 370 497 q 389 499 382 499 q 404 495 396 498 q 420 486 412 492 l 458 453 l 500 486 q 517 496 509 493 q 533 499 526 498 q 546 498 540 499 q 556 496 552 497 q 613 474 587 488 q 657 440 639 459 q 687 396 676 420 q 697 346 697 373 l 697 217 q 687 146 697 178 q 660 89 678 114 q 618 46 643 64 q 565 15 594 27 q 502 -3 535 3 q 433 -8 469 -8 l 358 -8 q 233 8 288 -8 q 140 56 178 25 q 82 131 102 87 q 62 227 62 174 l 62 399 q 58 429 62 417 q 42 446 54 441 q 24 459 32 451 q 13 477 17 467 q 8 497 9 486 q 11 519 8 508 q 22 542 14 532 q 41 558 31 552 q 65 566 52 564 q 91 565 78 568 q 136 547 116 559 q 171 516 156 534 q 192 472 185 497 q 200 415 200 447 l 200 217 q 213 176 200 195 q 252 142 227 157 q 312 119 277 127 q 393 110 348 110 q 466 118 435 110 q 518 138 497 125 q 549 168 539 151 q 560 201 560 184 l 560 343 q 555 367 560 357 q 542 383 550 377 l 458 317 l 382 382 q 372 368 376 377 q 368 347 368 359 l 368 327 q 368 308 368 316 q 370 293 368 299 q 376 284 372 287 q 389 280 380 280 z "},"๓":{"ha":653,"x_min":53,"x_max":602,"o":"m 602 59 q 596 33 602 45 q 581 12 591 21 q 559 -2 572 3 q 532 -7 546 -7 q 505 -2 518 -7 q 483 12 492 3 q 468 33 473 21 q 463 59 463 45 l 463 315 q 459 340 463 328 q 450 360 456 351 q 436 375 444 370 q 418 382 428 381 l 327 308 l 243 380 q 225 371 234 378 q 209 351 216 364 q 196 319 201 338 q 192 271 192 299 l 192 229 q 192 178 192 200 q 199 141 193 155 q 220 119 205 126 q 260 113 234 112 q 283 109 273 113 q 301 96 294 104 q 313 78 309 89 q 317 56 317 67 q 313 35 317 45 q 303 18 309 25 q 287 5 296 11 q 267 -1 278 0 q 186 -2 220 -8 q 128 18 152 3 q 89 56 104 34 q 66 107 75 79 q 56 166 58 135 q 53 228 53 197 l 53 262 q 66 358 53 317 q 102 428 78 399 q 161 474 126 457 q 241 500 196 492 q 249 501 244 501 q 261 500 255 502 q 276 496 268 499 q 292 485 283 492 l 330 453 l 370 485 q 386 496 378 492 q 400 500 394 499 q 412 501 407 502 q 420 500 417 500 q 501 476 467 493 q 558 433 535 458 q 591 375 580 407 q 602 308 602 343 l 602 59 z "},"๔":{"ha":653,"x_min":53,"x_max":626,"o":"m 557 119 q 580 115 570 119 q 598 102 590 110 q 610 83 605 94 q 614 60 614 72 q 610 37 614 47 q 598 18 605 26 q 580 5 590 9 q 557 0 570 0 l 292 0 q 208 10 244 0 q 146 36 172 19 q 102 74 119 53 q 73 121 84 96 q 57 170 62 145 q 53 219 53 196 l 53 272 q 72 372 53 330 q 127 441 92 414 q 214 482 163 469 q 328 496 265 496 l 447 496 q 475 505 466 496 q 489 529 484 514 q 502 554 493 544 q 523 570 511 564 q 549 576 535 575 q 579 571 564 576 q 603 557 593 567 q 619 535 613 547 q 625 508 625 523 q 622 480 626 494 q 601 439 614 458 q 568 406 588 420 q 519 383 547 391 q 451 375 490 375 l 318 375 q 266 369 290 375 q 226 352 243 363 q 201 325 210 341 q 192 286 192 308 l 192 223 q 198 183 192 201 q 217 150 204 164 q 251 128 230 136 q 300 119 271 120 q 283 149 290 133 q 276 183 276 164 q 278 202 276 191 q 283 226 279 213 q 296 251 287 239 q 319 275 304 264 q 355 294 334 286 q 408 305 377 302 q 430 303 419 306 q 449 295 441 301 q 464 280 458 289 q 473 257 470 270 q 473 235 475 245 q 464 215 470 224 q 448 201 457 207 q 426 192 438 195 q 413 183 416 190 q 410 170 410 177 q 413 149 410 159 q 424 133 417 140 q 440 123 431 127 q 461 119 450 119 l 557 119 z "},"๕":{"ha":653,"x_min":53,"x_max":626,"o":"m 297 492 q 300 478 297 485 q 308 466 303 471 q 320 458 313 461 q 335 455 327 455 q 349 458 342 455 q 361 466 356 461 q 369 478 367 471 q 372 492 372 485 q 369 506 372 499 q 361 518 367 513 q 349 526 356 523 q 335 529 342 529 q 320 526 327 529 q 308 518 313 523 q 300 506 303 513 q 297 492 297 499 m 318 375 q 266 369 290 375 q 226 352 243 363 q 201 325 210 341 q 192 286 192 308 l 192 223 q 198 183 192 201 q 217 150 204 164 q 251 128 230 136 q 300 119 271 120 q 283 149 290 133 q 276 183 276 164 q 278 202 276 191 q 283 226 279 213 q 296 251 287 239 q 319 275 304 264 q 355 294 334 286 q 408 305 377 302 q 430 303 419 306 q 449 295 441 301 q 464 280 458 289 q 473 257 470 270 q 473 235 475 245 q 464 215 470 224 q 448 201 457 207 q 426 192 438 195 q 413 183 416 190 q 410 170 410 177 q 413 149 410 159 q 424 133 417 140 q 440 123 431 127 q 461 119 450 119 l 557 119 q 580 115 570 119 q 598 102 590 110 q 610 83 605 94 q 614 60 614 72 q 610 37 614 47 q 598 18 605 26 q 580 5 590 9 q 557 0 570 0 l 292 0 q 208 10 244 0 q 146 36 172 19 q 102 74 119 53 q 73 121 84 96 q 57 170 62 145 q 53 219 53 196 l 53 272 q 64 351 53 316 q 97 412 76 386 q 150 456 119 438 q 219 483 180 473 l 219 490 q 229 533 219 513 q 253 568 238 553 q 290 593 269 584 q 335 602 311 602 q 380 593 359 602 q 416 570 401 585 q 441 536 432 555 q 451 496 450 517 q 476 506 468 497 q 489 529 485 515 q 503 554 493 544 q 525 570 512 564 q 551 576 537 575 q 579 571 566 576 q 603 557 593 566 q 619 535 613 547 q 625 508 625 522 q 622 480 626 494 q 601 439 614 458 q 568 406 588 420 q 519 383 547 391 q 451 375 490 375 l 318 375 z "},"๖":{"ha":664,"x_min":34,"x_max":611,"o":"m 280 200 q 258 197 267 200 q 243 190 249 195 q 237 178 238 185 q 235 164 235 172 q 242 143 235 153 q 262 127 249 134 q 294 116 276 120 q 336 111 313 112 q 386 118 362 111 q 429 140 411 125 q 460 178 448 155 q 471 229 471 200 l 471 261 q 441 354 471 325 q 351 383 412 383 q 269 376 310 383 q 182 347 227 368 q 156 338 169 340 q 132 339 144 336 q 111 349 121 342 q 94 367 101 356 l 45 442 q 36 466 38 453 q 36 490 34 478 q 46 513 39 502 q 63 530 53 523 q 87 540 75 537 q 111 539 99 542 q 134 530 123 537 q 152 512 145 523 l 182 467 q 257 492 216 484 q 346 503 299 501 q 436 496 397 504 q 506 471 476 487 q 555 432 535 455 q 588 383 576 410 q 606 325 601 356 q 611 264 611 295 l 611 229 q 600 167 609 197 q 575 110 591 137 q 537 61 560 83 q 484 23 514 39 q 415 0 454 8 q 331 -7 377 -8 q 235 8 278 -5 q 162 45 193 22 q 114 99 131 67 q 97 167 97 130 q 110 231 97 204 q 146 277 123 259 q 203 303 170 294 q 276 311 236 311 q 298 307 288 311 q 316 295 308 302 q 328 277 323 288 q 332 256 332 267 q 329 234 332 244 q 318 216 325 224 q 301 204 311 209 q 280 200 292 200 z "},"๗":{"ha":787,"x_min":53,"x_max":791,"o":"m 730 254 q 712 156 730 202 q 658 74 693 110 q 573 18 623 39 q 458 -4 522 -3 q 433 0 445 -5 q 412 14 421 5 q 397 35 403 23 q 392 60 392 47 q 401 93 392 78 q 416 127 411 109 q 424 161 421 144 q 426 195 426 179 q 426 227 426 212 l 426 276 q 424 314 426 298 q 417 343 421 331 q 407 364 413 356 q 394 378 401 373 l 311 311 l 231 380 q 216 366 223 375 q 204 344 209 357 q 195 313 198 331 q 192 274 192 296 l 192 229 q 192 178 192 200 q 199 141 193 155 q 220 119 205 126 q 260 113 234 112 q 283 109 273 113 q 301 96 294 104 q 313 78 309 89 q 317 56 317 67 q 313 35 317 45 q 303 18 309 25 q 287 5 296 11 q 267 -1 278 0 q 186 -2 220 -8 q 128 18 152 3 q 89 56 104 34 q 66 107 75 79 q 56 166 58 135 q 53 228 53 197 l 53 264 q 95 419 53 361 q 217 498 137 477 q 229 500 222 499 q 244 500 236 501 q 261 496 253 499 q 278 486 270 493 l 314 455 l 354 487 q 370 496 363 493 q 383 500 377 499 q 394 500 389 500 q 402 498 399 499 q 479 468 449 489 q 526 419 509 448 q 550 351 544 389 q 557 268 557 313 l 557 228 q 553 180 556 206 q 542 126 551 154 q 566 144 555 132 q 584 172 576 156 q 595 208 591 189 q 598 246 598 227 l 598 417 q 606 473 598 448 q 628 517 614 498 q 662 548 642 536 q 708 566 683 560 q 734 567 721 569 q 757 559 746 565 q 776 544 768 553 q 788 520 784 534 q 789 499 791 510 q 783 478 788 488 q 770 460 778 468 q 750 448 761 452 q 734 430 739 442 q 730 400 730 418 l 730 254 z "},"๘":{"ha":639,"x_min":53,"x_max":607,"o":"m 470 531 q 483 556 474 545 q 504 572 492 566 q 530 578 516 577 q 560 573 545 578 q 584 559 574 568 q 600 537 594 549 q 606 510 605 524 q 602 482 607 496 q 582 439 595 459 q 548 405 569 419 q 499 381 528 390 q 432 372 471 372 l 297 372 q 249 365 269 372 q 216 345 229 357 q 198 318 203 333 q 192 286 192 302 l 192 188 q 196 164 192 176 q 206 144 200 153 q 222 129 213 135 q 239 119 230 122 l 323 190 l 413 118 q 429 123 421 119 q 442 133 436 126 q 451 151 448 140 q 454 179 454 162 q 453 193 454 186 q 450 206 453 200 q 443 216 448 212 q 431 219 438 219 q 408 224 417 219 q 391 236 398 229 q 382 253 385 243 q 379 273 379 263 q 383 297 379 286 q 395 315 387 308 q 414 328 403 323 q 439 332 425 332 q 495 326 471 332 q 535 308 518 319 q 563 282 552 297 q 581 250 574 267 q 589 215 587 233 q 592 179 592 197 q 583 115 592 144 q 557 62 574 85 q 514 23 540 39 q 454 0 488 7 q 436 -4 446 -2 q 414 -6 426 -6 q 391 -4 403 -7 q 369 7 379 -1 l 325 43 l 285 8 q 266 -3 277 0 q 246 -5 256 -5 q 227 -4 236 -5 q 211 0 217 -2 q 142 28 172 10 q 93 71 113 47 q 63 126 73 96 q 53 188 53 155 l 53 271 q 69 365 53 323 q 117 436 85 407 q 196 480 149 465 q 307 496 244 496 l 428 496 q 456 505 446 496 q 470 531 465 515 z "},"๙":{"ha":660,"x_min":53,"x_max":639,"o":"m 317 325 q 286 368 302 352 q 247 383 269 383 q 225 378 235 383 q 208 359 215 372 q 196 322 200 345 q 192 265 192 300 l 192 229 q 193 177 192 200 q 203 140 195 155 q 225 119 211 125 q 267 116 240 113 q 290 113 279 117 q 308 101 300 109 q 320 82 316 93 q 324 59 324 71 q 320 38 324 48 q 309 20 316 28 q 294 6 303 12 q 274 -1 284 0 q 192 -2 227 -8 q 133 18 157 3 q 93 56 108 34 q 68 107 77 79 q 56 166 59 135 q 53 228 53 197 l 53 261 q 63 366 53 320 q 95 441 73 411 q 156 487 118 472 q 249 503 193 503 q 270 503 258 503 q 294 502 282 503 q 317 498 306 500 q 337 492 328 496 q 360 479 350 487 q 379 461 371 471 l 404 489 q 416 498 408 493 q 435 503 423 503 l 476 503 q 503 511 494 503 q 514 536 511 520 q 525 559 517 550 q 544 574 533 569 q 569 579 555 579 q 597 574 583 579 q 618 562 609 570 q 632 543 627 554 q 638 519 637 532 q 635 492 639 506 q 617 453 629 471 q 587 422 606 435 q 540 402 568 409 q 471 394 511 394 q 461 392 464 394 l 440 371 l 579 88 q 586 63 585 76 q 582 38 587 50 q 569 16 578 26 q 549 0 561 6 q 523 -6 536 -6 q 498 -3 510 -7 q 477 10 487 1 q 461 31 467 19 l 317 325 z "},"๚":{"ha":826,"x_min":54,"x_max":772,"o":"m 421 235 q 363 213 395 221 q 296 205 331 205 q 191 219 236 205 q 115 258 145 233 q 70 319 85 283 q 54 399 54 355 q 63 456 54 431 q 86 500 71 481 q 120 532 100 519 q 162 554 139 546 q 208 566 184 562 q 254 569 231 569 l 309 569 q 331 565 321 569 q 348 552 341 560 q 359 534 355 544 q 363 511 363 523 q 359 488 363 499 q 348 470 355 478 q 331 457 341 462 q 309 453 321 453 l 254 453 q 212 438 226 453 q 199 397 199 422 q 203 372 199 385 q 218 349 208 359 q 247 333 229 339 q 292 327 264 327 q 387 348 354 327 q 421 417 421 370 l 421 509 q 426 536 421 524 q 441 557 432 548 q 464 571 451 566 q 491 576 476 576 q 518 571 506 576 q 541 557 531 566 q 556 536 550 548 q 561 509 561 524 l 561 60 q 556 33 561 45 q 541 12 550 21 q 518 -2 531 3 q 491 -7 506 -7 q 464 -2 476 -7 q 441 12 451 3 q 426 33 432 21 q 421 60 421 45 l 421 235 m 631 509 q 637 536 631 524 q 652 557 643 548 q 674 571 662 566 q 702 576 687 576 q 729 571 716 576 q 751 557 742 566 q 766 536 761 548 q 772 509 772 524 l 772 60 q 766 33 772 45 q 751 12 761 21 q 729 -2 742 3 q 702 -7 716 -7 q 674 -2 687 -7 q 652 12 662 3 q 637 33 643 21 q 631 60 631 45 l 631 509 z "},"๛":{"ha":1322,"x_min":56,"x_max":1262,"o":"m 580 419 q 586 444 581 432 q 600 465 591 456 q 621 479 609 474 q 647 484 633 484 q 674 477 661 483 q 696 461 687 471 q 739 409 719 434 q 772 362 758 384 q 801 406 785 382 q 832 453 817 430 q 843 463 837 459 q 857 466 850 466 q 870 463 864 466 q 881 453 877 459 q 915 404 899 427 q 942 362 931 380 q 960 389 951 376 q 978 413 969 402 l 1195 413 q 1221 407 1208 413 q 1242 393 1233 402 q 1257 371 1252 384 q 1262 345 1262 359 q 1257 319 1262 331 q 1242 297 1252 307 q 1221 283 1233 288 q 1195 278 1208 278 l 1029 278 q 1015 257 1023 269 q 999 232 1007 246 q 979 200 990 218 q 958 161 969 183 q 949 151 955 155 q 937 148 943 148 q 926 152 931 149 q 917 162 920 155 q 885 222 900 195 q 857 270 870 248 q 829 217 844 248 q 797 145 814 186 q 785 128 792 134 q 771 122 779 122 q 755 128 763 122 q 743 146 748 134 q 714 210 728 182 q 690 256 701 237 q 665 179 682 215 q 625 113 648 143 q 571 58 601 83 q 507 17 542 34 q 436 -9 473 0 q 358 -18 398 -18 q 268 -5 310 -18 q 193 29 227 7 q 134 81 160 51 q 91 146 108 111 q 65 218 74 180 q 56 294 56 256 q 63 363 56 328 q 85 430 70 398 q 121 492 99 463 q 171 542 142 520 q 235 575 199 563 q 313 588 270 588 q 402 572 363 588 q 467 529 440 556 q 509 467 494 503 q 529 392 525 432 q 527 366 531 379 q 517 344 524 354 q 498 327 509 334 q 474 318 487 320 q 448 320 461 316 q 426 331 436 323 q 410 349 416 338 q 401 373 403 360 q 375 432 394 412 q 322 454 355 451 q 265 440 289 453 q 225 404 241 427 q 202 351 210 381 q 194 288 194 321 q 207 224 194 254 q 241 170 219 193 q 294 132 263 146 q 362 118 325 118 q 428 129 398 118 q 481 161 457 141 q 523 209 505 181 q 553 270 541 237 q 572 341 565 304 q 580 419 579 379 z "},"":{"ha":0,"x_min":-256,"x_max":-53,"o":"m -53 -436 q -58 -461 -53 -450 q -72 -480 -63 -472 q -92 -493 -80 -489 q -117 -498 -104 -498 q -142 -493 -131 -498 q -163 -480 -154 -489 q -177 -461 -172 -472 q -182 -436 -182 -450 l -182 -347 l -209 -347 q -228 -343 -219 -347 q -243 -332 -236 -339 q -252 -316 -249 -325 q -256 -296 -256 -307 q -252 -277 -256 -286 q -243 -261 -249 -268 q -228 -250 -236 -254 q -209 -246 -219 -246 l -100 -246 q -81 -250 -90 -246 q -66 -261 -73 -254 q -56 -277 -60 -268 q -53 -296 -53 -286 l -53 -436 z "},"":{"ha":0,"x_min":-445,"x_max":-53,"o":"m -182 -303 q -177 -278 -182 -290 q -163 -258 -172 -266 q -142 -244 -154 -249 q -117 -239 -131 -239 q -92 -244 -104 -239 q -72 -258 -80 -249 q -58 -278 -63 -266 q -53 -303 -53 -290 l -53 -335 q -62 -395 -53 -367 q -90 -444 -70 -423 q -141 -478 -109 -466 q -218 -490 -172 -490 q -289 -480 -259 -490 q -339 -453 -319 -470 q -370 -410 -359 -435 q -383 -355 -381 -385 l -394 -355 q -414 -351 -405 -355 q -431 -339 -424 -347 q -441 -322 -437 -332 q -445 -300 -445 -312 q -441 -279 -445 -289 q -431 -262 -437 -269 q -414 -250 -424 -254 q -394 -246 -405 -246 l -306 -246 q -285 -250 -294 -246 q -269 -262 -275 -254 q -258 -279 -262 -269 q -254 -300 -254 -289 l -254 -335 q -246 -368 -254 -357 q -218 -379 -237 -379 q -182 -335 -182 -379 l -182 -303 z "},"":{"ha":0,"x_min":-214,"x_max":-38,"o":"m -214 -327 q -207 -292 -214 -308 q -188 -264 -200 -276 q -160 -244 -176 -252 q -125 -237 -143 -237 q -92 -244 -107 -237 q -64 -264 -76 -252 q -45 -292 -52 -276 q -38 -327 -38 -308 q -45 -360 -38 -344 q -64 -388 -52 -376 q -92 -407 -76 -400 q -125 -414 -107 -414 q -160 -407 -143 -414 q -188 -388 -176 -400 q -207 -360 -200 -376 q -214 -327 -214 -344 z "},"":{"ha":925,"x_min":19,"x_max":872,"o":"m 61 307 q 57 332 61 319 q 43 358 54 345 q 28 377 34 369 q 21 393 23 386 q 21 409 19 400 q 28 429 23 417 q 63 487 41 459 q 117 536 85 514 q 192 569 149 557 q 289 582 234 582 q 351 577 323 582 q 404 563 380 572 q 448 543 429 555 q 483 518 468 532 q 519 544 500 533 q 559 564 538 556 q 601 577 579 573 q 645 582 623 582 q 731 570 690 582 q 804 534 772 558 q 853 473 835 510 q 872 385 872 435 l 872 -124 q 867 -151 872 -139 q 851 -172 861 -163 q 829 -186 842 -181 q 801 -192 816 -192 q 774 -186 787 -192 q 751 -172 761 -181 q 736 -151 742 -163 q 730 -124 730 -139 l 730 367 q 724 409 730 391 q 705 438 717 426 q 678 454 693 449 q 645 460 662 460 q 614 454 629 460 q 587 438 599 449 q 568 410 575 427 q 558 371 560 393 l 558 340 l 558 -124 q 553 -151 558 -139 q 537 -172 547 -163 q 515 -186 528 -181 q 487 -192 502 -192 q 459 -186 472 -192 q 437 -172 446 -181 q 421 -151 427 -163 q 415 -124 415 -139 l 415 350 q 409 389 415 370 q 388 424 403 409 q 349 449 373 440 q 289 460 325 459 q 240 455 261 460 q 204 441 219 450 q 180 422 189 433 q 167 403 170 412 q 193 362 184 387 q 201 306 201 337 l 201 110 l 216 110 q 237 105 227 110 q 253 94 246 101 q 264 76 260 86 q 268 55 268 66 q 264 34 268 44 q 253 16 260 24 q 237 4 246 9 q 216 0 227 0 l 113 0 q 92 4 101 0 q 75 16 82 9 q 65 34 68 24 q 61 55 61 44 l 61 307 z "},"":{"ha":920,"x_min":20,"x_max":867,"o":"m 85 307 q 81 332 85 319 q 67 358 77 345 q 52 377 58 369 q 45 393 46 386 q 45 409 43 400 q 52 429 47 417 q 87 487 65 459 q 141 536 109 514 q 215 569 173 557 q 313 582 258 582 q 424 567 377 582 q 503 526 471 551 q 572 568 533 554 q 653 582 611 582 q 737 570 698 582 q 805 534 776 558 q 850 473 834 510 q 867 385 867 435 l 867 -124 q 861 -151 867 -139 q 846 -172 856 -163 q 823 -186 836 -181 q 796 -192 810 -192 q 768 -186 781 -192 q 746 -172 755 -181 q 731 -151 736 -163 q 725 -124 725 -139 l 725 367 q 706 438 725 416 q 653 460 688 460 q 603 439 622 460 q 579 378 585 419 q 581 359 580 368 q 582 340 582 350 l 582 -124 q 576 -151 582 -139 q 561 -172 570 -163 q 538 -186 551 -181 q 510 -192 525 -192 q 483 -186 496 -192 q 460 -172 470 -181 q 445 -151 450 -163 q 439 -124 439 -139 l 439 350 q 429 396 439 375 q 402 430 419 416 q 362 451 385 444 q 313 460 339 459 q 264 455 285 460 q 228 441 243 450 q 203 422 212 433 q 190 403 194 412 q 206 386 199 395 q 217 366 212 377 q 223 340 221 355 q 225 306 225 325 l 225 55 q 221 34 225 44 q 211 16 218 24 q 194 4 204 9 q 174 0 185 0 l 72 0 q 51 4 61 0 q 35 16 42 9 q 24 34 28 24 q 20 55 20 44 q 24 76 20 66 q 35 94 28 86 q 51 105 42 101 q 72 110 61 110 l 85 110 l 85 307 z "},"":{"ha":744,"x_min":30,"x_max":742,"o":"m 610 625 q 635 653 618 642 q 673 664 652 664 q 700 659 687 664 q 722 644 712 653 q 737 622 731 634 q 742 595 742 609 q 735 566 742 579 q 718 542 729 552 q 694 523 707 531 q 667 508 680 515 q 700 448 691 480 q 699 379 709 415 l 599 42 q 574 7 592 20 q 531 -7 555 -7 q 489 7 506 -7 q 463 42 471 21 l 374 288 l 287 42 q 262 7 280 20 q 219 -7 243 -7 q 196 -3 207 -7 q 176 7 184 0 q 161 22 167 13 q 151 42 154 31 l 34 491 q 33 519 30 506 q 42 544 35 533 q 61 563 50 555 q 87 574 73 571 q 117 576 102 578 q 143 567 131 574 q 164 549 156 560 q 176 523 173 538 l 232 228 l 311 442 q 321 461 315 452 q 335 476 327 469 q 353 485 343 482 q 374 489 363 489 q 413 476 397 489 q 437 443 429 463 l 521 219 l 555 375 q 561 408 559 394 q 561 434 563 423 q 552 453 559 446 q 530 465 544 461 q 514 473 521 467 q 500 485 506 478 q 492 501 495 492 q 489 519 489 510 q 492 539 489 530 q 502 556 496 549 q 517 569 508 564 q 535 576 526 574 q 581 592 563 581 q 610 625 600 604 z "},"◌":{"ha":633,"x_min":147,"x_max":486,"o":"m 193 154 l 215 208 q 231 187 223 197 q 251 171 240 178 l 193 154 m 317 442 l 342 389 q 314 391 328 392 q 289 388 299 391 l 317 442 m 317 103 l 292 154 q 315 151 304 151 q 340 156 326 151 l 317 103 m 486 272 l 433 249 q 438 272 437 260 q 435 299 438 285 l 486 272 m 147 274 l 201 300 q 199 274 199 288 q 201 247 198 261 l 147 274 m 203 393 l 258 374 q 233 358 244 366 q 217 339 223 349 l 203 393 m 432 153 l 380 170 q 401 185 392 177 q 417 204 409 194 l 432 153 m 440 393 l 417 337 q 399 358 409 349 q 379 375 390 368 l 440 393 z "},"×":{"ha":547,"x_min":51,"x_max":496,"o":"m 478 141 q 491 124 487 133 q 496 104 496 115 q 492 81 496 92 q 479 62 487 70 q 460 50 471 55 q 436 46 449 46 q 417 52 426 46 q 401 64 408 57 l 274 190 l 146 64 q 130 52 139 57 q 111 46 121 46 q 87 50 98 46 q 68 62 77 55 q 56 81 60 70 q 51 104 51 92 q 56 124 51 115 q 69 141 61 133 l 195 269 l 69 396 q 56 413 61 404 q 51 433 51 422 q 56 456 51 446 q 68 475 60 467 q 87 486 77 482 q 111 491 98 491 q 130 485 121 491 q 146 473 139 480 l 274 347 l 401 473 q 417 485 408 480 q 436 491 426 491 q 460 486 449 491 q 479 475 471 482 q 492 456 487 467 q 496 433 496 446 q 491 413 496 422 q 478 396 487 404 l 352 269 l 478 141 z "},"​":{"ha":0,"x_min":0,"x_max":0,"o":""},"ญ":{"ha":904,"x_min":25,"x_max":851,"o":"m 67 306 q 63 331 67 318 q 49 358 59 345 q 34 377 40 369 q 27 393 28 386 q 27 409 25 400 q 34 429 29 417 q 68 487 47 459 q 119 536 89 514 q 191 569 150 557 q 285 582 232 582 q 373 573 334 582 q 439 547 411 563 q 487 507 468 530 q 519 458 507 485 q 536 401 531 431 q 542 340 542 371 l 542 251 q 557 182 542 206 q 602 157 573 157 q 647 170 627 157 q 680 204 667 182 q 701 252 694 225 q 708 310 708 280 l 708 505 q 714 532 708 519 q 729 553 720 544 q 752 568 739 563 q 780 573 765 573 q 808 568 794 573 q 830 553 821 563 q 846 532 840 544 q 851 505 851 519 l 851 84 q 837 -25 851 26 q 793 -114 823 -76 q 715 -173 763 -152 q 603 -195 668 -195 q 542 -188 572 -195 q 486 -168 512 -181 q 439 -133 460 -154 q 404 -84 418 -112 q 396 -56 396 -69 q 399 -32 395 -43 q 412 -13 404 -21 q 434 2 421 -4 q 460 9 447 8 q 485 5 473 9 q 507 -8 497 1 q 524 -28 517 -16 q 539 -50 530 -41 q 558 -66 548 -59 q 580 -75 569 -72 q 602 -79 591 -79 q 654 -68 633 -79 q 687 -42 675 -58 q 706 -5 700 -25 q 711 35 711 15 l 711 90 q 656 57 687 69 q 589 44 626 44 q 498 59 535 44 q 440 101 462 73 q 408 169 417 128 q 399 261 399 209 l 399 349 q 393 388 399 368 q 374 423 387 407 q 339 448 361 438 q 285 458 317 458 q 243 454 262 459 q 210 441 224 449 q 186 424 196 433 q 171 404 176 414 q 198 361 189 387 q 208 304 208 336 l 208 110 l 222 110 q 242 105 233 110 q 259 94 252 101 q 270 76 266 86 q 273 55 273 66 q 270 34 273 44 q 259 16 266 24 q 242 4 252 9 q 222 0 233 0 l 118 0 q 98 4 107 0 q 81 16 88 9 q 71 34 74 24 q 67 55 67 44 l 67 306 z "},"":{"ha":688,"x_min":44,"x_max":643,"o":"m 44 283 q 55 363 44 325 q 85 434 66 401 q 133 495 105 467 q 194 541 160 522 q 266 571 227 561 q 346 582 304 582 q 425 571 387 582 q 496 541 463 561 q 556 495 529 522 q 602 434 583 467 q 632 363 622 401 q 643 283 643 325 q 632 204 643 242 q 602 133 622 166 q 556 72 583 99 q 496 25 529 45 q 425 -5 463 6 q 346 -15 387 -15 q 266 -5 304 -15 q 194 25 227 6 q 133 72 160 45 q 85 133 105 99 q 55 204 66 166 q 44 283 44 242 m 186 286 q 199 347 186 318 q 233 397 212 375 q 284 431 255 418 q 346 443 313 443 q 406 431 378 443 q 456 397 434 418 q 489 347 477 375 q 502 286 502 318 q 489 224 502 253 q 456 174 477 196 q 406 140 434 153 q 346 128 378 128 q 284 140 313 128 q 233 174 255 153 q 199 224 212 196 q 186 286 186 253 m 139 286 q 146 232 139 258 q 167 182 154 205 q 199 140 180 159 q 241 108 218 121 q 291 86 264 94 q 346 79 317 79 q 400 86 374 79 q 448 108 426 94 q 490 140 471 121 q 522 182 508 159 q 543 232 535 205 q 550 286 550 258 q 534 366 550 328 q 490 430 517 403 q 425 474 462 458 q 346 490 388 490 q 265 474 302 490 q 199 430 227 458 q 155 366 171 403 q 139 286 139 328 m 271 286 q 277 257 271 271 q 292 233 282 243 q 316 217 302 223 q 346 211 330 211 q 373 217 360 211 q 396 233 386 223 q 411 257 406 243 q 417 286 417 271 q 411 314 417 301 q 396 337 406 327 q 373 352 386 347 q 346 358 360 358 q 316 352 330 358 q 292 337 302 347 q 277 314 282 327 q 271 286 271 301 m 369 780 q 373 800 369 790 q 382 816 376 809 q 397 826 388 822 q 416 830 406 830 q 436 826 427 830 q 451 816 445 822 q 460 800 457 809 q 464 780 464 790 l 464 687 q 451 651 464 665 q 416 637 438 637 q 382 651 395 637 q 369 687 369 665 l 369 780 m 230 780 q 234 800 230 790 q 243 816 237 809 q 258 826 249 822 q 278 830 267 830 q 297 826 289 830 q 312 816 306 822 q 322 800 318 809 q 325 780 325 790 l 325 687 q 312 651 325 665 q 278 637 299 637 q 243 651 256 637 q 230 687 230 665 l 230 780 z "},"≤":{"ha":608,"x_min":41,"x_max":558,"o":"m 213 401 l 506 273 q 530 258 520 267 q 546 240 541 250 q 553 218 552 230 q 548 195 553 207 q 531 173 541 180 q 509 163 521 165 q 482 164 496 161 q 451 176 468 168 l 76 348 q 52 369 61 355 q 42 401 42 384 q 52 432 42 418 q 76 453 61 447 l 451 626 q 482 637 467 633 q 510 639 497 641 q 534 630 524 638 q 550 604 545 621 q 548 562 558 580 q 510 531 539 543 l 213 401 m 489 109 q 514 106 502 109 q 534 96 525 103 q 547 80 542 90 q 552 55 552 70 q 547 29 552 39 q 534 12 542 19 q 514 3 525 6 q 489 0 502 0 l 104 0 q 80 3 91 0 q 60 12 68 6 q 46 29 51 19 q 41 55 41 39 q 46 80 41 70 q 60 96 51 90 q 80 106 68 103 q 104 109 91 109 l 489 109 z "},"≥":{"ha":608,"x_min":50,"x_max":567,"o":"m 504 109 q 529 106 517 109 q 549 96 540 103 q 562 80 557 90 q 567 55 567 70 q 562 29 567 39 q 549 12 557 19 q 529 3 540 6 q 504 0 517 0 l 119 0 q 95 3 106 0 q 75 12 83 6 q 61 29 66 19 q 56 55 56 39 q 61 80 56 70 q 75 96 66 90 q 95 106 83 103 q 119 109 106 109 l 504 109 m 98 531 q 60 562 69 543 q 58 604 50 580 q 74 630 63 621 q 98 639 84 638 q 126 637 111 641 q 157 626 141 633 l 532 453 q 556 432 547 447 q 566 401 566 418 q 556 369 566 384 q 532 348 547 355 l 157 176 q 126 164 140 168 q 99 163 112 161 q 77 173 87 165 q 60 195 67 180 q 55 218 55 207 q 62 240 56 230 q 77 258 67 250 q 102 273 88 267 l 395 401 l 98 531 z "},"":{"ha":558,"x_min":49,"x_max":537,"o":"m 126 210 q 104 214 114 210 q 86 227 94 219 q 75 245 79 235 q 71 268 71 256 q 75 291 71 280 q 86 309 79 301 q 104 322 94 317 q 126 327 114 327 l 217 327 q 238 322 229 327 q 252 309 246 317 q 263 291 259 301 q 272 268 268 280 l 307 162 q 320 197 313 178 q 333 235 327 215 q 346 274 340 254 q 357 310 353 293 q 365 341 362 327 q 368 364 368 355 q 345 434 368 409 q 274 460 321 460 q 221 445 242 460 q 186 401 199 430 q 168 379 180 387 q 143 367 157 370 q 115 365 130 363 q 89 372 101 366 q 66 390 75 379 q 53 412 57 400 q 50 438 49 425 q 59 465 52 452 q 98 513 75 492 q 149 550 120 535 q 211 574 177 566 q 285 582 245 582 q 329 579 307 582 q 374 569 352 576 q 389 581 382 573 q 401 598 396 588 q 419 620 408 612 q 444 633 430 629 q 472 634 457 636 q 499 625 486 633 q 521 607 512 618 q 533 582 529 595 q 535 554 537 569 q 527 527 534 540 q 508 506 519 515 q 485 489 498 496 q 506 439 498 467 q 514 375 514 411 q 506 313 514 347 q 484 240 498 279 q 451 157 470 201 q 411 63 433 112 q 393 35 404 47 q 369 13 383 22 q 339 -2 355 3 q 305 -7 323 -7 q 270 -1 287 -7 q 240 14 254 4 q 215 38 225 24 q 198 67 204 51 l 147 210 l 126 210 z "},"•":{"ha":397,"x_min":25,"x_max":372,"o":"m 25 292 q 31 334 25 313 q 49 373 38 355 q 76 407 60 392 q 111 434 92 422 q 152 451 130 445 q 197 457 174 457 q 265 444 233 457 q 321 407 297 430 q 358 354 345 384 q 372 292 372 325 q 358 226 372 257 q 321 173 345 196 q 265 137 297 150 q 197 124 233 124 q 152 130 174 124 q 111 147 130 136 q 76 173 92 158 q 49 207 60 188 q 31 247 38 225 q 25 292 25 268 z "},"!":{"ha":382,"x_min":115,"x_max":267,"o":"m 264 478 l 235 222 q 230 205 233 212 q 220 195 226 199 q 207 189 215 191 q 191 188 200 188 q 174 189 182 188 q 161 195 167 191 q 152 205 156 199 q 147 222 148 212 l 118 478 l 118 612 q 137 665 118 647 q 191 683 156 683 q 245 665 226 683 q 264 612 264 647 l 264 478 m 115 69 q 121 99 115 85 q 137 123 127 112 q 162 139 148 133 q 191 145 175 145 q 220 139 207 145 q 244 123 234 133 q 261 99 255 112 q 267 69 267 85 q 261 40 267 54 q 244 16 255 26 q 220 -1 234 5 q 191 -6 207 -6 q 162 -1 175 -6 q 137 16 148 5 q 121 40 127 26 q 115 69 115 54 z "},"\"":{"ha":429,"x_min":77,"x_max":353,"o":"m 241 630 q 245 654 241 643 q 256 673 249 665 q 274 685 264 681 q 297 690 284 690 q 320 685 310 690 q 338 673 330 681 q 349 654 345 665 q 353 630 353 643 l 353 485 q 349 461 353 472 q 338 443 345 451 q 320 431 330 435 q 297 426 310 426 q 274 431 284 426 q 256 443 264 435 q 245 461 249 451 q 241 485 241 472 l 241 630 m 77 630 q 81 654 77 643 q 93 673 85 665 q 110 685 100 681 q 134 690 121 690 q 156 685 146 690 q 174 673 167 681 q 186 654 182 665 q 190 630 190 643 l 190 485 q 186 461 190 472 q 174 443 182 451 q 156 431 167 435 q 134 426 146 426 q 110 431 121 426 q 93 443 100 435 q 81 461 85 451 q 77 485 77 472 l 77 630 z "},"#":{"ha":579,"x_min":41,"x_max":537,"o":"m 155 387 l 118 387 q 96 391 105 387 q 81 401 87 395 q 73 416 76 408 q 71 432 71 424 q 73 448 71 440 q 81 462 76 456 q 96 473 87 469 q 118 476 105 476 l 169 476 l 189 620 q 194 638 190 630 q 203 654 197 647 q 219 664 210 661 q 243 668 229 668 q 261 665 253 668 q 275 658 269 663 q 285 646 281 653 q 289 630 289 638 q 288 618 289 626 q 286 597 287 611 l 268 476 l 354 476 l 374 620 q 379 638 376 630 q 389 654 382 647 q 405 664 395 661 q 429 668 414 668 q 446 665 438 668 q 461 658 454 663 q 470 646 467 653 q 474 630 474 638 q 473 618 474 626 q 471 597 473 611 l 453 476 l 491 476 q 512 473 504 476 q 527 462 521 469 q 535 448 532 456 q 537 432 537 440 q 535 416 537 424 q 527 401 532 408 q 512 391 521 395 q 491 387 504 387 l 440 387 l 425 275 l 461 275 q 483 272 474 275 q 498 262 492 268 q 506 247 504 255 q 509 231 509 239 q 506 215 509 223 q 498 200 504 207 q 483 190 492 194 q 461 186 474 186 l 411 186 l 390 43 q 385 24 389 33 q 376 9 382 15 q 360 -1 370 2 q 335 -5 350 -5 q 318 -2 326 -5 q 304 5 310 0 q 294 17 298 10 q 291 33 291 24 q 291 45 291 37 q 293 65 292 52 l 311 186 l 225 186 l 205 43 q 200 24 203 33 q 190 9 197 15 q 174 -1 184 2 q 150 -5 164 -5 q 133 -2 141 -5 q 118 5 124 0 q 108 17 112 10 q 105 33 105 24 q 106 45 105 37 q 108 65 106 52 l 125 186 l 88 186 q 67 190 76 186 q 52 200 58 194 q 44 215 46 207 q 41 231 41 223 q 44 247 41 239 q 52 262 46 255 q 67 272 58 268 q 88 275 76 275 l 139 275 l 155 387 m 340 387 l 254 387 l 239 275 l 325 275 l 340 387 z "},"$":{"ha":611,"x_min":45,"x_max":566,"o":"m 276 288 q 184 315 225 298 q 116 355 144 331 q 74 411 89 379 q 59 483 59 443 q 77 569 59 532 q 124 631 94 606 q 193 669 154 656 q 276 684 233 682 l 276 740 q 279 752 276 746 q 286 762 281 758 q 296 770 290 767 q 307 772 301 772 q 319 770 313 772 q 329 762 324 767 q 336 752 333 758 q 338 740 338 746 l 338 684 q 379 679 356 683 q 427 667 402 675 q 474 647 451 659 q 515 619 497 635 q 544 584 533 604 q 555 541 555 565 q 551 516 555 527 q 538 497 546 505 q 519 486 530 490 q 497 481 509 481 q 471 489 482 481 q 452 508 461 497 q 434 533 443 520 q 412 558 424 547 q 381 578 399 570 q 338 586 364 586 l 338 404 q 398 389 369 397 q 451 370 426 381 q 498 343 477 359 q 534 307 519 328 q 557 257 549 286 q 566 192 566 229 q 549 108 566 144 q 504 46 533 71 q 432 7 474 21 q 338 -10 390 -7 l 338 -69 q 336 -81 338 -75 q 329 -92 333 -87 q 319 -99 324 -96 q 307 -102 313 -102 q 296 -99 301 -102 q 286 -92 290 -96 q 279 -81 281 -87 q 276 -69 276 -75 l 276 -10 q 205 -1 237 -9 q 146 21 172 7 q 102 51 121 34 q 70 88 83 68 q 51 127 58 107 q 45 166 45 147 q 61 211 45 195 q 103 227 76 227 q 134 221 122 227 q 152 206 145 215 q 163 184 159 196 q 171 160 166 172 q 181 134 175 147 q 199 112 187 122 q 229 96 210 102 q 276 88 247 89 l 276 288 m 276 586 q 234 578 252 585 q 202 560 215 571 q 183 535 190 549 q 176 505 176 520 q 200 447 176 469 q 276 415 224 425 l 276 586 m 338 88 q 379 95 359 89 q 415 112 399 101 q 439 141 430 124 q 449 182 449 158 q 439 223 449 207 q 412 250 428 239 q 377 267 396 261 q 338 278 357 273 l 338 88 z "},"%":{"ha":942,"x_min":68,"x_max":873,"o":"m 68 483 q 72 534 68 509 q 83 581 75 559 q 103 622 91 603 q 133 654 115 640 q 174 674 151 667 q 228 682 198 682 q 306 666 275 682 q 357 623 338 650 q 383 561 375 596 q 391 485 391 525 q 387 435 391 459 q 375 388 383 410 q 353 348 366 367 q 322 316 340 330 q 281 295 304 303 q 228 288 257 288 q 154 303 184 288 q 105 344 124 318 q 77 406 85 371 q 68 483 68 442 m 549 189 q 557 265 549 229 q 585 328 566 301 q 635 372 604 356 q 713 389 667 389 q 790 373 759 389 q 839 330 821 357 q 865 268 858 303 q 873 192 873 232 q 864 117 873 153 q 836 54 855 82 q 786 11 817 27 q 713 -5 756 -5 q 637 10 668 -5 q 586 52 606 25 q 558 113 567 78 q 549 189 549 149 m 593 666 q 600 677 596 671 q 610 687 604 682 q 622 694 615 691 q 637 697 629 697 q 654 693 646 697 q 669 684 663 690 q 678 671 674 679 q 681 657 681 664 q 678 640 681 649 q 670 622 675 631 l 348 12 q 341 1 345 6 q 332 -9 337 -4 q 320 -16 327 -13 q 304 -19 313 -19 q 287 -15 295 -19 q 273 -6 279 -12 q 263 6 267 -1 q 260 21 260 14 q 263 38 260 29 q 271 57 266 47 l 593 666 m 170 485 q 172 447 170 467 q 180 410 174 427 q 197 382 186 393 q 227 371 208 371 q 259 382 247 371 q 277 410 271 393 q 286 447 284 427 q 288 485 288 467 q 287 522 288 502 q 279 559 285 542 q 261 587 273 576 q 228 599 249 599 q 199 587 210 599 q 181 559 188 576 q 172 522 175 542 q 170 485 170 502 m 652 190 q 654 154 652 174 q 662 117 656 134 q 680 89 668 100 q 710 78 691 78 q 741 89 730 78 q 759 116 753 99 q 768 153 766 133 q 770 192 770 173 q 768 229 770 209 q 760 266 766 249 q 743 294 754 283 q 713 306 732 306 q 690 301 700 306 q 674 286 681 295 q 663 266 667 277 q 656 241 659 254 q 653 215 653 229 q 652 190 652 202 z "},"&":{"ha":614,"x_min":24,"x_max":601,"o":"m 457 239 q 475 275 466 256 q 493 306 484 293 q 515 327 503 319 q 541 335 527 335 q 563 331 552 335 q 582 320 574 327 q 596 303 590 312 q 601 282 601 293 q 595 253 601 270 q 579 219 589 236 q 557 185 570 202 q 533 157 545 169 l 588 90 q 601 52 601 74 q 596 31 601 41 q 583 12 591 20 q 561 -1 574 4 q 532 -6 548 -6 q 518 -4 524 -6 q 506 1 511 -2 q 496 9 501 5 q 487 20 491 14 l 444 69 q 397 32 422 47 q 346 7 373 16 q 290 -7 319 -3 q 230 -12 261 -12 q 165 -4 194 -12 q 112 16 135 3 q 73 47 90 30 q 45 86 56 65 q 29 129 34 106 q 24 174 24 151 q 35 242 24 211 q 66 299 46 273 q 112 344 85 324 q 169 379 138 364 q 144 408 156 393 q 124 439 133 423 q 110 473 115 455 q 105 512 105 491 q 120 583 105 552 q 160 635 135 614 q 219 667 185 656 q 289 678 252 678 q 354 671 326 678 q 404 652 382 664 q 439 623 425 640 q 463 589 454 607 q 476 552 472 571 q 480 516 480 533 q 471 463 480 488 q 447 417 463 438 q 411 378 432 395 q 365 348 390 360 l 457 239 m 227 524 q 231 492 227 506 q 245 467 236 479 q 264 446 253 456 q 288 425 275 436 q 313 440 300 432 q 338 460 326 449 q 356 487 349 472 q 364 522 364 502 q 359 545 364 534 q 344 565 353 556 q 322 578 335 573 q 295 583 310 583 q 267 579 280 583 q 246 566 255 574 q 232 547 237 558 q 227 524 227 536 m 236 304 q 202 281 218 293 q 175 255 186 269 q 156 224 163 241 q 149 186 149 208 q 157 149 149 165 q 181 121 166 132 q 214 103 195 110 q 253 97 233 97 q 317 111 290 97 q 365 152 344 124 l 236 304 z "},"'":{"ha":261,"x_min":74,"x_max":186,"o":"m 74 630 q 78 654 74 643 q 89 673 82 665 q 107 685 97 681 q 130 690 117 690 q 153 685 143 690 q 171 673 163 681 q 182 654 178 665 q 186 630 186 643 l 186 485 q 182 461 186 472 q 171 443 178 451 q 153 431 163 435 q 130 426 143 426 q 107 431 117 426 q 89 443 97 435 q 78 461 82 451 q 74 485 74 472 l 74 630 z "},"(":{"ha":313,"x_min":43,"x_max":278,"o":"m 43 255 q 62 413 43 332 q 115 575 81 494 q 141 634 129 609 q 162 675 152 659 q 179 702 171 692 q 194 717 187 712 q 209 724 202 723 q 225 726 217 726 q 247 722 237 726 q 263 712 256 719 q 274 698 270 706 q 278 680 278 689 q 271 646 278 667 q 254 596 264 625 q 231 530 243 567 q 209 451 219 494 q 191 358 198 408 q 184 255 184 309 q 191 151 184 200 q 209 59 198 102 q 231 -21 219 16 q 254 -86 243 -57 q 271 -137 264 -116 q 278 -171 278 -158 q 274 -188 278 -180 q 263 -203 270 -197 q 247 -213 256 -209 q 225 -217 237 -217 q 209 -215 217 -217 q 194 -208 202 -213 q 179 -193 187 -203 q 162 -166 171 -183 q 141 -125 152 -150 q 115 -66 129 -100 q 62 96 81 15 q 43 255 43 177 z "},")":{"ha":313,"x_min":35,"x_max":269,"o":"m 269 255 q 251 96 269 177 q 198 -66 232 15 q 172 -125 183 -100 q 151 -166 160 -150 q 134 -193 142 -183 q 118 -208 126 -203 q 103 -215 111 -213 q 87 -217 96 -217 q 66 -213 76 -217 q 49 -203 56 -209 q 38 -188 42 -197 q 35 -171 35 -180 q 42 -137 35 -158 q 59 -86 48 -116 q 82 -21 70 -57 q 104 59 94 16 q 122 151 115 102 q 129 255 129 200 q 122 358 129 309 q 104 451 115 408 q 82 530 94 494 q 59 596 70 567 q 42 646 48 625 q 35 680 35 667 q 38 698 35 689 q 49 712 42 706 q 66 722 56 719 q 87 726 76 726 q 103 724 96 726 q 118 717 111 723 q 134 702 126 712 q 151 675 142 692 q 172 634 160 659 q 198 575 183 609 q 251 413 232 494 q 269 255 269 332 z "},"*":{"ha":386,"x_min":19,"x_max":368,"o":"m 153 668 q 163 701 153 689 q 193 712 174 712 q 223 701 213 712 q 234 668 234 689 l 234 589 l 303 614 q 316 618 309 616 q 328 620 323 620 q 340 617 333 620 q 353 609 347 614 q 363 595 359 604 q 368 576 368 587 q 334 538 368 549 q 294 527 314 533 q 255 515 275 521 l 309 445 q 317 432 314 439 q 320 418 320 426 q 315 398 320 406 q 303 385 310 390 q 289 379 296 380 q 277 377 281 377 q 258 381 267 377 q 244 393 250 385 q 219 431 232 412 q 193 469 206 450 q 168 431 180 450 q 142 393 155 412 q 128 381 137 385 q 110 377 119 377 q 98 379 105 377 q 83 385 91 380 q 71 398 76 390 q 66 418 66 406 q 70 432 66 426 q 78 445 73 439 l 132 515 l 53 538 q 19 576 19 549 q 23 595 19 587 q 34 609 27 604 q 47 617 40 614 q 59 620 54 620 q 71 618 63 620 q 83 614 78 616 l 153 589 l 153 668 z "},"+":{"ha":565,"x_min":22,"x_max":544,"o":"m 228 465 q 231 491 228 479 q 242 512 235 503 q 260 525 250 520 q 283 530 270 530 q 306 525 296 530 q 323 512 316 520 q 334 491 330 503 q 338 465 338 479 l 338 323 l 479 323 q 526 308 509 323 q 544 269 544 294 q 526 229 544 243 q 479 214 509 214 l 338 214 l 338 72 q 334 46 338 58 q 323 26 330 34 q 306 12 316 17 q 283 7 296 7 q 260 12 270 7 q 242 26 250 17 q 231 46 235 34 q 228 72 228 58 l 228 214 l 86 214 q 60 219 72 214 q 39 231 48 223 q 26 248 31 239 q 22 269 22 258 q 39 308 22 294 q 86 323 57 323 l 228 323 l 228 465 z "},",":{"ha":289,"x_min":62,"x_max":228,"o":"m 62 69 q 68 99 62 85 q 84 123 74 112 q 108 139 95 133 q 138 145 122 145 q 177 137 160 145 q 205 116 194 130 q 222 83 216 103 q 228 41 228 64 q 224 -4 228 16 q 213 -41 220 -24 q 198 -72 207 -58 q 178 -98 189 -86 q 161 -115 171 -106 q 139 -131 151 -124 q 116 -143 128 -139 q 94 -148 104 -148 q 70 -140 78 -148 q 62 -121 62 -132 q 68 -104 62 -111 q 85 -91 75 -98 q 106 -77 94 -84 q 129 -59 118 -70 q 148 -32 140 -48 q 160 6 157 -17 q 129 -2 148 -2 q 100 4 113 -2 q 79 20 88 10 q 66 43 71 30 q 62 69 62 55 z "},"-":{"ha":454,"x_min":27,"x_max":426,"o":"m 363 323 q 387 320 376 323 q 407 311 399 317 q 421 294 416 304 q 426 269 426 284 q 421 243 426 254 q 407 227 416 233 q 387 217 399 220 q 363 214 376 214 l 90 214 q 66 217 77 214 q 46 227 54 220 q 32 243 37 233 q 27 269 27 254 q 32 294 27 284 q 46 311 37 304 q 66 320 54 317 q 90 323 77 323 l 363 323 z "},".":{"ha":289,"x_min":67,"x_max":221,"o":"m 67 73 q 73 103 67 89 q 90 127 79 117 q 114 144 100 138 q 144 150 128 150 q 174 144 160 150 q 198 127 188 138 q 215 103 209 117 q 221 73 221 89 q 215 43 221 57 q 198 19 209 30 q 174 3 188 8 q 144 -3 160 -3 q 114 3 128 -3 q 90 19 100 8 q 73 43 79 30 q 67 73 67 57 z "},"/":{"ha":378,"x_min":12,"x_max":366,"o":"m 258 665 q 263 678 260 671 q 273 691 267 685 q 289 700 279 696 q 313 704 298 704 q 331 701 322 704 q 348 691 340 697 q 361 676 356 685 q 366 655 366 667 q 363 640 366 648 q 357 624 360 632 l 120 23 q 114 11 118 18 q 104 -2 111 4 q 89 -12 98 -8 q 64 -16 79 -16 q 46 -12 56 -16 q 30 -3 37 -9 q 17 12 22 3 q 12 33 12 21 q 15 49 12 41 q 20 64 17 57 l 258 665 z "},":":{"ha":289,"x_min":67,"x_max":221,"o":"m 67 420 q 73 450 67 436 q 90 474 79 464 q 114 491 100 485 q 144 497 128 497 q 174 491 160 497 q 198 474 188 485 q 215 450 209 464 q 221 420 221 436 q 215 390 221 404 q 198 366 209 376 q 174 349 188 355 q 144 343 160 343 q 114 349 128 343 q 90 366 100 355 q 73 390 79 376 q 67 420 67 404 m 67 73 q 73 103 67 89 q 90 127 79 117 q 114 144 100 138 q 144 150 128 150 q 174 144 160 150 q 198 127 188 138 q 215 103 209 117 q 221 73 221 89 q 215 43 221 57 q 198 19 209 30 q 174 3 188 8 q 144 -3 160 -3 q 114 3 128 -3 q 90 19 100 8 q 73 43 79 30 q 67 73 67 57 z "},";":{"ha":289,"x_min":62,"x_max":228,"o":"m 67 420 q 73 450 67 436 q 90 474 79 464 q 114 491 100 485 q 144 497 128 497 q 174 491 160 497 q 198 474 188 485 q 215 450 209 464 q 221 420 221 436 q 215 390 221 404 q 198 366 209 376 q 174 349 188 355 q 144 343 160 343 q 114 349 128 343 q 90 366 100 355 q 73 390 79 376 q 67 420 67 404 m 62 69 q 68 99 62 85 q 84 123 74 112 q 108 139 95 133 q 138 145 122 145 q 177 137 160 145 q 205 116 194 130 q 222 83 216 103 q 228 41 228 64 q 224 -4 228 16 q 213 -41 220 -24 q 198 -72 207 -58 q 178 -98 189 -86 q 161 -115 171 -106 q 139 -131 151 -124 q 116 -143 128 -139 q 94 -148 104 -148 q 70 -140 78 -148 q 62 -121 62 -132 q 68 -104 62 -111 q 85 -91 75 -98 q 106 -77 94 -84 q 129 -59 118 -70 q 148 -32 140 -48 q 160 6 157 -17 q 129 -2 148 -2 q 100 4 113 -2 q 79 20 88 10 q 66 43 71 30 q 62 69 62 55 z "},"<":{"ha":608,"x_min":42,"x_max":553,"o":"m 213 278 l 510 148 q 533 135 524 142 q 546 121 541 128 q 551 106 550 114 q 553 90 553 98 q 549 70 553 79 q 538 54 545 61 q 523 44 532 47 q 502 40 513 40 q 480 43 492 40 q 451 53 469 45 l 76 226 q 52 247 61 233 q 42 278 42 261 q 52 310 42 296 q 76 331 61 324 l 451 503 q 480 514 469 512 q 502 516 492 516 q 523 513 513 516 q 538 503 532 509 q 549 487 545 496 q 553 467 553 478 q 551 451 553 458 q 546 436 550 443 q 533 421 541 428 q 510 408 524 414 l 213 278 z "},"=":{"ha":565,"x_min":21,"x_max":544,"o":"m 479 417 q 505 414 493 417 q 526 402 517 410 q 539 385 534 395 q 544 362 544 375 q 539 339 544 350 q 526 322 534 329 q 505 311 517 315 q 479 307 493 307 l 86 307 q 60 312 72 307 q 39 324 47 316 q 26 342 31 332 q 21 362 21 352 q 26 385 21 375 q 39 402 31 395 q 60 414 47 410 q 86 417 72 417 l 479 417 m 479 229 q 505 225 493 229 q 526 214 517 221 q 539 196 534 207 q 544 174 544 186 q 539 151 544 161 q 526 133 534 141 q 505 122 517 126 q 479 118 493 118 l 86 118 q 60 123 72 118 q 39 136 47 128 q 26 153 31 143 q 21 174 21 163 q 26 196 21 186 q 39 214 31 207 q 60 225 47 221 q 86 229 72 229 l 479 229 z "},">":{"ha":608,"x_min":56,"x_max":566,"o":"m 99 408 q 76 421 84 414 q 63 436 67 428 q 57 451 58 443 q 56 467 56 458 q 59 487 56 478 q 70 503 63 496 q 86 513 77 509 q 106 516 95 516 q 128 514 116 516 q 157 503 140 512 l 532 331 q 557 310 547 324 q 566 278 566 296 q 557 247 566 261 q 532 226 547 233 l 157 53 q 128 43 140 45 q 106 40 116 40 q 86 44 95 40 q 70 54 77 47 q 59 70 63 61 q 56 90 56 79 q 57 106 56 98 q 63 121 58 114 q 76 135 67 128 q 99 148 84 142 l 396 278 l 99 408 z "},"?":{"ha":562,"x_min":59,"x_max":507,"o":"m 59 519 q 67 564 59 542 q 90 605 76 586 q 125 641 105 625 q 169 669 145 657 q 219 687 193 681 q 274 694 246 694 q 332 689 303 694 q 387 674 361 684 q 435 649 413 664 q 473 613 457 634 q 498 565 489 592 q 507 505 507 538 q 497 449 507 474 q 470 404 487 424 q 435 368 454 384 q 397 338 415 351 q 363 312 379 324 q 341 290 348 301 q 332 272 336 281 q 325 254 329 263 q 318 238 322 245 q 307 223 314 230 q 291 214 301 217 q 266 210 281 210 q 240 216 251 210 q 222 231 229 221 q 211 251 214 240 q 207 274 207 262 q 214 312 207 295 q 232 344 221 329 q 258 372 243 359 q 287 397 272 385 q 317 420 302 409 q 342 445 331 432 q 361 473 354 458 q 368 505 368 487 q 344 565 368 543 q 280 586 321 586 q 243 581 258 586 q 218 566 228 575 q 201 546 207 558 q 189 523 194 535 q 178 500 183 512 q 165 481 173 489 q 147 467 158 472 q 119 461 136 461 q 96 465 107 461 q 77 476 85 469 q 64 494 69 483 q 59 519 59 505 m 194 71 q 200 101 194 87 q 216 126 206 115 q 240 143 227 137 q 270 149 254 149 q 299 143 285 149 q 323 126 312 137 q 339 101 333 115 q 345 71 345 87 q 339 41 345 55 q 323 16 333 27 q 299 0 312 6 q 270 -6 285 -6 q 240 0 254 -6 q 216 16 227 6 q 200 41 206 27 q 194 71 194 55 z "},"@":{"ha":808,"x_min":60,"x_max":743,"o":"m 320 320 q 325 285 320 300 q 341 259 331 270 q 364 243 351 249 q 393 238 377 238 q 429 246 413 238 q 458 268 446 254 q 476 301 470 282 q 483 342 483 320 q 478 374 483 360 q 465 399 474 389 q 443 416 456 410 q 412 421 429 421 q 375 413 392 421 q 346 391 358 405 q 327 359 334 377 q 320 320 320 340 m 566 287 q 564 279 565 284 q 562 270 563 275 q 561 261 562 265 q 561 254 561 256 q 564 240 561 245 q 578 235 568 235 q 605 245 590 235 q 631 272 619 254 q 651 317 643 290 q 659 377 659 343 q 641 476 659 433 q 590 548 623 519 q 513 592 558 577 q 415 607 468 607 q 346 597 379 607 q 285 571 314 588 q 234 529 257 553 q 194 475 210 505 q 168 412 177 446 q 159 341 159 378 q 179 231 159 279 q 235 148 199 182 q 319 96 271 114 q 423 78 367 78 q 483 82 457 78 q 529 93 509 87 q 562 108 548 100 q 587 123 576 116 q 605 134 597 129 q 621 138 613 138 q 634 135 628 138 q 645 128 641 133 q 653 116 650 123 q 656 102 656 110 q 645 77 656 90 q 616 52 634 64 q 574 30 598 40 q 525 12 551 19 q 473 -1 499 4 q 423 -5 446 -5 q 327 6 373 -5 q 240 39 280 18 q 166 92 200 61 q 110 161 133 123 q 73 245 86 200 q 60 341 60 290 q 72 436 60 391 q 109 520 85 481 q 165 590 132 559 q 237 644 197 622 q 322 678 277 666 q 417 690 368 690 q 503 682 461 690 q 580 657 544 673 q 646 615 616 640 q 698 555 676 589 q 731 478 719 521 q 743 382 743 435 q 731 299 743 335 q 698 236 718 263 q 652 190 678 209 q 601 160 627 171 q 551 143 575 149 q 509 138 526 138 q 453 185 455 138 l 452 185 q 409 156 435 166 q 356 145 384 145 q 303 158 328 145 q 260 192 278 170 q 231 244 241 214 q 220 308 220 273 q 227 368 220 339 q 245 419 233 396 q 273 462 257 443 q 309 494 290 481 q 350 514 329 507 q 395 521 372 521 q 433 518 416 521 q 464 507 450 514 q 488 489 477 500 q 510 464 499 478 l 513 480 q 521 498 516 491 q 532 508 526 504 q 545 513 538 511 q 557 514 551 514 q 573 511 566 514 q 586 504 581 509 q 595 491 592 498 q 598 474 598 484 q 597 464 598 470 q 594 447 596 457 l 566 287 z "},"A":{"ha":669,"x_min":33,"x_max":636,"o":"m 245 633 q 273 668 255 658 q 319 679 291 679 l 355 679 q 380 676 368 679 q 403 669 393 674 q 422 652 414 663 q 437 624 431 641 l 621 118 q 626 105 623 113 q 631 90 629 98 q 635 74 633 82 q 636 61 636 67 q 631 35 636 47 q 615 14 625 23 q 592 0 605 5 q 565 -5 579 -5 q 522 4 539 -5 q 496 36 505 14 l 457 146 l 212 146 l 172 36 q 148 4 164 14 q 104 -5 131 -5 q 75 -1 88 -5 q 53 12 62 4 q 38 33 43 21 q 33 61 33 45 q 35 74 33 67 q 38 90 36 82 q 43 105 41 98 q 48 118 46 113 l 245 633 m 337 515 l 335 515 l 245 251 l 424 251 l 337 515 z "},"B":{"ha":660,"x_min":62,"x_max":626,"o":"m 336 401 q 389 407 367 401 q 425 424 411 413 q 445 449 438 434 q 451 482 451 464 q 442 522 451 506 q 417 545 433 537 q 380 557 401 554 q 336 560 359 560 l 210 560 l 210 401 l 336 401 m 380 118 q 423 125 405 118 q 454 144 441 132 q 473 173 466 156 q 479 210 479 190 q 469 248 479 232 q 442 274 459 264 q 405 288 426 284 q 362 293 384 293 l 210 293 l 210 118 l 380 118 m 311 678 q 360 677 334 678 q 413 674 387 677 q 463 666 439 672 q 504 650 487 661 q 539 624 523 639 q 569 590 556 609 q 589 548 582 571 q 597 498 597 526 q 592 455 597 475 q 576 418 586 435 q 553 387 567 401 q 524 362 540 373 q 565 336 546 352 q 598 299 584 319 q 619 256 611 279 q 626 207 626 232 q 620 156 626 181 q 599 107 613 131 q 566 65 586 84 q 520 31 546 45 q 463 8 494 16 q 393 0 431 0 l 149 0 q 115 7 131 0 q 88 26 100 14 q 69 53 76 38 q 62 87 62 69 l 62 587 q 70 622 62 606 q 89 651 77 639 q 117 671 101 664 q 153 678 134 678 l 311 678 z "},"C":{"ha":680,"x_min":37,"x_max":645,"o":"m 37 340 q 46 433 37 388 q 74 517 56 477 q 121 589 93 556 q 185 645 149 622 q 268 682 222 669 q 368 695 314 695 q 450 686 413 695 q 518 664 487 678 q 571 633 548 651 q 610 595 594 615 q 634 555 626 575 q 643 518 642 535 q 625 467 644 485 q 574 448 607 448 q 545 454 557 448 q 524 467 533 459 q 507 487 515 476 q 490 509 499 498 q 472 532 482 521 q 447 551 461 543 q 414 565 433 560 q 368 570 395 570 q 299 555 332 570 q 241 510 266 540 q 202 438 217 481 q 188 340 188 395 q 198 252 188 294 q 231 179 208 210 q 288 129 253 147 q 374 110 323 110 q 426 119 404 110 q 463 142 447 129 q 491 173 479 156 q 514 204 503 190 q 539 228 526 218 q 569 239 551 238 q 597 236 584 240 q 619 224 609 232 q 634 205 628 216 q 642 180 640 194 q 636 132 645 156 q 610 86 628 108 q 568 46 593 65 q 512 14 543 28 q 446 -7 481 1 q 374 -15 411 -15 q 232 8 294 -15 q 126 75 169 31 q 60 186 83 120 q 37 340 37 252 z "},"D":{"ha":678,"x_min":62,"x_max":649,"o":"m 62 587 q 68 630 62 613 q 86 658 75 647 q 114 673 98 668 q 150 677 130 677 l 334 677 q 414 671 375 677 q 489 648 454 664 q 553 607 524 633 q 604 544 583 582 q 637 456 625 507 q 649 339 649 405 q 628 195 649 258 q 565 89 606 132 q 466 23 525 45 q 331 0 407 0 l 150 0 q 114 4 130 0 q 86 19 98 9 q 68 47 75 30 q 62 90 62 64 l 62 587 m 209 119 l 339 119 q 393 128 369 119 q 434 152 416 137 q 465 190 452 168 q 485 235 477 211 q 497 286 493 260 q 500 339 500 313 q 491 429 500 389 q 461 498 481 470 q 410 542 441 527 q 339 558 380 558 l 209 558 l 209 119 z "},"E":{"ha":589,"x_min":62,"x_max":569,"o":"m 208 288 l 208 121 l 508 121 q 532 116 521 121 q 551 103 543 111 q 564 84 559 95 q 569 60 569 73 q 564 37 569 48 q 551 18 559 26 q 532 5 543 9 q 508 0 521 0 l 149 0 q 115 7 131 0 q 88 26 100 14 q 69 53 76 38 q 62 87 62 69 l 62 587 q 70 622 62 606 q 89 651 77 639 q 117 671 101 664 q 153 678 134 678 l 506 678 q 530 673 518 678 q 549 660 541 668 q 563 640 558 651 q 567 616 567 629 q 563 593 567 604 q 549 573 558 582 q 530 560 541 565 q 506 555 518 555 l 208 555 l 208 407 l 483 407 q 506 402 495 407 q 525 389 516 397 q 537 370 533 381 q 542 347 542 359 q 537 324 542 335 q 525 305 533 313 q 506 292 516 297 q 483 288 495 288 l 208 288 z "},"F":{"ha":554,"x_min":62,"x_max":545,"o":"m 62 587 q 70 622 62 606 q 89 651 77 639 q 117 671 101 664 q 153 678 134 678 l 484 678 q 507 673 496 678 q 527 660 518 668 q 540 640 535 651 q 545 616 545 629 q 540 593 545 604 q 527 573 535 582 q 507 560 518 565 q 484 555 496 555 l 208 555 l 208 407 l 443 407 q 466 402 455 407 q 485 389 476 397 q 497 370 493 381 q 502 347 502 359 q 497 324 502 335 q 485 305 493 313 q 466 292 476 297 q 443 288 455 288 l 208 288 l 208 63 q 202 35 208 47 q 187 13 197 22 q 164 -2 177 4 q 135 -7 151 -7 q 107 -2 120 -7 q 84 13 94 4 q 68 35 74 22 q 62 63 62 47 l 62 587 z "},"G":{"ha":729,"x_min":32,"x_max":662,"o":"m 662 42 q 658 22 662 31 q 648 5 654 13 q 632 -6 641 -2 q 611 -10 622 -10 q 584 -5 595 -10 q 566 11 573 1 q 555 38 559 22 q 547 77 551 55 q 512 40 531 57 q 468 11 492 23 q 416 -7 444 -1 q 352 -14 387 -14 q 248 -1 294 -14 q 166 36 201 13 q 105 92 130 59 q 63 164 79 125 q 39 248 47 203 q 32 340 32 292 q 56 491 32 425 q 126 602 81 557 q 235 671 172 647 q 374 694 298 694 q 450 686 415 694 q 513 665 485 678 q 563 635 542 652 q 599 600 585 618 q 621 564 613 582 q 628 532 628 547 q 622 499 628 512 q 605 478 615 486 q 582 467 595 470 q 558 464 570 464 q 535 469 544 464 q 517 481 525 473 q 503 498 510 488 q 489 517 496 507 q 471 536 481 527 q 447 553 461 546 q 413 565 432 561 q 366 570 393 570 q 293 556 327 570 q 234 514 259 543 q 195 439 210 485 q 181 330 181 394 q 193 239 181 280 q 228 169 205 198 q 287 124 252 140 q 367 108 321 108 q 430 118 401 108 q 478 148 458 129 q 510 195 499 168 q 523 255 522 222 l 426 255 q 402 258 414 255 q 380 267 390 260 q 364 286 370 274 q 358 315 358 297 q 373 359 358 343 q 416 375 388 375 l 601 375 q 648 358 634 375 q 662 310 662 342 l 662 42 z "},"H":{"ha":694,"x_min":62,"x_max":632,"o":"m 208 286 l 208 63 q 202 35 208 47 q 187 13 197 22 q 164 -2 177 4 q 135 -7 151 -7 q 107 -2 120 -7 q 84 13 94 4 q 68 35 74 22 q 62 63 62 47 l 62 615 q 68 643 62 630 q 84 665 74 656 q 107 679 94 674 q 135 685 120 685 q 164 679 151 685 q 187 665 177 674 q 202 643 197 656 q 208 615 208 630 l 208 408 l 486 408 l 486 615 q 492 643 486 630 q 508 665 498 656 q 531 679 517 674 q 559 685 544 685 q 588 679 574 685 q 611 665 601 674 q 626 643 621 656 q 632 615 632 630 l 632 63 q 626 35 632 47 q 611 13 621 22 q 588 -2 601 4 q 559 -7 574 -7 q 531 -2 544 -7 q 508 13 517 4 q 492 35 498 22 q 486 63 486 47 l 486 286 l 208 286 z "},"I":{"ha":289,"x_min":72,"x_max":217,"o":"m 217 63 q 212 35 217 47 q 196 13 206 22 q 173 -2 186 4 q 144 -7 160 -7 q 116 -2 129 -7 q 93 13 103 4 q 77 35 83 22 q 72 63 72 47 l 72 615 q 77 643 72 630 q 93 665 83 656 q 116 679 103 674 q 144 685 129 685 q 173 679 160 685 q 196 665 186 674 q 212 643 206 656 q 217 615 217 630 l 217 63 z "},"J":{"ha":518,"x_min":7,"x_max":456,"o":"m 456 209 q 441 116 456 157 q 396 47 426 75 q 324 3 367 18 q 226 -12 281 -12 q 148 -3 181 -12 q 90 21 114 6 q 49 56 65 36 q 24 96 33 75 q 11 136 14 116 q 7 173 7 156 q 11 210 7 193 q 25 239 16 227 q 47 257 34 251 q 77 264 60 264 q 110 257 97 264 q 131 237 123 249 q 142 209 139 225 q 145 177 145 194 q 165 127 145 145 q 225 110 185 110 q 258 116 243 110 q 284 134 273 121 q 301 165 295 146 q 307 211 307 184 l 307 609 q 312 640 307 626 q 327 664 318 654 q 351 679 337 673 q 381 684 365 684 q 412 679 398 684 q 436 664 426 673 q 451 640 446 654 q 456 609 456 626 l 456 209 z "},"K":{"ha":642,"x_min":62,"x_max":613,"o":"m 62 610 q 67 640 62 626 q 82 664 73 654 q 106 679 92 674 q 137 685 120 685 q 168 679 155 685 q 192 664 182 674 q 207 640 202 654 q 212 610 212 626 l 212 384 l 459 654 q 482 674 469 666 q 509 685 495 683 q 537 684 523 688 q 565 668 551 681 q 581 645 576 657 q 585 620 586 633 q 579 595 585 608 q 563 573 573 583 l 401 403 l 587 121 q 604 91 596 106 q 612 61 611 76 q 607 33 613 46 q 584 7 601 19 q 551 -8 568 -5 q 519 -7 534 -11 q 490 9 504 -2 q 466 36 476 20 l 295 300 l 212 218 l 212 68 q 207 38 212 52 q 192 14 202 24 q 168 -1 182 4 q 137 -6 155 -6 q 106 -1 120 -6 q 82 14 92 4 q 67 38 73 24 q 62 68 62 52 l 62 610 z "},"L":{"ha":537,"x_min":62,"x_max":538,"o":"m 62 610 q 67 640 62 626 q 82 664 73 654 q 105 679 92 674 q 136 685 119 685 q 167 679 154 685 q 190 664 181 674 q 205 640 200 654 q 210 610 210 626 l 210 126 l 460 126 q 490 122 476 126 q 515 110 505 118 q 532 91 526 102 q 538 63 538 79 q 532 36 538 48 q 515 16 526 24 q 490 4 505 8 q 460 0 476 0 l 150 0 q 114 4 130 0 q 86 19 98 9 q 69 46 75 29 q 62 88 62 63 l 62 610 z "},"M":{"ha":842,"x_min":63,"x_max":779,"o":"m 63 603 q 70 640 63 626 q 90 663 78 655 q 117 674 102 671 q 149 677 133 677 l 181 677 q 214 674 200 677 q 238 662 228 670 q 256 641 249 654 q 270 609 264 628 l 422 184 l 424 184 l 574 609 q 588 641 580 628 q 606 662 595 654 q 630 674 616 670 q 663 677 644 677 l 693 677 q 725 674 709 677 q 752 663 740 671 q 772 640 764 655 q 779 603 779 626 l 779 66 q 775 39 779 52 q 763 15 771 26 q 741 -1 755 5 q 709 -7 728 -7 q 676 -1 690 -7 q 654 15 663 5 q 642 39 646 26 q 638 66 638 52 l 638 407 l 644 483 l 628 414 l 489 37 q 463 3 481 13 q 421 -7 446 -7 q 379 3 396 -7 q 354 37 361 13 l 214 415 l 199 485 l 203 406 l 203 66 q 200 39 203 52 q 187 15 196 26 q 166 -1 179 5 q 133 -7 152 -7 q 101 -1 114 -7 q 79 15 87 5 q 67 39 71 26 q 63 66 63 52 l 63 603 z "},"N":{"ha":699,"x_min":62,"x_max":636,"o":"m 62 594 q 85 662 62 641 q 154 684 107 684 q 197 674 177 684 q 228 643 216 664 l 492 215 l 495 215 l 495 610 q 514 665 495 647 q 565 684 532 684 q 617 665 598 684 q 636 610 636 647 l 636 88 q 616 18 636 43 q 549 -6 595 -6 q 519 -4 532 -6 q 498 2 507 -2 q 482 15 489 7 q 468 34 475 23 l 206 450 l 203 450 l 203 66 q 185 11 203 29 q 133 -6 166 -6 q 81 11 100 -6 q 62 66 62 29 l 62 594 z "},"O":{"ha":730,"x_min":28,"x_max":703,"o":"m 175 339 q 180 283 175 311 q 194 231 184 256 q 219 185 204 206 q 255 148 234 163 q 303 123 276 132 q 364 114 330 114 q 426 123 398 114 q 475 148 453 132 q 511 185 496 163 q 536 231 527 206 q 551 283 546 256 q 555 339 555 311 q 551 394 555 367 q 536 447 546 422 q 511 494 527 472 q 475 531 496 515 q 426 556 453 547 q 364 565 398 565 q 303 556 330 565 q 255 531 276 547 q 219 494 234 515 q 194 447 204 472 q 180 394 184 422 q 175 339 175 367 m 28 339 q 37 429 28 385 q 65 513 46 473 q 111 585 83 552 q 177 642 139 618 q 261 680 214 666 q 364 693 308 693 q 468 680 420 693 q 552 642 515 666 q 618 585 590 618 q 665 513 647 552 q 694 429 684 473 q 703 339 703 385 q 694 249 703 293 q 665 166 684 205 q 618 94 647 127 q 552 37 590 61 q 468 1 515 14 q 364 -13 420 -13 q 261 1 308 -13 q 177 37 214 14 q 111 94 139 61 q 65 166 83 127 q 37 249 46 205 q 28 339 28 293 z "},"P":{"ha":625,"x_min":62,"x_max":597,"o":"m 340 376 q 390 382 369 376 q 425 400 411 388 q 445 428 438 412 q 451 465 451 445 q 445 502 451 486 q 425 531 438 519 q 390 549 411 543 q 340 555 369 555 l 208 555 l 208 376 l 340 376 m 62 609 q 68 637 62 624 q 84 659 74 649 q 107 673 94 668 q 135 678 120 678 l 370 678 q 469 664 426 678 q 540 622 512 649 q 583 555 569 595 q 597 465 597 516 q 583 377 597 415 q 540 312 569 338 q 469 272 512 286 q 370 260 426 259 l 208 260 l 208 63 q 202 35 208 47 q 187 13 197 22 q 164 -2 177 4 q 135 -7 151 -7 q 107 -2 120 -7 q 84 13 94 4 q 68 35 74 22 q 62 63 62 47 l 62 609 z "},"Q":{"ha":730,"x_min":28,"x_max":703,"o":"m 380 124 q 364 143 370 132 q 358 165 359 154 q 361 188 357 177 q 373 210 365 200 q 392 227 381 220 q 414 235 402 233 q 436 233 425 236 q 458 222 448 231 l 512 180 q 546 252 536 213 q 555 336 555 292 q 551 391 555 364 q 536 444 546 419 q 511 491 527 469 q 475 529 496 513 q 426 554 453 545 q 364 563 398 563 q 303 554 330 563 q 255 529 276 545 q 219 491 234 513 q 194 444 204 469 q 180 391 184 419 q 175 336 175 364 q 180 281 175 308 q 194 228 184 253 q 219 182 204 203 q 255 145 234 161 q 303 120 276 129 q 364 111 330 111 q 380 112 372 111 q 394 113 388 113 l 380 124 m 519 17 q 446 -7 485 1 q 364 -15 408 -15 q 261 -2 308 -15 q 177 35 214 11 q 111 91 139 58 q 65 163 83 124 q 37 246 46 202 q 28 336 28 290 q 37 427 28 382 q 65 511 46 471 q 111 583 83 550 q 177 640 139 616 q 261 677 214 664 q 364 690 308 690 q 468 677 420 690 q 552 640 515 664 q 618 583 590 616 q 665 511 647 550 q 694 427 684 471 q 703 336 703 382 q 698 270 703 303 q 683 207 693 238 q 658 149 673 177 q 624 97 643 121 l 666 63 q 681 44 676 55 q 687 22 687 33 q 684 -2 688 10 q 672 -23 681 -13 q 654 -40 664 -34 q 632 -48 643 -46 q 609 -47 621 -50 q 587 -36 597 -44 l 519 17 z "},"R":{"ha":660,"x_min":64,"x_max":622,"o":"m 64 588 q 70 631 64 614 q 88 659 76 648 q 115 673 99 669 q 151 678 131 678 l 398 678 q 476 670 442 678 q 535 649 510 662 q 576 617 559 635 q 603 578 593 599 q 618 535 613 557 q 622 491 622 513 q 614 438 622 464 q 592 389 607 411 q 557 352 578 368 q 510 330 536 336 l 510 328 q 556 309 538 323 q 585 274 574 295 q 599 227 595 254 q 602 170 602 200 q 604 132 601 149 q 610 101 606 115 q 616 75 613 87 q 619 53 619 64 q 613 29 619 40 q 597 10 607 18 q 575 -2 587 2 q 549 -7 562 -7 q 515 -1 529 -7 q 490 15 500 5 q 475 37 480 25 q 466 62 469 50 q 462 84 463 74 q 461 102 461 95 q 457 177 461 145 q 441 228 452 208 q 409 257 429 248 q 359 267 390 267 l 212 267 l 212 70 q 207 38 212 53 q 192 14 201 24 q 169 -1 182 4 q 138 -7 155 -7 q 107 -1 121 -7 q 84 14 94 4 q 69 38 74 24 q 64 70 64 53 l 64 588 m 212 379 l 361 379 q 402 383 382 379 q 438 396 422 386 q 464 424 454 406 q 474 470 474 441 q 466 514 474 496 q 444 542 458 531 q 410 556 430 552 q 366 560 390 560 l 212 560 l 212 379 z "},"S":{"ha":625,"x_min":44,"x_max":595,"o":"m 421 393 q 507 360 473 381 q 560 313 540 339 q 587 257 579 287 q 595 198 595 228 q 578 113 595 152 q 527 45 561 74 q 441 0 493 16 q 322 -16 390 -16 q 235 -8 274 -16 q 165 12 196 -1 q 111 42 134 25 q 74 78 89 59 q 52 117 59 98 q 44 156 44 137 q 49 181 44 170 q 62 201 54 193 q 82 215 71 210 q 108 219 94 219 q 141 210 128 219 q 166 188 155 201 q 188 158 177 174 q 217 129 200 142 q 259 106 234 115 q 322 97 284 97 q 374 105 351 97 q 412 125 397 112 q 436 154 428 137 q 444 187 444 170 q 441 208 444 197 q 431 228 438 218 q 411 245 424 237 q 379 258 398 253 l 208 303 q 149 324 174 312 q 105 350 123 336 q 76 381 87 365 q 58 415 64 397 q 49 450 51 432 q 46 487 46 469 q 57 555 46 525 q 86 608 67 585 q 131 647 105 631 q 185 674 156 663 q 247 689 215 684 q 311 694 279 694 q 371 689 340 694 q 431 673 402 683 q 485 648 460 662 q 529 616 511 633 q 558 578 548 598 q 568 536 569 558 q 561 510 567 522 q 546 491 555 499 q 525 479 537 483 q 499 475 513 475 q 470 482 481 475 q 448 501 458 490 q 426 525 437 512 q 399 549 415 538 q 359 568 383 561 q 300 575 336 575 q 254 569 274 575 q 220 553 234 564 q 199 528 206 543 q 192 495 192 513 q 201 466 192 478 q 225 445 211 454 q 259 432 240 437 q 295 422 277 426 l 421 393 z "},"T":{"ha":556,"x_min":5,"x_max":551,"o":"m 203 549 l 66 549 q 42 554 53 549 q 22 567 31 559 q 10 588 14 576 q 5 613 5 600 q 10 638 5 626 q 22 659 14 650 q 42 673 31 668 q 66 678 53 678 l 490 678 q 514 673 503 678 q 534 659 526 668 q 546 638 542 650 q 551 613 551 626 q 546 588 551 600 q 534 567 542 576 q 514 554 526 559 q 490 549 503 549 l 350 549 l 350 63 q 344 35 350 48 q 328 13 338 22 q 305 -2 318 4 q 276 -7 292 -7 q 248 -2 261 -7 q 224 13 234 4 q 209 35 214 22 q 203 63 203 48 l 203 549 z "},"U":{"ha":703,"x_min":64,"x_max":639,"o":"m 639 254 q 620 138 639 188 q 565 55 601 88 q 477 5 529 22 q 357 -11 424 -11 q 233 4 287 -11 q 141 52 178 20 q 83 135 103 85 q 64 254 64 185 l 64 614 q 69 642 64 629 q 85 664 75 655 q 108 679 95 674 q 137 684 121 684 q 165 679 152 684 q 188 664 178 674 q 204 642 198 655 q 210 614 210 629 l 210 254 q 247 148 210 184 q 357 111 284 111 q 459 148 425 111 q 493 254 493 184 l 493 614 q 499 642 493 629 q 514 664 504 655 q 537 679 524 674 q 566 684 551 684 q 594 679 581 684 q 618 664 608 674 q 633 642 628 655 q 639 614 639 629 l 639 254 z "},"V":{"ha":604,"x_min":14,"x_max":590,"o":"m 391 44 q 377 18 385 28 q 357 2 368 7 q 331 -6 346 -4 q 299 -8 317 -8 q 268 -6 282 -8 q 242 2 253 -4 q 222 18 231 7 q 208 44 214 28 l 23 573 q 14 614 15 594 q 22 650 14 634 q 46 674 29 665 q 90 684 62 684 q 137 668 120 684 q 166 618 155 652 l 301 160 l 303 160 l 444 618 q 471 668 454 652 q 514 684 488 684 q 557 675 540 684 q 582 651 573 666 q 590 616 590 636 q 581 573 590 596 l 391 44 z "},"W":{"ha":860,"x_min":14,"x_max":846,"o":"m 709 64 q 697 31 704 45 q 679 9 690 18 q 654 -3 669 1 q 618 -7 639 -7 q 582 -3 597 -7 q 557 11 568 2 q 540 34 547 20 q 529 67 534 48 l 431 470 l 429 470 l 331 67 q 320 34 327 48 q 303 11 313 20 q 278 -3 293 2 q 241 -7 263 -7 q 206 -3 221 -7 q 181 9 191 1 q 163 31 170 18 q 151 64 156 45 l 22 573 q 17 594 19 584 q 14 616 14 605 q 21 646 14 633 q 37 667 27 659 q 61 680 48 675 q 87 684 74 684 q 133 670 116 684 q 157 623 150 656 l 246 187 l 248 187 l 348 618 q 357 644 351 632 q 372 665 362 656 q 395 679 381 674 q 429 684 409 684 q 464 679 449 684 q 487 666 478 675 q 503 646 497 658 q 513 618 509 633 l 614 187 l 616 187 l 706 623 q 729 670 712 656 q 773 684 746 684 q 799 680 786 684 q 822 667 812 675 q 839 646 833 659 q 846 616 846 633 q 843 594 846 605 q 838 573 841 584 l 709 64 z "},"X":{"ha":550,"x_min":14,"x_max":538,"o":"m 188 348 l 31 569 q 17 608 19 588 q 23 646 15 629 q 48 674 31 663 q 90 686 65 686 q 114 682 103 686 q 131 673 124 679 q 144 661 139 668 q 153 649 149 655 l 275 455 l 398 648 q 409 664 404 657 q 422 675 415 671 q 438 682 429 680 q 459 684 447 684 q 498 674 481 684 q 524 649 515 665 q 532 614 533 633 q 518 576 531 595 l 359 348 l 518 114 q 533 83 528 98 q 537 54 538 68 q 528 28 536 40 q 504 6 520 16 q 474 -6 489 -3 q 444 -6 458 -9 q 417 6 430 -3 q 397 30 405 15 l 272 234 l 153 37 q 129 10 142 20 q 100 -5 115 -1 q 69 -6 85 -8 q 40 7 54 -3 q 20 31 26 18 q 14 59 14 44 q 19 89 14 74 q 33 117 24 103 l 188 348 z "},"Y":{"ha":586,"x_min":15,"x_max":571,"o":"m 218 271 l 27 576 q 15 614 16 595 q 24 649 15 634 q 50 675 33 665 q 90 685 67 685 q 114 682 104 685 q 132 674 124 679 q 146 660 140 668 q 158 641 152 652 l 296 400 l 433 641 q 446 662 439 653 q 460 675 452 670 q 477 682 468 680 q 497 685 486 685 q 536 675 519 685 q 562 650 553 666 q 571 615 571 635 q 559 576 571 596 l 368 271 l 368 66 q 363 36 368 50 q 348 12 358 22 q 324 -3 338 2 q 293 -8 310 -8 q 262 -3 276 -8 q 238 12 248 2 q 223 36 229 22 q 218 66 218 50 l 218 271 z "},"Z":{"ha":612,"x_min":20,"x_max":592,"o":"m 391 551 l 122 551 q 92 555 106 551 q 67 567 78 559 q 51 587 57 575 q 45 614 45 599 q 51 642 45 630 q 67 661 57 653 q 92 673 78 669 q 122 677 106 677 l 518 677 q 545 674 532 677 q 567 663 558 671 q 582 642 577 655 q 588 609 588 628 q 582 581 588 595 q 567 555 577 567 l 215 126 l 514 126 q 545 122 531 126 q 569 110 559 118 q 586 91 580 102 q 592 63 592 79 q 586 36 592 48 q 569 16 580 24 q 545 4 559 8 q 514 0 531 0 l 107 0 q 70 4 86 0 q 43 16 54 7 q 26 39 32 25 q 20 74 20 53 q 27 106 20 92 q 45 132 34 119 l 391 551 z "},"[":{"ha":303,"x_min":63,"x_max":306,"o":"m 193 -106 l 245 -106 q 270 -109 259 -106 q 289 -118 281 -112 q 301 -135 297 -125 q 306 -159 306 -145 q 301 -184 306 -174 q 289 -201 297 -194 q 270 -210 281 -207 q 245 -213 259 -213 l 143 -213 q 113 -209 127 -213 q 88 -197 99 -206 q 70 -171 77 -188 q 63 -130 63 -155 l 63 640 q 70 682 63 666 q 88 707 77 698 q 113 720 99 716 q 143 723 127 723 l 245 723 q 270 720 259 723 q 289 711 281 717 q 301 694 297 704 q 306 670 306 684 q 301 645 306 655 q 289 628 297 635 q 270 619 281 622 q 245 616 259 616 l 193 616 l 193 -106 z "},"\\":{"ha":378,"x_min":12,"x_max":366,"o":"m 20 624 q 15 640 17 632 q 12 656 12 648 q 17 676 12 667 q 30 692 22 685 q 46 701 37 698 q 64 704 56 704 q 89 700 79 704 q 104 691 98 696 q 114 678 111 685 q 120 665 118 671 l 357 65 q 363 49 360 57 q 366 33 366 41 q 361 13 366 22 q 348 -3 356 4 q 331 -12 340 -9 q 313 -16 322 -16 q 289 -12 298 -16 q 273 -2 279 -8 q 263 11 267 4 q 258 24 260 18 l 20 624 z "},"]":{"ha":303,"x_min":-4,"x_max":239,"o":"m 109 616 l 56 616 q 32 619 43 616 q 13 628 21 622 q 0 645 5 635 q -4 670 -4 655 q 0 694 -4 684 q 13 711 5 704 q 32 720 21 717 q 56 723 43 723 l 159 723 q 189 720 174 723 q 214 707 203 716 q 232 682 225 698 q 239 640 239 666 l 239 -130 q 232 -171 239 -155 q 214 -197 225 -188 q 189 -209 203 -206 q 159 -213 174 -213 l 56 -213 q 32 -210 43 -213 q 13 -201 21 -207 q 0 -184 5 -194 q -4 -159 -4 -174 q 0 -135 -4 -145 q 13 -118 5 -125 q 32 -109 21 -112 q 56 -106 43 -106 l 109 -106 l 109 616 z "},"^":{"ha":628,"x_min":75,"x_max":552,"o":"m 314 534 l 190 308 q 177 289 184 296 q 162 277 170 281 q 144 271 154 273 q 124 270 135 270 q 99 273 109 270 q 84 281 90 276 q 77 293 79 287 q 75 304 75 299 q 78 324 75 314 q 87 347 81 334 l 251 642 q 265 663 257 655 q 280 676 272 671 q 296 682 288 680 q 314 684 304 684 q 332 682 323 684 q 348 676 340 680 q 363 663 356 671 q 377 642 371 655 l 540 346 q 549 324 547 334 q 552 304 552 314 q 550 292 552 298 q 543 281 548 286 q 528 273 537 276 q 503 269 518 269 q 483 271 492 269 q 466 277 474 272 q 450 288 457 281 q 437 308 444 296 l 314 534 z "},"_":{"ha":476,"x_min":0,"x_max":476,"o":"m 43 -138 q 25 -134 33 -138 q 12 -124 18 -130 q 3 -109 6 -118 q 0 -91 0 -101 q 3 -73 0 -81 q 12 -58 6 -64 q 25 -48 18 -52 q 43 -44 33 -44 l 433 -44 q 451 -48 443 -44 q 465 -58 459 -52 q 473 -73 470 -64 q 476 -91 476 -81 q 473 -109 476 -101 q 465 -124 470 -118 q 451 -134 459 -130 q 433 -138 443 -138 l 43 -138 z "},"`":{"ha":340,"x_min":76,"x_max":262,"o":"m 246 605 q 260 573 258 589 q 256 544 262 557 q 237 525 250 531 q 205 523 224 518 q 198 525 202 524 q 190 529 195 526 q 180 536 186 531 q 168 549 175 541 l 100 623 q 85 642 92 632 q 78 663 79 652 q 80 685 76 674 q 96 706 84 695 q 121 719 109 717 q 144 717 133 722 q 167 703 156 713 q 189 680 178 693 l 246 605 z "},"a":{"ha":528,"x_min":24,"x_max":515,"o":"m 480 123 q 482 99 480 109 q 488 82 485 89 q 496 71 492 76 q 504 62 500 66 q 510 53 508 58 q 514 41 513 48 q 511 18 515 28 q 497 2 506 8 q 477 -8 489 -5 q 454 -12 466 -12 q 411 -7 429 -13 q 381 8 393 -2 q 362 34 369 19 q 356 68 356 49 q 315 31 336 46 q 272 6 294 15 q 224 -8 249 -4 q 174 -12 200 -12 q 119 -2 146 -12 q 71 26 92 7 q 37 70 50 44 q 24 128 24 96 q 39 199 24 171 q 79 245 54 228 q 138 273 104 263 q 209 287 171 282 l 290 296 q 312 300 302 297 q 331 308 323 302 q 343 322 338 313 q 348 347 348 332 q 341 372 348 361 q 322 390 334 383 q 296 400 311 397 q 264 403 280 403 q 222 398 239 403 q 192 384 205 392 q 170 366 180 375 q 152 347 161 356 q 133 333 143 339 q 111 328 124 328 q 88 332 98 328 q 70 344 77 336 q 58 360 62 351 q 54 380 54 370 q 68 423 54 401 q 108 463 82 445 q 174 493 135 481 q 265 505 214 505 q 352 496 313 505 q 420 471 392 488 q 464 427 448 454 q 480 363 480 400 l 480 123 m 348 232 q 335 223 342 227 q 319 217 327 219 q 304 213 311 214 q 290 210 296 211 l 242 202 q 205 194 221 199 q 179 181 190 189 q 163 162 168 173 q 157 135 157 151 q 162 113 157 123 q 177 95 167 103 q 200 83 186 87 q 231 78 214 78 q 279 87 258 78 q 316 109 301 95 q 339 141 331 123 q 348 178 348 159 l 348 232 z "},"b":{"ha":576,"x_min":48,"x_max":552,"o":"m 48 620 q 67 671 48 654 q 117 689 85 689 q 168 671 150 689 q 185 620 185 654 l 185 434 l 188 434 q 247 486 209 468 q 333 504 285 504 q 401 494 370 504 q 456 467 432 484 q 498 426 480 449 q 528 374 516 402 q 546 313 540 345 q 552 249 552 282 q 534 133 552 182 q 485 52 515 84 q 414 4 454 20 q 329 -12 373 -12 q 279 -7 302 -12 q 237 9 256 -1 q 202 36 217 20 q 179 74 188 53 l 177 74 l 177 53 q 161 5 177 21 q 113 -12 144 -12 q 64 5 80 -12 q 48 53 48 21 l 48 620 m 413 244 q 411 278 413 261 q 403 313 409 296 q 389 346 398 330 q 368 373 380 361 q 337 391 355 384 q 297 398 320 398 q 241 385 263 398 q 203 348 218 371 q 183 299 189 326 q 176 244 176 271 q 183 188 176 215 q 205 140 190 160 q 242 106 220 119 q 297 94 265 94 q 347 106 326 94 q 384 139 369 119 q 406 187 398 160 q 413 244 413 214 z "},"c":{"ha":505,"x_min":22,"x_max":477,"o":"m 22 236 q 39 345 22 296 q 87 430 55 395 q 167 486 119 466 q 277 506 215 506 q 356 494 320 506 q 419 465 393 483 q 461 423 446 447 q 476 376 476 400 q 471 349 476 360 q 457 330 466 338 q 436 319 448 322 q 412 315 425 315 q 393 318 401 315 q 379 326 385 321 q 368 337 373 331 q 359 350 363 343 q 347 366 353 358 q 330 381 340 374 q 307 391 321 387 q 274 395 293 395 q 234 388 254 395 q 197 362 214 380 q 170 313 181 344 q 160 236 160 282 q 168 179 160 204 q 189 135 175 153 q 224 107 203 117 q 273 97 245 97 q 304 101 291 97 q 327 113 317 106 q 343 128 336 120 q 356 145 350 137 q 367 160 362 153 q 380 173 373 167 q 396 182 387 178 q 418 185 406 185 q 442 181 431 185 q 460 168 453 176 q 473 151 468 161 q 477 131 477 141 q 471 99 477 116 q 454 66 466 82 q 425 36 443 51 q 385 11 408 22 q 333 -6 362 0 q 269 -13 303 -13 q 160 6 206 -13 q 83 58 113 24 q 37 137 52 91 q 22 236 22 182 z "},"d":{"ha":576,"x_min":24,"x_max":528,"o":"m 528 53 q 512 5 528 21 q 463 -12 496 -12 q 415 5 432 -12 q 399 53 399 21 l 399 74 l 397 74 q 374 36 389 53 q 340 9 359 20 q 297 -7 320 -1 q 248 -12 273 -12 q 162 4 203 -12 q 91 52 122 20 q 43 133 61 84 q 24 249 24 182 q 30 313 24 282 q 48 374 36 345 q 78 426 60 402 q 120 467 96 449 q 175 494 144 484 q 243 504 206 504 q 329 486 291 504 q 388 434 367 468 l 391 434 l 391 620 q 408 671 391 654 q 459 689 426 689 q 509 671 491 689 q 528 620 528 654 l 528 53 m 163 244 q 170 187 163 214 q 192 139 178 160 q 229 106 207 119 q 279 94 250 94 q 334 106 311 94 q 371 140 356 119 q 393 188 386 160 q 400 244 400 215 q 393 299 400 271 q 373 348 387 326 q 335 385 358 371 q 279 398 312 398 q 239 391 256 398 q 209 373 221 384 q 187 346 196 361 q 173 313 178 330 q 165 278 168 296 q 163 244 163 261 z "},"e":{"ha":543,"x_min":24,"x_max":516,"o":"m 390 298 q 378 342 388 322 q 353 377 368 362 q 320 400 339 391 q 278 408 300 408 q 233 400 253 408 q 198 378 213 392 q 173 344 183 364 q 157 298 163 323 l 390 298 m 157 212 q 167 164 158 186 q 192 127 176 143 q 230 102 208 111 q 280 94 252 94 q 322 99 305 94 q 352 111 340 104 q 374 127 365 119 q 392 144 384 136 q 411 156 401 151 q 434 161 420 161 q 456 157 446 161 q 473 144 466 152 q 484 127 480 137 q 488 108 488 117 q 478 70 488 87 q 452 39 469 53 q 414 16 436 26 q 370 -1 393 6 q 323 -11 347 -7 q 280 -14 300 -14 q 197 -4 234 -14 q 131 24 160 6 q 83 66 103 42 q 50 118 62 90 q 31 176 37 145 q 24 236 24 206 q 42 346 24 296 q 91 430 59 395 q 170 485 123 465 q 275 504 216 504 q 346 495 314 504 q 406 471 379 486 q 453 434 432 455 q 488 387 474 412 q 509 334 502 362 q 516 278 516 307 q 513 248 516 261 q 503 228 510 236 q 485 216 497 220 q 457 212 474 212 l 157 212 z "},"f":{"ha":297,"x_min":3,"x_max":308,"o":"m 73 404 l 56 404 q 15 415 28 404 q 3 448 3 426 q 15 482 3 471 q 56 493 28 493 l 73 493 l 73 555 q 85 612 73 587 q 117 653 97 636 q 164 678 138 670 q 220 687 191 687 q 254 683 238 687 q 282 671 271 679 q 301 651 294 663 q 308 622 308 638 q 305 604 308 612 q 296 589 301 595 q 282 578 290 582 q 265 575 274 575 q 250 576 257 575 q 236 578 243 578 q 215 569 221 578 q 209 546 209 560 l 209 493 l 234 493 q 279 483 264 493 q 295 448 295 473 q 279 414 295 424 q 234 404 264 404 l 209 404 l 209 56 q 204 26 209 39 q 190 5 199 14 q 168 -8 181 -3 q 141 -12 156 -12 q 113 -8 125 -12 q 92 5 101 -3 q 78 26 83 14 q 73 56 73 39 l 73 404 z "},"g":{"ha":565,"x_min":24,"x_max":516,"o":"m 163 242 q 169 193 163 218 q 188 150 175 169 q 223 119 202 131 q 274 106 244 106 q 317 115 297 106 q 351 140 337 123 q 375 184 366 157 q 383 248 383 210 q 376 313 383 286 q 356 359 369 341 q 324 386 343 377 q 280 394 304 394 q 224 383 247 394 q 188 351 202 371 q 169 302 174 330 q 163 242 163 274 m 516 31 q 498 -79 516 -33 q 447 -156 479 -126 q 368 -202 414 -187 q 269 -216 323 -216 q 216 -212 242 -216 q 167 -201 191 -209 q 124 -184 144 -194 q 90 -160 105 -173 q 68 -132 76 -148 q 60 -100 60 -117 q 64 -76 60 -87 q 77 -57 69 -65 q 95 -45 84 -50 q 117 -41 105 -41 q 142 -46 131 -41 q 163 -59 153 -51 q 183 -77 173 -67 q 204 -94 192 -86 q 230 -107 216 -102 q 264 -113 244 -113 q 318 -104 296 -113 q 355 -77 341 -96 q 376 -30 370 -59 q 383 41 383 0 l 383 70 l 381 70 q 358 44 372 56 q 326 23 343 32 q 288 8 308 14 q 247 3 268 3 q 150 20 192 3 q 81 68 109 37 q 38 142 53 99 q 24 237 24 185 q 42 356 24 306 q 89 439 59 406 q 159 488 119 472 q 242 504 198 504 q 290 498 268 504 q 331 482 312 493 q 365 455 350 471 q 389 420 379 440 l 391 420 l 391 438 q 407 487 391 470 q 453 504 422 504 q 501 487 486 504 q 516 438 516 470 l 516 31 z "},"h":{"ha":558,"x_min":48,"x_max":511,"o":"m 511 55 q 505 29 511 40 q 490 10 500 18 q 468 -3 481 2 q 443 -7 456 -7 q 417 -3 430 -7 q 396 10 405 2 q 381 29 386 18 q 375 55 375 40 l 375 278 q 355 370 375 339 q 289 400 336 400 q 242 392 262 400 q 210 367 222 384 q 191 323 197 350 q 185 258 185 296 l 185 55 q 179 29 185 40 q 164 9 173 17 q 142 -3 154 1 q 116 -7 130 -7 q 91 -2 103 -7 q 69 10 78 2 q 54 29 60 18 q 48 55 48 41 l 48 627 q 54 651 48 640 q 67 669 59 662 q 88 681 76 676 q 113 685 100 685 q 138 681 126 685 q 159 669 150 676 q 173 651 168 662 q 178 627 178 640 l 178 437 l 180 437 q 214 472 197 458 q 251 493 232 485 q 290 504 270 501 q 331 507 310 507 q 420 492 385 507 q 475 451 455 477 q 503 386 495 424 q 511 303 511 349 l 511 55 z "},"i":{"ha":233,"x_min":48,"x_max":185,"o":"m 185 58 q 179 32 185 44 q 165 11 174 20 q 143 -2 156 3 q 117 -7 131 -7 q 90 -2 102 -7 q 68 11 78 3 q 54 32 59 20 q 48 58 48 44 l 48 439 q 54 464 48 453 q 68 484 59 476 q 90 496 78 492 q 117 500 102 500 q 143 496 131 500 q 165 484 156 492 q 179 464 174 476 q 185 439 185 453 l 185 58 m 48 615 q 54 642 48 629 q 68 663 59 654 q 90 678 78 672 q 117 683 102 683 q 143 678 131 683 q 165 663 156 672 q 179 642 174 654 q 185 615 185 629 q 179 588 185 601 q 165 567 174 576 q 143 552 156 558 q 117 547 131 547 q 90 552 102 547 q 68 567 78 558 q 54 588 59 576 q 48 615 48 601 z "},"j":{"ha":247,"x_min":-16,"x_max":199,"o":"m 63 434 q 66 460 63 447 q 77 481 70 472 q 98 496 85 491 q 131 502 111 502 q 164 496 151 502 q 185 481 177 491 q 196 460 193 472 q 199 434 199 447 l 199 -60 q 192 -124 199 -97 q 168 -169 184 -152 q 125 -196 151 -187 q 61 -205 99 -205 q 3 -190 21 -205 q -16 -146 -16 -176 q -4 -110 -16 -120 q 29 -99 7 -99 l 44 -99 q 58 -92 54 -99 q 63 -75 63 -84 l 63 434 m 62 615 q 67 642 62 629 q 82 663 73 654 q 104 678 91 672 q 130 683 116 683 q 157 678 144 683 q 178 663 169 672 q 193 642 188 654 q 198 615 198 629 q 193 588 198 601 q 178 567 188 576 q 157 552 169 558 q 130 547 144 547 q 104 552 116 547 q 82 567 91 558 q 67 588 73 576 q 62 615 62 601 z "},"k":{"ha":498,"x_min":48,"x_max":482,"o":"m 48 620 q 53 649 48 636 q 67 670 58 662 q 88 683 76 679 q 116 688 100 688 q 165 670 146 688 q 183 620 183 653 l 183 310 l 333 478 q 356 496 343 489 q 384 504 369 504 q 407 499 396 504 q 428 486 418 494 q 442 466 437 478 q 448 442 448 455 q 446 427 448 433 q 442 416 445 420 q 436 406 439 411 q 428 397 432 402 l 328 292 l 468 102 q 477 86 472 97 q 482 58 482 75 q 477 33 482 45 q 464 12 472 21 q 443 -3 455 2 q 418 -8 432 -8 q 396 -6 406 -8 q 379 2 387 -3 q 367 12 372 6 q 357 23 361 18 l 230 205 l 183 153 l 183 59 q 165 9 183 26 q 116 -8 146 -8 q 88 -4 100 -8 q 67 9 76 0 q 53 30 58 17 q 48 59 48 43 l 48 620 z "},"l":{"ha":246,"x_min":55,"x_max":191,"o":"m 191 58 q 186 32 191 44 q 171 11 180 20 q 150 -2 162 3 q 123 -7 137 -7 q 96 -2 109 -7 q 75 11 84 3 q 60 32 66 20 q 55 58 55 44 l 55 624 q 60 649 55 638 q 75 669 66 661 q 96 681 84 676 q 123 685 109 685 q 150 681 137 685 q 171 669 162 676 q 186 649 180 661 q 191 624 191 638 l 191 58 z "},"m":{"ha":850,"x_min":48,"x_max":801,"o":"m 48 435 q 65 484 48 466 q 112 503 82 503 q 158 484 141 503 q 175 435 175 466 l 175 417 l 177 417 q 246 480 204 458 q 339 503 288 503 q 376 498 357 503 q 413 484 395 494 q 447 458 431 474 q 471 417 462 441 q 502 453 486 437 q 536 480 517 469 q 577 497 555 491 q 627 503 600 503 q 694 494 662 503 q 749 466 725 486 q 787 415 773 447 q 801 338 801 384 l 801 61 q 798 35 801 47 q 787 13 794 22 q 766 -2 779 4 q 733 -7 753 -7 q 701 -2 714 -7 q 680 13 688 4 q 669 35 672 22 q 666 61 666 47 l 666 305 q 661 340 666 323 q 646 368 656 356 q 621 387 636 380 q 587 394 606 394 q 550 386 567 394 q 520 364 533 378 q 499 329 507 349 q 492 286 492 309 l 492 61 q 488 35 492 47 q 478 13 485 22 q 457 -2 470 4 q 424 -7 444 -7 q 391 -2 405 -7 q 371 13 378 4 q 360 35 363 22 q 357 61 357 47 l 357 305 q 352 340 357 323 q 338 368 348 356 q 315 387 329 380 q 280 394 300 394 q 243 386 261 394 q 212 364 226 378 q 191 329 199 349 q 183 286 183 309 l 183 61 q 180 35 183 47 q 169 13 176 22 q 148 -2 161 4 q 115 -7 135 -7 q 83 -2 96 -7 q 62 13 70 4 q 51 35 54 22 q 48 61 48 47 l 48 435 z "},"n":{"ha":560,"x_min":49,"x_max":511,"o":"m 49 439 q 63 488 49 470 q 110 507 78 507 q 156 488 141 507 q 171 439 171 470 l 171 422 q 203 456 185 440 q 241 483 220 472 q 285 500 261 494 q 338 507 310 507 q 379 503 359 507 q 419 491 400 499 q 455 469 438 483 q 484 436 472 456 q 504 390 497 416 q 511 330 511 363 l 511 60 q 508 35 511 47 q 497 13 505 22 q 477 -1 490 4 q 444 -7 464 -7 q 411 -1 424 -7 q 390 13 398 4 q 380 35 383 22 q 376 60 376 47 l 376 303 q 371 340 376 323 q 354 370 365 357 q 327 389 343 382 q 289 396 310 396 q 252 389 271 396 q 218 368 234 382 q 193 335 203 355 q 183 290 183 315 l 183 60 q 180 35 183 47 q 169 13 177 22 q 149 -1 162 4 q 116 -7 136 -7 q 83 -1 96 -7 q 63 13 70 4 q 52 35 55 22 q 49 60 49 47 l 49 439 z "},"o":{"ha":558,"x_min":25,"x_max":535,"o":"m 25 246 q 43 353 25 305 q 94 435 61 400 q 174 487 127 469 q 279 506 221 506 q 385 487 337 506 q 465 435 432 469 q 517 353 498 400 q 535 246 535 305 q 517 139 535 187 q 465 57 498 91 q 385 5 432 23 q 279 -14 337 -14 q 174 5 221 -14 q 94 57 127 23 q 43 139 61 91 q 25 246 25 187 m 161 246 q 167 189 161 216 q 186 139 172 161 q 222 105 199 118 q 279 92 245 92 q 337 105 314 92 q 375 139 360 118 q 394 189 389 161 q 400 246 400 216 q 394 303 400 275 q 375 352 389 331 q 337 387 360 374 q 279 400 314 400 q 222 387 245 400 q 186 352 199 374 q 167 303 172 331 q 161 246 161 275 z "},"p":{"ha":576,"x_min":48,"x_max":552,"o":"m 48 440 q 64 488 48 472 q 113 505 80 505 q 161 488 144 505 q 177 440 177 472 l 177 418 l 179 418 q 202 456 188 440 q 237 483 217 473 q 279 499 256 494 q 329 505 302 505 q 414 489 373 505 q 485 441 454 473 q 534 359 515 408 q 552 244 552 310 q 546 179 552 211 q 528 119 540 148 q 498 67 516 91 q 456 26 480 43 q 401 -1 432 8 q 333 -11 370 -11 q 247 7 285 -11 q 188 58 209 25 l 185 58 l 185 -127 q 168 -179 185 -161 q 117 -196 150 -196 q 67 -179 85 -196 q 48 -127 48 -161 l 48 440 m 413 248 q 406 306 413 279 q 384 353 398 333 q 347 386 369 374 q 297 399 326 398 q 242 387 265 399 q 205 353 220 374 q 183 305 190 332 q 176 248 176 278 q 183 194 176 221 q 203 144 189 166 q 241 108 218 122 q 297 95 263 94 q 337 102 320 95 q 368 120 355 109 q 389 147 380 132 q 403 180 398 162 q 411 214 409 197 q 413 248 413 232 z "},"q":{"ha":576,"x_min":25,"x_max":528,"o":"m 528 -127 q 510 -179 528 -161 q 459 -196 492 -196 q 409 -179 427 -196 q 391 -127 391 -161 l 391 58 l 389 58 q 330 7 368 25 q 244 -11 292 -11 q 175 -1 206 -11 q 120 26 144 8 q 78 67 96 43 q 48 119 60 91 q 31 179 36 148 q 25 244 25 211 q 43 359 25 310 q 92 441 61 408 q 163 489 122 473 q 248 505 203 505 q 297 499 274 505 q 340 483 320 494 q 374 456 359 473 q 398 418 389 440 l 399 418 l 399 440 q 416 488 399 472 q 464 505 432 505 q 512 488 497 505 q 528 440 528 472 l 528 -127 m 163 248 q 166 214 163 232 q 173 180 168 197 q 187 147 178 162 q 209 120 196 132 q 239 102 222 109 q 280 95 257 95 q 336 108 313 94 q 373 144 359 122 q 394 194 387 166 q 400 248 400 221 q 393 305 400 278 q 371 353 386 332 q 334 387 357 374 q 280 399 311 399 q 229 386 251 398 q 193 353 207 374 q 171 306 178 333 q 163 248 163 279 z "},"r":{"ha":356,"x_min":49,"x_max":358,"o":"m 49 437 q 54 464 49 452 q 66 483 58 475 q 86 495 75 491 q 110 499 97 499 q 134 495 122 499 q 153 483 145 491 q 166 464 161 475 q 171 437 171 452 l 171 389 l 172 389 q 187 430 178 410 q 209 465 196 450 q 241 490 223 480 q 284 499 259 499 q 313 495 300 499 q 337 481 327 490 q 352 460 347 472 q 358 434 358 448 q 352 402 358 415 q 337 382 346 390 q 316 370 328 374 q 291 367 304 367 l 275 367 q 238 359 255 367 q 209 334 221 351 q 190 288 197 316 q 183 217 183 259 l 183 59 q 180 33 183 45 q 169 12 177 21 q 149 -3 162 2 q 116 -8 136 -8 q 83 -3 96 -8 q 63 12 70 2 q 52 33 55 21 q 49 59 49 45 l 49 437 z "},"s":{"ha":502,"x_min":34,"x_max":475,"o":"m 34 352 q 43 401 34 379 q 66 440 51 424 q 102 469 81 457 q 145 489 122 481 q 192 500 168 496 q 241 504 217 504 q 293 500 267 504 q 342 490 319 497 q 386 475 366 484 q 420 455 406 466 q 443 429 435 443 q 452 400 452 416 q 448 377 452 388 q 436 358 444 367 q 418 345 429 350 q 394 340 408 340 q 370 345 381 340 q 351 357 360 350 q 332 372 341 363 q 312 387 323 380 q 286 398 300 394 q 252 403 271 403 q 219 400 233 403 q 194 393 204 398 q 178 380 183 388 q 172 361 172 372 q 178 341 172 349 q 193 328 183 333 q 216 319 203 323 q 245 312 230 316 l 303 299 q 343 289 323 295 q 383 275 364 283 q 419 255 402 267 q 448 230 436 244 q 468 196 461 215 q 475 154 475 177 q 467 103 475 126 q 444 62 458 80 q 408 31 429 44 q 364 9 388 18 q 315 -4 340 0 q 263 -8 289 -8 q 174 1 216 -8 q 102 27 133 11 q 52 66 70 44 q 34 114 34 89 q 37 135 34 125 q 47 153 40 145 q 65 166 54 161 q 90 171 75 171 q 116 164 105 171 q 139 149 128 158 q 160 129 149 139 q 185 108 171 118 q 216 93 198 99 q 257 86 233 86 q 290 90 276 86 q 316 101 305 94 q 332 116 326 107 q 337 136 337 125 q 332 158 337 149 q 316 174 327 167 q 291 186 306 181 q 258 195 276 191 l 177 215 q 121 231 146 222 q 75 256 95 241 q 45 294 56 271 q 34 352 34 317 z "},"t":{"ha":311,"x_min":0,"x_max":313,"o":"m 77 404 l 54 404 q 13 415 25 404 q 0 449 0 426 q 13 482 0 471 q 54 493 25 493 l 77 493 l 77 578 q 95 628 77 611 q 144 645 114 645 q 193 628 175 645 q 212 578 212 611 l 212 493 l 252 493 q 298 483 282 493 q 313 449 313 473 q 298 414 313 424 q 252 404 282 404 l 212 404 l 212 128 q 247 97 212 97 l 266 97 q 301 85 289 97 q 313 51 313 73 q 289 7 313 22 q 215 -8 264 -8 q 152 -1 179 -8 q 109 22 126 6 q 85 59 93 37 q 77 111 77 81 l 77 404 z "},"u":{"ha":568,"x_min":53,"x_max":515,"o":"m 515 54 q 501 5 515 23 q 454 -14 486 -14 q 408 5 422 -14 q 393 54 393 23 l 393 71 q 361 37 378 53 q 323 10 344 21 q 279 -7 303 -1 q 225 -14 254 -14 q 184 -10 205 -14 q 145 2 164 -6 q 109 24 125 10 q 80 57 92 37 q 60 103 67 77 q 53 163 53 129 l 53 433 q 56 458 53 446 q 67 480 59 471 q 87 494 74 489 q 120 500 100 500 q 153 494 140 500 q 174 480 166 489 q 185 458 182 471 q 188 433 188 446 l 188 190 q 194 153 188 170 q 210 123 199 136 q 237 104 221 111 q 275 97 254 97 q 312 104 293 97 q 346 125 330 111 q 370 158 361 138 q 380 203 380 178 l 380 433 q 383 458 380 446 q 394 480 387 471 q 415 494 402 489 q 448 500 428 500 q 481 494 468 500 q 501 480 494 489 q 512 458 509 471 q 515 433 515 446 l 515 54 z "},"v":{"ha":466,"x_min":8,"x_max":458,"o":"m 15 404 q 9 442 8 424 q 19 473 11 459 q 41 494 27 486 q 74 501 55 501 q 106 494 93 501 q 126 478 118 488 q 137 459 133 469 q 142 445 140 450 l 232 137 l 234 137 l 324 445 q 329 459 326 450 q 340 478 333 469 q 360 494 348 488 q 392 501 373 501 q 425 493 411 501 q 448 472 439 486 q 457 441 456 459 q 451 402 458 423 l 324 45 q 314 21 319 32 q 299 4 308 11 q 274 -6 289 -2 q 233 -9 258 -9 q 192 -6 208 -9 q 167 5 177 -2 q 152 22 158 12 q 142 46 147 32 l 15 404 z "},"w":{"ha":711,"x_min":9,"x_max":704,"o":"m 15 400 q 10 436 9 419 q 17 468 11 454 q 36 491 23 482 q 67 501 49 499 q 96 498 84 503 q 117 484 109 493 q 132 463 126 475 q 141 436 137 450 l 212 147 l 214 147 l 272 415 q 282 451 276 435 q 296 478 287 467 q 319 495 305 489 q 356 501 334 502 q 395 495 379 501 q 419 478 410 489 q 433 451 428 467 q 443 415 438 435 l 503 147 l 504 147 l 571 436 q 579 463 574 450 q 592 484 584 475 q 612 498 600 493 q 642 501 624 502 q 675 491 662 500 q 695 469 688 483 q 703 439 702 456 q 698 405 704 422 l 595 64 q 581 26 588 40 q 564 4 573 12 q 541 -6 554 -4 q 507 -8 527 -8 q 472 -4 486 -8 q 448 9 458 0 q 433 32 439 18 q 422 66 428 46 l 357 330 l 355 330 l 289 64 q 278 30 284 44 q 263 7 272 16 q 240 -5 254 -1 q 204 -8 225 -8 q 171 -6 184 -8 q 148 4 157 -4 q 131 26 138 12 q 117 64 124 40 l 15 400 z "},"x":{"ha":435,"x_min":10,"x_max":424,"o":"m 128 18 q 108 0 121 8 q 76 -8 94 -8 q 52 -4 63 -8 q 31 9 40 1 q 16 29 21 17 q 10 54 10 40 q 15 74 10 63 q 28 97 20 84 l 132 250 l 26 399 q 14 432 16 414 q 20 465 13 450 q 43 491 27 481 q 84 502 59 502 q 114 494 101 502 q 139 468 127 487 l 223 339 l 299 462 q 314 483 306 475 q 329 495 321 491 q 345 500 337 499 q 360 502 352 502 q 383 497 372 502 q 402 484 394 492 q 416 466 411 476 q 421 444 421 455 q 417 418 421 429 q 408 398 414 408 l 307 250 l 411 95 q 420 78 417 87 q 424 54 424 69 q 420 31 424 42 q 406 11 415 19 q 385 -3 397 2 q 356 -8 372 -8 q 337 -5 346 -8 q 321 3 329 -2 q 307 17 314 9 q 294 36 300 25 l 217 159 l 128 18 z "},"y":{"ha":468,"x_min":9,"x_max":459,"o":"m 240 164 l 326 441 q 335 465 329 454 q 348 484 340 476 q 366 497 356 492 q 390 502 376 502 q 432 492 417 502 q 453 468 447 483 q 458 437 459 454 q 452 405 457 420 l 288 -52 q 262 -113 275 -87 q 230 -157 248 -139 q 189 -183 212 -174 q 134 -192 165 -192 q 95 -187 111 -192 q 69 -173 79 -182 q 53 -154 58 -165 q 48 -131 48 -143 q 53 -107 48 -117 q 66 -90 58 -97 q 86 -80 74 -83 q 111 -76 97 -76 l 124 -76 q 137 -75 131 -76 q 150 -71 144 -75 q 162 -58 157 -66 q 171 -34 168 -49 l 180 0 l 25 374 q 18 396 21 387 q 13 412 15 405 q 10 425 11 419 q 9 437 9 431 q 14 463 9 451 q 28 483 19 474 q 49 497 37 492 q 74 502 61 502 q 119 488 101 502 q 143 451 137 474 l 240 164 z "},"z":{"ha":496,"x_min":19,"x_max":476,"o":"m 290 387 l 95 387 q 76 390 86 387 q 59 399 67 393 q 46 415 51 405 q 41 440 41 426 q 46 465 41 455 q 59 481 51 475 q 76 490 67 487 q 95 493 86 493 l 415 493 q 457 476 443 493 q 471 433 471 460 q 465 411 471 422 q 450 388 459 399 l 200 105 l 422 105 q 441 102 431 105 q 458 93 451 100 q 471 77 466 87 q 476 53 476 67 q 471 28 476 38 q 458 12 466 18 q 441 3 451 5 q 422 0 431 0 l 79 0 q 53 4 64 0 q 34 16 41 9 q 23 33 26 24 q 19 53 19 42 q 23 79 19 67 q 36 101 27 92 l 290 387 z "},"{":{"ha":356,"x_min":15,"x_max":357,"o":"m 242 355 q 237 317 242 333 q 223 291 232 301 q 204 274 215 280 q 181 264 193 267 q 159 259 170 260 q 139 256 148 257 l 139 254 q 159 252 148 253 q 181 247 170 250 q 204 237 193 243 q 223 220 215 230 q 237 193 232 209 q 242 155 242 177 l 242 -65 q 246 -91 242 -81 q 255 -109 249 -102 q 270 -118 261 -115 q 289 -121 278 -121 l 313 -121 q 345 -134 332 -121 q 357 -168 357 -146 q 345 -201 357 -190 q 313 -213 332 -213 l 240 -213 q 145 -181 177 -213 q 113 -82 113 -150 l 113 142 q 109 178 113 164 q 97 198 104 191 q 81 206 90 204 q 63 208 72 208 q 42 212 51 208 q 27 223 33 216 q 18 238 21 229 q 15 255 15 247 q 18 272 15 264 q 27 287 21 281 q 42 298 33 294 q 63 302 51 302 q 81 304 72 302 q 97 312 90 306 q 109 332 104 319 q 113 368 113 346 l 113 592 q 145 691 113 660 q 240 722 177 722 l 313 722 q 345 711 332 722 q 357 678 357 700 q 345 643 357 655 q 313 631 332 631 l 289 631 q 270 628 278 631 q 255 618 261 625 q 246 601 249 612 q 242 575 242 590 l 242 355 z "},"|":{"ha":236,"x_min":56,"x_max":180,"o":"m 56 694 q 61 718 56 707 q 74 736 65 728 q 94 748 82 744 q 118 753 105 753 q 142 748 131 753 q 162 736 154 744 q 175 718 171 728 q 180 694 180 707 l 180 -148 q 175 -172 180 -161 q 162 -190 171 -182 q 142 -202 154 -198 q 118 -207 131 -207 q 94 -202 105 -207 q 74 -190 82 -198 q 61 -172 65 -182 q 56 -148 56 -161 l 56 694 z "},"}":{"ha":356,"x_min":-2,"x_max":340,"o":"m 113 575 q 110 601 113 590 q 100 618 106 612 q 86 628 94 625 q 67 631 77 631 l 43 631 q 11 643 23 631 q -2 678 -2 655 q 11 711 -2 700 q 43 722 23 722 l 115 722 q 211 691 179 722 q 243 592 243 660 l 243 368 q 247 332 243 346 q 259 312 252 319 q 275 304 266 306 q 293 302 284 302 q 314 298 305 302 q 329 287 323 294 q 338 272 335 281 q 340 255 340 264 q 338 238 340 247 q 329 223 335 229 q 314 212 323 216 q 293 208 305 208 q 275 206 284 208 q 259 198 266 204 q 247 178 252 191 q 243 142 243 164 l 243 -82 q 211 -181 243 -150 q 115 -213 179 -213 l 43 -213 q 11 -201 23 -213 q -2 -168 -2 -190 q 11 -134 -2 -146 q 43 -121 23 -121 l 67 -121 q 86 -118 77 -121 q 100 -109 94 -115 q 110 -91 106 -102 q 113 -65 113 -81 l 113 155 q 119 193 113 177 q 132 220 124 209 q 152 237 141 230 q 174 247 163 243 q 197 252 186 250 q 216 254 208 253 l 216 256 q 197 259 208 257 q 174 264 186 260 q 152 274 163 267 q 132 291 141 280 q 119 317 124 301 q 113 355 113 333 l 113 575 z "},"~":{"ha":565,"x_min":38,"x_max":515,"o":"m 515 278 q 506 236 515 258 q 480 197 497 214 q 437 168 462 179 q 380 157 412 157 q 343 161 362 157 q 306 173 325 166 q 270 188 288 180 q 236 203 253 196 q 206 215 220 210 q 180 219 192 219 q 157 215 167 219 q 139 205 148 211 q 124 192 131 199 q 110 178 117 184 q 95 168 103 172 q 77 164 87 164 q 59 168 66 164 q 47 178 51 172 q 40 192 42 184 q 38 208 38 200 q 47 251 38 229 q 73 290 56 272 q 114 319 90 308 q 168 330 138 330 q 207 325 188 330 q 245 314 227 321 q 282 299 264 307 q 317 283 300 291 q 347 272 333 276 q 374 267 362 267 q 396 271 386 267 q 414 282 406 275 q 429 295 422 288 q 444 308 436 302 q 458 319 451 315 q 476 323 466 323 q 495 319 487 323 q 507 309 502 315 q 513 294 511 302 q 515 278 515 287 z "},"£":{"ha":568,"x_min":25,"x_max":535,"o":"m 331 373 q 374 362 360 373 q 388 328 388 351 q 374 295 388 306 q 331 284 360 284 l 258 284 q 262 273 260 278 q 263 262 263 268 q 255 220 263 242 q 234 178 247 198 q 204 139 221 157 q 169 107 187 121 l 171 105 q 194 115 183 110 q 217 124 205 120 q 243 131 229 128 q 273 134 256 134 q 313 131 295 134 q 348 124 332 128 q 380 118 364 121 q 413 115 395 115 q 428 117 419 115 q 448 120 438 118 q 467 124 457 122 q 481 125 476 125 q 504 121 494 125 q 521 108 514 116 q 532 90 528 100 q 535 66 535 79 q 526 31 535 45 q 501 6 516 16 q 467 -8 486 -3 q 429 -12 448 -12 q 381 -6 406 -12 q 330 6 356 -1 q 275 18 303 12 q 217 23 247 23 q 192 22 203 23 q 172 18 181 20 q 156 12 163 15 q 143 5 149 9 q 132 -1 137 2 q 121 -6 126 -4 q 110 -10 115 -9 q 97 -12 104 -12 q 71 -7 82 -12 q 53 6 60 -2 q 41 26 45 15 q 38 52 38 38 q 45 80 38 66 q 63 106 52 93 q 86 133 73 119 q 109 163 98 147 q 126 197 119 178 q 134 238 134 215 q 131 262 134 251 q 123 284 128 274 l 75 284 q 38 295 52 284 q 25 328 25 306 q 36 361 25 349 q 68 373 47 373 l 93 373 q 80 397 86 383 q 70 427 74 411 q 63 458 65 442 q 60 488 60 474 q 68 542 60 517 q 91 589 76 568 q 127 628 106 611 q 174 658 148 646 q 229 676 199 670 q 291 683 259 683 q 365 676 332 683 q 425 658 398 669 q 472 631 452 646 q 505 597 492 615 q 525 561 518 580 q 531 524 531 542 q 526 497 531 509 q 512 476 521 485 q 490 464 503 468 q 462 460 477 460 q 437 465 447 460 q 421 477 428 470 q 410 495 414 485 q 400 516 405 506 q 389 537 395 527 q 372 555 382 547 q 345 567 361 563 q 306 572 330 572 q 267 566 286 572 q 233 548 248 560 q 209 520 218 537 q 200 480 200 503 q 203 454 200 468 q 210 425 205 439 q 219 397 214 410 q 231 373 225 383 l 331 373 z "},"¢":{"ha":554,"x_min":50,"x_max":483,"o":"m 255 477 q 226 463 240 473 q 200 435 211 453 q 183 392 190 417 q 176 331 176 366 q 196 245 176 279 q 255 202 216 211 l 255 477 m 255 98 q 163 120 202 101 q 99 170 124 139 q 62 242 74 201 q 50 331 50 283 q 63 426 50 382 q 101 503 76 470 q 165 556 127 535 q 255 581 204 576 l 255 640 q 258 652 255 647 q 265 662 260 658 q 274 668 269 666 q 286 670 280 670 q 296 668 291 670 q 306 662 302 666 q 313 652 310 658 q 315 640 315 647 l 315 583 q 384 569 353 581 q 436 541 414 558 q 470 504 458 525 q 483 462 483 484 q 478 438 483 448 q 465 420 473 427 q 445 410 456 413 q 422 406 434 406 q 400 411 409 406 q 385 423 391 415 q 374 439 379 430 q 361 456 368 448 q 343 470 354 464 q 315 480 332 477 l 315 200 q 342 211 332 203 q 360 227 352 218 q 373 245 367 236 q 386 263 379 255 q 404 276 394 271 q 429 281 413 281 q 451 277 441 281 q 468 266 461 273 q 479 250 475 259 q 483 231 483 241 q 473 190 483 212 q 442 148 463 168 q 390 115 422 129 q 315 98 359 101 l 315 36 q 313 23 315 29 q 306 14 310 18 q 296 8 302 10 q 286 5 291 5 q 274 8 280 5 q 265 14 269 10 q 258 23 260 18 q 255 36 255 29 l 255 98 z "},"©":{"ha":751,"x_min":22,"x_max":729,"o":"m 22 335 q 35 429 22 384 q 71 513 48 474 q 127 584 95 552 q 199 639 159 616 q 283 674 238 661 q 376 686 328 686 q 469 674 425 686 q 554 639 514 661 q 625 584 593 616 q 681 513 657 552 q 716 429 704 474 q 729 335 729 384 q 716 238 729 284 q 681 154 704 193 q 625 83 657 115 q 554 29 593 52 q 469 -5 514 7 q 376 -17 425 -17 q 283 -5 328 -17 q 199 29 238 7 q 127 83 159 52 q 71 154 95 115 q 35 238 48 193 q 22 335 22 284 m 111 335 q 131 225 111 275 q 186 137 151 174 q 270 79 221 100 q 376 58 318 58 q 448 68 413 58 q 511 95 482 77 q 565 137 541 112 q 606 193 589 162 q 632 259 623 223 q 642 335 642 295 q 632 410 642 374 q 606 476 623 446 q 565 531 589 506 q 511 573 541 555 q 448 599 482 590 q 376 608 413 608 q 303 599 338 608 q 239 573 269 590 q 186 531 210 555 q 146 476 162 506 q 120 410 129 446 q 111 335 111 374 m 197 334 q 209 414 197 377 q 246 478 222 451 q 304 521 270 505 q 381 536 338 536 q 446 525 417 536 q 494 498 474 515 q 524 462 514 482 q 535 424 535 442 q 531 403 535 412 q 521 389 527 394 q 508 381 515 384 q 497 379 502 379 q 480 382 487 379 q 469 389 473 384 q 460 399 464 393 q 454 411 457 405 q 445 427 450 419 q 432 441 440 435 q 412 452 424 448 q 381 456 399 456 q 345 447 361 456 q 318 424 329 439 q 300 386 306 408 q 294 336 294 364 q 300 287 294 310 q 318 249 306 265 q 346 223 329 232 q 382 214 362 214 q 411 218 399 214 q 430 228 422 222 q 444 243 438 235 q 454 259 449 251 q 462 272 458 266 q 471 283 466 278 q 484 290 477 288 q 501 293 491 293 q 528 283 518 293 q 538 254 538 272 q 534 233 538 245 q 520 207 529 220 q 498 180 511 194 q 467 157 485 167 q 429 140 450 146 q 382 134 408 134 q 306 149 340 134 q 248 192 272 165 q 210 255 223 219 q 197 334 197 292 z "},"¥":{"ha":671,"x_min":71,"x_max":601,"o":"m 262 184 l 148 184 q 134 186 140 184 q 123 194 127 189 q 115 205 118 199 q 112 220 112 212 q 115 234 112 227 q 123 245 118 240 q 134 253 127 250 q 148 256 140 256 l 262 256 l 262 282 l 247 309 l 148 309 q 134 312 140 309 q 123 319 127 315 q 115 331 118 324 q 112 345 112 337 q 115 359 112 353 q 123 371 118 366 q 134 378 127 375 q 148 381 140 381 l 204 381 l 83 581 q 71 620 71 601 q 80 654 71 639 q 107 677 90 669 q 149 686 125 686 q 174 681 164 686 q 193 670 185 676 q 205 655 200 663 q 212 643 210 648 l 335 408 l 459 643 q 466 655 461 648 q 478 670 471 663 q 497 681 486 676 q 522 686 507 686 q 563 678 545 686 q 590 655 581 669 q 601 621 600 641 q 588 581 601 602 l 467 381 l 523 381 q 537 378 530 381 q 548 371 544 375 q 556 359 553 366 q 559 345 559 353 q 556 331 559 337 q 548 319 553 324 q 537 312 544 315 q 523 309 530 309 l 424 309 l 408 282 l 408 256 l 523 256 q 537 253 530 256 q 548 245 544 250 q 556 234 553 240 q 559 220 559 227 q 556 205 559 212 q 548 194 553 199 q 537 186 544 189 q 523 184 530 184 l 408 184 l 408 62 q 403 32 408 45 q 389 8 398 18 q 366 -7 380 -1 q 335 -12 353 -12 q 304 -7 318 -12 q 282 8 291 -1 q 267 32 272 18 q 262 62 262 45 l 262 184 z "},"®":{"ha":751,"x_min":22,"x_max":729,"o":"m 22 335 q 35 429 22 384 q 71 513 48 474 q 127 584 95 552 q 199 639 159 616 q 283 674 238 661 q 376 686 328 686 q 469 674 425 686 q 554 639 514 661 q 625 584 593 616 q 681 513 657 552 q 716 429 704 474 q 729 335 729 384 q 716 238 729 284 q 681 154 704 193 q 625 83 657 115 q 554 29 593 52 q 469 -5 514 7 q 376 -17 425 -17 q 283 -5 328 -17 q 199 29 238 7 q 127 83 159 52 q 71 154 95 115 q 35 238 48 193 q 22 335 22 284 m 111 335 q 131 225 111 275 q 186 137 151 174 q 270 79 221 100 q 376 58 318 58 q 448 68 413 58 q 511 95 482 77 q 565 137 541 112 q 606 193 589 162 q 632 259 623 223 q 642 335 642 295 q 632 410 642 374 q 606 476 623 446 q 565 531 589 506 q 511 573 541 555 q 448 599 482 590 q 376 608 413 608 q 303 599 338 608 q 239 573 269 590 q 186 531 210 555 q 146 476 162 506 q 120 410 129 446 q 111 335 111 374 m 237 475 q 241 494 237 486 q 250 507 244 502 q 264 515 256 512 q 280 517 272 517 l 399 517 q 456 512 431 517 q 499 493 481 506 q 526 458 516 480 q 535 404 535 436 q 528 358 535 377 q 508 325 520 338 q 480 304 496 312 q 448 296 464 297 l 509 215 q 518 199 514 208 q 522 182 522 191 q 519 166 522 174 q 507 152 515 159 q 488 143 498 145 q 468 144 478 141 q 450 154 459 148 q 435 171 441 161 l 346 296 l 322 296 l 322 186 q 309 154 322 164 q 280 143 297 143 q 263 146 271 143 q 250 154 256 149 q 240 167 244 159 q 237 186 237 175 l 237 475 m 322 364 l 394 364 q 414 366 404 364 q 430 372 423 367 q 440 386 436 377 q 445 407 445 394 q 440 428 445 420 q 430 441 436 436 q 414 447 423 446 q 394 449 404 449 l 322 449 l 322 364 z "},"«":{"ha":514,"x_min":48,"x_max":466,"o":"m 145 264 l 221 212 q 242 192 234 204 q 251 164 251 179 q 247 146 251 155 q 238 131 244 138 q 225 120 233 124 q 207 116 217 116 q 186 121 195 116 q 171 131 178 126 l 81 196 q 56 225 65 208 q 48 264 48 243 q 56 302 48 284 q 81 331 65 320 l 171 396 q 186 406 178 401 q 207 411 195 411 q 225 407 217 411 q 238 397 233 403 q 247 381 244 390 q 251 363 251 373 q 242 336 251 348 q 221 315 234 324 l 145 264 m 360 264 l 436 212 q 457 192 449 204 q 466 164 466 179 q 462 146 466 155 q 453 131 459 138 q 439 120 447 124 q 422 116 431 116 q 401 121 410 116 q 386 131 393 126 l 296 196 q 271 225 280 208 q 263 264 263 243 q 271 302 263 284 q 296 331 280 320 l 386 396 q 401 406 393 401 q 422 411 410 411 q 439 407 431 411 q 453 397 447 403 q 462 381 459 390 q 466 363 466 373 q 457 336 466 348 q 436 315 449 324 l 360 264 z "},"»":{"ha":514,"x_min":48,"x_max":466,"o":"m 293 315 q 272 336 280 324 q 263 363 263 348 q 267 381 263 373 q 276 397 270 390 q 289 407 281 403 q 307 411 297 411 q 328 406 319 411 q 343 396 336 401 l 433 331 q 458 302 449 320 q 466 264 466 284 q 458 225 466 243 q 433 196 449 208 l 343 131 q 328 121 336 126 q 307 116 319 116 q 289 120 297 116 q 276 131 281 124 q 267 146 270 138 q 263 164 263 155 q 272 192 263 179 q 293 212 280 204 l 369 264 l 293 315 m 78 315 q 57 336 65 324 q 48 363 48 348 q 52 381 48 373 q 61 397 55 390 q 75 407 67 403 q 92 411 83 411 q 113 406 104 411 q 128 396 121 401 l 218 331 q 243 302 234 320 q 251 264 251 284 q 243 225 251 243 q 218 196 234 208 l 128 131 q 113 121 121 126 q 92 116 104 116 q 75 120 83 116 q 61 131 67 124 q 52 146 55 138 q 48 164 48 155 q 57 192 48 179 q 78 212 65 204 l 154 264 l 78 315 z "},"±":{"ha":565,"x_min":21,"x_max":544,"o":"m 228 584 q 231 610 228 598 q 242 630 235 622 q 260 644 250 639 q 283 648 270 648 q 306 644 296 648 q 323 630 316 639 q 334 610 330 622 q 338 584 338 598 l 338 441 l 479 441 q 526 427 509 441 q 544 387 544 412 q 526 348 544 362 q 479 334 509 334 l 338 334 l 338 191 q 334 165 338 176 q 323 144 330 153 q 306 131 316 136 q 283 126 296 126 q 260 131 270 126 q 242 144 250 136 q 231 165 235 153 q 228 191 228 176 l 228 334 l 86 334 q 60 338 72 334 q 39 350 48 342 q 26 367 31 357 q 22 387 22 377 q 39 427 22 412 q 86 441 57 441 l 228 441 l 228 584 m 481 109 q 505 106 494 109 q 525 96 517 103 q 539 80 534 90 q 544 55 544 70 q 539 29 544 39 q 525 12 534 19 q 505 3 517 6 q 481 0 494 0 l 84 0 q 59 3 71 0 q 39 12 48 6 q 26 29 31 19 q 21 55 21 39 q 26 80 21 70 q 39 96 31 90 q 59 106 48 103 q 84 109 71 109 l 481 109 z "},"¼":{"ha":833,"x_min":43,"x_max":815,"o":"m 666 290 l 664 290 l 559 156 l 666 156 l 666 290 m 666 84 l 517 84 q 497 88 506 84 q 483 97 488 92 q 474 110 477 103 q 471 123 471 117 q 474 144 471 137 q 480 157 476 152 l 654 368 q 664 379 659 374 q 675 387 669 384 q 690 392 682 390 q 709 394 698 394 q 730 391 721 394 q 746 382 739 388 q 756 369 752 377 q 760 351 760 361 l 760 156 l 782 156 q 806 146 798 156 q 815 120 815 136 q 806 94 815 104 q 782 84 798 84 l 760 84 l 760 35 q 758 19 760 26 q 750 7 755 12 q 736 -1 745 2 q 713 -4 727 -4 q 690 -1 700 -4 q 676 7 681 2 q 668 19 670 12 q 666 35 666 26 l 666 84 m 559 667 q 565 676 562 672 q 573 685 569 681 q 583 691 577 689 q 595 693 588 693 q 610 691 603 693 q 621 684 616 688 q 629 673 626 679 q 631 662 631 668 q 629 647 631 655 q 621 631 626 640 l 289 3 q 283 -6 287 -1 q 276 -14 280 -10 q 266 -20 271 -18 q 253 -22 260 -22 q 239 -20 245 -22 q 228 -13 233 -17 q 220 -3 223 -8 q 217 9 217 3 q 227 40 217 22 l 559 667 m 148 527 q 110 516 129 518 q 76 514 90 514 q 52 522 61 514 q 43 548 43 531 q 45 564 43 557 q 53 574 48 570 q 66 580 58 577 q 86 584 75 582 l 109 588 q 134 597 125 590 q 151 613 144 604 q 161 631 157 622 q 171 648 166 640 q 184 661 177 656 q 206 666 192 666 q 234 658 224 666 q 244 628 244 650 l 244 317 q 242 297 244 306 q 235 282 240 288 q 220 272 229 276 q 196 269 211 269 q 159 282 170 269 q 148 317 148 295 l 148 527 z "},"½":{"ha":833,"x_min":43,"x_max":815,"o":"m 771 83 q 804 73 792 83 q 815 41 815 62 q 804 9 815 18 q 771 0 792 0 l 546 0 q 524 4 533 0 q 509 14 515 8 q 500 29 503 21 q 497 47 497 38 q 523 107 497 77 q 604 169 548 136 q 657 199 636 187 q 691 222 678 211 q 709 244 703 232 q 714 272 714 255 q 709 291 714 282 q 696 305 704 299 q 677 314 688 311 q 654 317 666 317 q 610 306 629 317 q 582 269 591 294 q 576 256 579 261 q 569 246 573 250 q 559 240 565 242 q 544 238 553 238 q 527 240 535 238 q 513 247 518 242 q 503 258 507 251 q 500 276 500 266 q 512 323 500 301 q 547 360 525 345 q 598 386 569 376 q 661 395 627 395 q 725 386 696 395 q 773 363 753 378 q 803 328 792 349 q 813 285 813 308 q 808 238 813 258 q 791 202 802 218 q 762 174 779 187 q 720 150 744 162 q 676 126 695 136 q 642 108 656 116 q 620 94 629 100 q 609 83 612 88 l 771 83 m 539 667 q 545 676 542 672 q 553 685 548 681 q 562 691 557 689 q 575 693 568 693 q 589 691 583 693 q 601 684 596 688 q 608 673 606 679 q 611 662 611 668 q 608 647 611 655 q 601 631 606 640 l 269 3 q 263 -6 267 -1 q 255 -14 260 -10 q 245 -20 251 -18 q 233 -22 240 -22 q 219 -20 225 -22 q 207 -13 212 -17 q 200 -3 202 -8 q 197 9 197 3 q 207 40 197 22 l 539 667 m 148 527 q 110 516 129 518 q 76 514 90 514 q 52 522 61 514 q 43 548 43 531 q 45 564 43 557 q 53 574 48 570 q 66 580 58 577 q 86 584 75 582 l 109 588 q 134 597 125 590 q 151 613 144 604 q 161 631 157 622 q 171 648 166 640 q 184 661 177 656 q 206 666 192 666 q 234 658 224 666 q 244 628 244 650 l 244 317 q 242 297 244 306 q 235 282 240 288 q 220 272 229 276 q 196 269 211 269 q 159 282 170 269 q 148 317 148 295 l 148 527 z "},"¾":{"ha":833,"x_min":44,"x_max":815,"o":"m 666 290 l 664 290 l 559 156 l 666 156 l 666 290 m 666 84 l 517 84 q 497 88 506 84 q 483 97 488 92 q 474 110 477 103 q 471 123 471 117 q 474 144 471 137 q 480 157 476 152 l 654 368 q 664 379 659 374 q 675 387 669 384 q 690 392 682 390 q 709 394 698 394 q 730 391 721 394 q 746 382 739 388 q 756 369 752 377 q 760 351 760 361 l 760 156 l 782 156 q 806 146 798 156 q 815 120 815 136 q 806 94 815 104 q 782 84 798 84 l 760 84 l 760 35 q 758 19 760 26 q 750 7 755 12 q 736 -1 745 2 q 713 -4 727 -4 q 690 -1 700 -4 q 676 7 681 2 q 668 19 670 12 q 666 35 666 26 l 666 84 m 598 667 q 604 676 600 672 q 611 685 607 681 q 621 691 615 689 q 634 693 627 693 q 648 691 641 693 q 659 684 654 688 q 667 673 664 679 q 670 662 670 668 q 667 647 670 655 q 660 631 664 640 l 328 3 q 322 -6 325 -1 q 314 -14 318 -10 q 304 -20 310 -18 q 292 -22 298 -22 q 277 -20 284 -22 q 266 -13 271 -17 q 258 -3 261 -8 q 256 9 256 3 q 258 24 256 16 q 266 40 261 32 l 598 667 m 44 361 q 56 389 44 378 q 90 399 68 399 q 110 395 103 399 q 123 385 118 391 q 132 371 127 378 q 143 357 136 363 q 162 346 150 351 q 194 342 174 342 q 223 346 211 342 q 244 357 236 350 q 256 372 252 363 q 260 391 260 381 q 258 408 260 400 q 250 422 256 416 q 234 432 244 428 q 209 438 224 436 q 194 440 202 439 q 177 445 185 441 q 164 454 170 448 q 159 470 159 460 q 162 490 159 483 q 172 502 165 497 q 189 508 179 506 q 211 510 198 509 q 241 523 232 512 q 251 551 251 533 q 247 567 251 560 q 235 579 242 574 q 218 586 228 584 q 197 588 208 588 q 169 584 179 588 q 151 575 158 581 q 139 562 143 569 q 128 549 134 555 q 115 540 123 544 q 96 536 108 536 q 80 537 87 536 q 66 543 72 539 q 57 553 60 547 q 54 569 54 560 q 60 600 54 586 q 78 624 67 613 q 104 643 90 635 q 136 656 119 651 q 169 663 152 661 q 201 666 186 666 q 270 657 242 666 q 317 632 299 647 q 342 597 334 617 q 351 558 351 578 q 336 513 351 532 q 293 481 321 493 l 293 479 q 323 468 311 476 q 344 449 336 460 q 356 424 352 438 q 360 395 360 410 q 347 337 360 362 q 311 297 334 313 q 259 273 289 281 q 195 265 229 265 q 143 270 166 265 q 104 283 121 275 q 76 301 88 291 q 58 322 65 311 q 47 343 51 333 q 44 361 44 353 z "},"÷":{"ha":565,"x_min":27,"x_max":538,"o":"m 204 75 q 210 106 204 91 q 227 131 217 120 q 252 149 238 142 q 282 156 266 156 q 312 149 298 156 q 338 131 327 142 q 355 106 349 120 q 361 75 361 91 q 355 47 361 60 q 338 23 349 33 q 313 6 327 13 q 283 0 299 0 q 253 6 268 0 q 228 22 239 12 q 211 46 217 32 q 204 75 204 59 m 204 464 q 210 495 204 480 q 227 520 217 509 q 252 537 238 531 q 282 543 266 543 q 312 537 298 543 q 338 520 327 531 q 355 495 349 509 q 361 464 361 480 q 355 434 361 448 q 338 409 349 420 q 313 392 327 399 q 283 386 299 386 q 253 392 268 386 q 228 409 239 399 q 211 434 217 420 q 204 464 204 448 m 475 323 q 500 320 488 323 q 520 311 511 317 q 533 294 528 304 q 538 269 538 284 q 533 243 538 254 q 520 227 528 233 q 500 217 511 220 q 475 214 488 214 l 90 214 q 66 217 77 214 q 46 227 54 220 q 32 243 37 233 q 27 269 27 254 q 32 294 27 284 q 46 311 37 304 q 66 320 54 317 q 90 323 77 323 l 475 323 z "},"–":{"ha":588,"x_min":0,"x_max":588,"o":"m 528 323 q 551 320 540 323 q 570 311 562 317 q 583 294 578 304 q 588 269 588 283 q 583 243 588 254 q 570 227 578 233 q 551 217 562 220 q 528 214 540 214 l 60 214 q 37 217 47 214 q 17 227 26 220 q 4 243 9 233 q 0 269 0 254 q 4 294 0 283 q 17 311 9 304 q 37 320 26 317 q 60 323 47 323 l 528 323 z "},"—":{"ha":1083,"x_min":0,"x_max":1083,"o":"m 1023 323 q 1046 320 1036 323 q 1066 311 1057 317 q 1079 294 1074 304 q 1083 269 1083 283 q 1079 243 1083 254 q 1066 227 1074 233 q 1046 217 1057 220 q 1023 214 1036 214 l 60 214 q 37 217 47 214 q 17 227 26 220 q 4 243 9 233 q 0 269 0 254 q 4 294 0 283 q 17 311 9 304 q 37 320 26 317 q 60 323 47 323 l 1023 323 z "},"“":{"ha":488,"x_min":62,"x_max":426,"o":"m 226 489 q 220 460 226 473 q 204 436 214 446 q 180 419 193 425 q 150 413 166 413 q 111 422 128 413 q 84 447 95 431 q 68 483 73 463 q 62 528 62 504 q 75 599 62 568 q 109 656 87 631 q 126 673 116 665 q 148 690 136 682 q 171 702 159 697 q 194 706 183 706 q 217 698 209 706 q 225 679 225 690 q 219 663 225 669 q 202 649 212 656 q 180 635 192 643 q 158 617 169 628 q 139 590 147 606 q 128 552 131 574 q 142 558 134 555 q 159 560 150 560 q 188 554 175 560 q 209 538 200 548 q 221 516 217 528 q 226 489 226 503 m 426 489 q 420 460 426 473 q 404 436 414 446 q 380 419 394 425 q 351 413 366 413 q 312 422 328 413 q 284 447 295 431 q 268 483 273 463 q 263 528 263 504 q 275 599 263 568 q 310 656 287 631 q 327 673 317 665 q 348 690 337 682 q 371 702 360 697 q 394 706 383 706 q 417 698 409 706 q 426 679 426 690 q 419 663 426 669 q 403 649 413 656 q 381 635 393 643 q 358 617 369 628 q 339 590 348 606 q 329 552 331 574 q 342 558 335 555 q 360 560 350 560 q 388 554 376 560 q 409 538 400 548 q 422 516 417 528 q 426 489 426 503 z "},"”":{"ha":488,"x_min":62,"x_max":425,"o":"m 62 631 q 68 660 62 646 q 85 684 74 674 q 109 700 95 694 q 138 706 122 706 q 177 697 160 706 q 204 673 194 688 q 221 636 215 657 q 226 592 226 615 q 214 520 226 552 q 179 463 201 489 q 162 446 172 455 q 140 430 152 437 q 117 418 129 423 q 95 413 105 413 q 71 422 79 413 q 63 441 63 430 q 70 457 63 450 q 86 470 76 464 q 108 485 96 477 q 130 503 120 492 q 149 529 141 514 q 160 568 157 545 q 146 562 154 564 q 129 560 139 560 q 101 566 113 560 q 80 582 88 572 q 67 604 71 591 q 62 631 62 617 m 262 631 q 268 660 262 646 q 284 684 274 674 q 308 700 294 694 q 337 706 322 706 q 376 697 360 706 q 404 673 393 688 q 420 636 415 657 q 425 592 425 615 q 413 520 425 552 q 378 463 401 489 q 361 446 371 455 q 340 430 351 437 q 316 418 328 423 q 294 413 304 413 q 271 422 279 413 q 262 441 262 430 q 269 457 262 450 q 285 470 275 464 q 307 485 295 477 q 330 503 319 492 q 349 529 340 514 q 359 568 357 545 q 346 562 353 564 q 328 560 338 560 q 300 566 312 560 q 279 582 288 572 q 266 604 271 591 q 262 631 262 617 z "},"‘":{"ha":289,"x_min":62,"x_max":226,"o":"m 226 489 q 220 460 226 473 q 204 436 214 446 q 180 419 193 425 q 150 413 166 413 q 111 422 128 413 q 84 447 95 431 q 68 483 73 463 q 62 528 62 504 q 75 599 62 568 q 109 656 87 631 q 126 673 116 665 q 148 690 136 682 q 171 702 159 697 q 194 706 183 706 q 217 698 209 706 q 225 679 225 690 q 219 663 225 669 q 202 649 212 656 q 180 635 192 643 q 158 617 169 628 q 139 590 147 606 q 128 552 131 574 q 142 558 134 555 q 159 560 150 560 q 188 554 175 560 q 209 538 200 548 q 221 516 217 528 q 226 489 226 503 z "},"’":{"ha":289,"x_min":62,"x_max":226,"o":"m 62 631 q 68 660 62 646 q 85 684 74 674 q 109 700 95 694 q 138 706 122 706 q 177 697 160 706 q 204 673 194 688 q 221 636 215 657 q 226 592 226 615 q 214 520 226 552 q 179 463 201 489 q 162 446 172 455 q 140 430 152 437 q 117 418 129 423 q 95 413 105 413 q 71 422 79 413 q 63 441 63 430 q 70 457 63 450 q 86 470 76 464 q 108 485 96 477 q 130 503 120 492 q 149 529 141 514 q 160 568 157 545 q 146 562 154 564 q 129 560 139 560 q 101 566 113 560 q 80 582 88 572 q 67 604 71 591 q 62 631 62 617 z "},"…":{"ha":942,"x_min":85,"x_max":856,"o":"m 85 73 q 91 103 85 89 q 107 127 97 117 q 132 144 118 138 q 161 150 145 150 q 191 144 177 150 q 216 127 205 138 q 232 103 226 117 q 238 73 238 89 q 232 43 238 57 q 216 19 226 30 q 191 3 205 8 q 161 -3 177 -3 q 132 3 145 -3 q 107 19 118 8 q 91 43 97 30 q 85 73 85 57 m 392 73 q 398 103 392 89 q 415 127 404 117 q 439 144 425 138 q 469 150 453 150 q 499 144 485 150 q 523 127 513 138 q 540 103 534 117 q 546 73 546 89 q 540 43 546 57 q 523 19 534 30 q 499 3 513 8 q 469 -3 485 -3 q 439 3 453 -3 q 415 19 425 8 q 398 43 404 30 q 392 73 392 57 m 702 73 q 708 103 702 89 q 725 127 714 117 q 749 144 735 138 q 779 150 763 150 q 809 144 795 150 q 833 127 823 138 q 850 103 844 117 q 856 73 856 89 q 850 43 856 57 q 833 19 844 30 q 809 3 823 8 q 779 -3 795 -3 q 749 3 763 -3 q 725 19 735 8 q 708 43 714 30 q 702 73 702 57 z "},"€":{"ha":740,"x_min":29,"x_max":706,"o":"m 98 340 q 98 353 98 347 q 99 367 98 360 l 79 367 q 60 368 69 367 q 44 373 51 369 q 33 384 38 377 q 29 404 29 392 q 37 429 29 421 q 56 440 44 437 q 81 443 67 443 q 106 442 94 442 l 110 442 q 149 542 122 496 q 215 622 175 589 q 309 675 255 656 q 429 695 362 695 q 511 686 473 695 q 579 664 548 678 q 632 633 609 651 q 671 595 655 615 q 695 555 687 575 q 704 518 703 535 q 686 467 705 485 q 635 448 668 448 q 606 454 618 448 q 585 467 594 459 q 568 487 576 476 q 551 509 560 498 q 533 532 543 521 q 508 551 523 543 q 475 565 494 560 q 429 570 456 570 q 377 562 402 570 q 331 537 352 553 q 292 497 309 521 q 264 442 275 473 l 407 442 q 426 441 417 442 q 443 437 435 440 q 454 426 450 433 q 458 406 458 419 q 454 386 458 393 q 443 374 450 378 q 427 368 436 370 q 407 367 417 367 l 250 367 q 249 340 249 354 q 249 327 249 333 q 249 314 249 320 l 407 314 q 426 313 417 314 q 443 309 436 312 q 454 298 450 305 q 458 278 458 290 q 454 257 458 265 q 443 245 450 250 q 427 240 436 241 q 407 239 418 239 l 262 239 q 286 187 271 211 q 322 146 300 163 q 371 119 343 129 q 435 110 399 110 q 487 119 465 110 q 524 142 508 129 q 552 173 540 156 q 575 204 564 190 q 600 228 587 218 q 630 239 612 238 q 658 236 645 240 q 680 224 670 232 q 695 205 689 216 q 703 180 701 194 q 697 132 706 156 q 671 86 689 108 q 629 46 654 65 q 573 14 604 28 q 507 -7 543 1 q 435 -15 472 -15 q 313 2 368 -15 q 216 50 258 18 q 147 129 174 81 q 107 239 119 176 l 80 239 q 62 240 71 239 q 46 245 53 241 q 34 256 39 249 q 30 276 30 263 q 37 296 30 289 q 53 308 43 304 q 75 313 63 312 q 99 314 87 314 q 98 327 98 320 q 98 340 98 333 z "},"™":{"ha":933,"x_min":86,"x_max":806,"o":"m 175 606 l 125 606 q 107 610 114 606 q 95 618 99 613 q 88 630 90 624 q 86 642 86 636 q 88 654 86 648 q 95 666 90 661 q 107 674 99 671 q 125 678 114 678 l 321 678 q 340 674 332 678 q 351 666 347 671 q 358 654 356 661 q 359 642 359 648 q 358 630 359 636 q 351 618 356 624 q 340 610 347 613 q 321 606 332 606 l 270 606 l 270 381 q 265 356 270 366 q 252 340 259 346 q 236 332 244 334 q 223 330 228 330 q 210 332 218 330 q 194 340 201 334 q 181 356 186 346 q 175 381 175 366 l 175 606 m 711 543 l 709 543 l 651 372 q 632 340 644 351 q 604 330 621 330 q 556 372 571 330 l 498 543 l 496 543 l 496 381 q 491 356 496 366 q 478 340 486 346 q 462 332 470 334 q 449 330 454 330 q 435 332 443 330 q 419 340 427 334 q 406 356 412 346 q 401 381 401 366 l 401 611 q 407 646 401 632 q 424 668 414 660 q 445 680 434 676 q 467 683 457 683 q 519 668 498 683 q 552 622 539 653 l 604 489 l 655 622 q 689 668 668 653 q 740 683 709 683 q 762 680 750 683 q 783 668 773 676 q 800 646 793 660 q 806 611 806 632 l 806 381 q 801 356 806 366 q 788 340 795 346 q 772 332 780 334 q 759 330 764 330 q 745 332 753 330 q 730 340 737 334 q 716 356 722 346 q 711 381 711 366 l 711 543 z "},"":{"ha":0,"x_min":-637,"x_max":-229,"o":"m -587 650 q -607 654 -598 650 q -623 666 -617 659 q -634 683 -630 673 q -637 704 -637 693 q -634 725 -637 715 q -623 742 -630 735 q -607 754 -617 750 q -587 758 -598 758 l -279 758 q -259 754 -268 758 q -243 742 -249 750 q -232 725 -236 735 q -229 704 -229 715 q -232 683 -229 693 q -243 666 -236 673 q -259 654 -249 659 q -279 650 -268 650 l -587 650 z "},"":{"ha":0,"x_min":-637,"x_max":-239,"o":"m -587 650 q -607 654 -598 650 q -623 666 -617 659 q -634 683 -630 673 q -637 704 -637 693 q -634 725 -637 715 q -623 742 -630 735 q -607 754 -617 750 q -587 758 -598 758 l -374 758 l -374 788 q -368 814 -374 802 q -354 834 -363 826 q -332 848 -345 843 q -306 852 -320 852 q -280 848 -292 852 q -259 834 -268 843 q -244 814 -250 826 q -239 788 -239 802 l -239 714 q -244 688 -239 700 q -259 668 -250 676 q -280 655 -268 660 q -306 650 -292 650 l -587 650 z "},"":{"ha":0,"x_min":-637,"x_max":-228,"o":"m -587 650 q -607 654 -598 650 q -623 666 -617 659 q -634 683 -630 673 q -637 704 -637 693 q -634 725 -637 715 q -623 742 -630 735 q -607 754 -617 750 q -587 758 -598 758 l -439 758 l -439 763 q -430 804 -439 784 q -408 837 -422 823 q -375 860 -394 851 q -333 868 -355 868 q -292 860 -312 868 q -259 837 -273 851 q -236 802 -244 822 q -228 761 -228 783 q -236 717 -228 737 q -259 682 -244 696 q -292 658 -273 667 q -333 650 -312 650 l -587 650 m -371 763 q -368 749 -371 755 q -360 737 -365 742 q -348 729 -355 732 q -333 726 -341 726 q -319 729 -326 726 q -307 737 -312 732 q -299 749 -302 742 q -296 763 -296 755 q -299 777 -296 770 q -307 789 -302 784 q -319 797 -312 794 q -333 800 -326 800 q -348 797 -341 800 q -360 789 -355 794 q -368 777 -365 784 q -371 763 -371 770 z "},"":{"ha":0,"x_min":-637,"x_max":-239,"o":"m -587 650 q -607 654 -598 650 q -623 666 -617 659 q -634 683 -630 673 q -637 704 -637 693 q -634 725 -637 715 q -623 742 -630 735 q -607 754 -617 750 q -587 758 -598 758 l -500 758 l -500 801 q -496 822 -500 813 q -485 838 -492 832 q -468 849 -478 845 q -447 852 -458 852 q -425 849 -435 852 q -408 838 -415 845 q -396 822 -400 832 q -392 801 -392 813 l -392 758 l -347 758 l -347 801 q -343 822 -347 813 q -332 838 -339 832 q -315 849 -325 845 q -293 852 -305 852 q -272 849 -282 852 q -254 838 -262 845 q -243 822 -247 832 q -239 801 -239 813 l -239 714 q -244 688 -239 700 q -259 668 -250 676 q -280 655 -268 660 q -306 650 -292 650 l -587 650 z "},"":{"ha":0,"x_min":-400,"x_max":-264,"o":"m -264 706 q -269 680 -264 691 q -284 659 -275 668 q -305 646 -293 650 q -332 641 -318 641 q -358 646 -346 641 q -380 659 -370 650 q -394 680 -389 668 q -400 706 -400 691 l -400 792 q -394 819 -400 807 q -380 839 -389 830 q -358 852 -370 848 q -332 857 -346 857 q -305 852 -318 857 q -284 839 -293 848 q -269 819 -275 830 q -264 792 -264 807 l -264 706 z "},"":{"ha":0,"x_min":-561,"x_max":-211,"o":"m -312 809 q -300 827 -308 820 q -282 838 -292 834 q -262 842 -273 842 q -242 837 -252 841 q -225 823 -232 832 q -215 805 -218 815 q -212 784 -211 795 q -217 762 -212 773 q -245 719 -227 739 q -289 683 -263 698 q -347 660 -314 669 q -421 652 -380 652 l -466 652 q -483 655 -475 652 q -495 665 -490 659 q -503 680 -500 671 q -506 697 -506 688 l -506 744 l -521 744 q -538 747 -530 744 q -550 757 -545 751 q -558 772 -555 763 q -561 789 -561 780 q -558 807 -561 799 q -550 822 -555 815 q -538 832 -545 828 q -521 835 -530 835 l -444 835 q -427 832 -435 835 q -415 822 -420 828 q -407 807 -410 815 q -404 789 -404 799 l -404 750 q -372 756 -387 751 q -346 769 -357 761 q -325 787 -334 777 q -312 809 -317 798 z "}}}
